<svg width="1920" height="1080" viewBox="0 0 1920 1080" fill="none" xmlns="http://www.w3.org/2000/svg">
<g clip-path="url(#clip0_224_278)">
<rect width="1920" height="1080" fill="black"/>
<g filter="url(#filter0_f_224_278)">
<path d="M1915 -0.5C1915 199.979 1160.48 758 960 758C759.521 758 5.5 199.979 5.5 -0.5C5.5 -200.979 759.521 -301 960 -301C1160.48 -301 1915 -200.979 1915 -0.5Z" fill="#582995" fill-opacity="0.7"/>
</g>
<line x1="1080.56" y1="-368.832" x2="448.301" y2="344.229" stroke="url(#paint0_linear_224_278)" stroke-opacity="0.46"/>
<line x1="1030.43" y1="-413.285" x2="402.149" y2="295.286" stroke="url(#paint1_linear_224_278)" stroke-opacity="0.46"/>
<line x1="980.296" y1="-457.731" x2="357.324" y2="244.855" stroke="url(#paint2_linear_224_278)" stroke-opacity="0.46"/>
<line x1="930.171" y1="-502.184" x2="321.795" y2="183.941" stroke="url(#paint3_linear_224_278)" stroke-opacity="0.46"/>
<line x1="880.038" y1="-546.637" x2="282.94" y2="126.768" stroke="url(#paint4_linear_224_278)" stroke-opacity="0.46"/>
<line x1="829.905" y1="-591.082" x2="257.355" y2="54.6383" stroke="url(#paint5_linear_224_278)" stroke-opacity="0.46"/>
<line x1="409.816" y1="-320.046" x2="1248.58" y2="423.672" stroke="url(#paint6_linear_224_278)" stroke-opacity="0.46"/>
<line x1="355.418" y1="-258.687" x2="1168.74" y2="462.475" stroke="url(#paint7_linear_224_278)" stroke-opacity="0.46"/>
<line x1="303.004" y1="-199.577" x2="1083.41" y2="492.393" stroke="url(#paint8_linear_224_278)" stroke-opacity="0.46"/>
<line x1="265.8" y1="-135.015" x2="994.574" y2="511.178" stroke="url(#paint9_linear_224_278)" stroke-opacity="0.46"/>
<line x1="208.746" y1="-70.6632" x2="912.828" y2="553.636" stroke="url(#paint10_linear_224_278)" stroke-opacity="0.46"/>
<line x1="1142.66" y1="-313.77" x2="510.403" y2="399.291" stroke="url(#paint11_linear_224_278)" stroke-opacity="0.46"/>
<line x1="464.886" y1="-382.148" x2="1320.86" y2="376.83" stroke="url(#paint12_linear_224_278)" stroke-opacity="0.46"/>
<path d="M1206.53 -260.698C1205.43 -261.675 1203.75 -261.574 1202.77 -260.472C1201.79 -259.37 1201.89 -257.685 1203 -256.708C1204.1 -255.731 1205.78 -255.832 1206.76 -256.934C1207.74 -258.036 1207.64 -259.721 1206.53 -260.698ZM1204.77 -258.703L1204.39 -259.035L581.42 443.551L581.794 443.883L582.168 444.215L1205.14 -258.371L1204.77 -258.703Z" fill="url(#paint13_linear_224_278)" fill-opacity="0.46"/>
<line x1="519.949" y1="-444.249" x2="1383.4" y2="321.363" stroke="url(#paint14_linear_224_278)" stroke-opacity="0.46"/>
<line x1="1266.87" y1="-203.637" x2="669.769" y2="469.768" stroke="url(#paint15_linear_224_278)" stroke-opacity="0.46"/>
<line x1="575.019" y1="-506.351" x2="1438.47" y2="259.261" stroke="url(#paint16_linear_224_278)" stroke-opacity="0.46"/>
<line x1="1328.98" y1="-148.567" x2="756.425" y2="497.154" stroke="url(#paint17_linear_224_278)" stroke-opacity="0.46"/>
<line x1="630.082" y1="-568.46" x2="1480.07" y2="185.21" stroke="url(#paint18_linear_224_278)" stroke-opacity="0.46"/>
<line x1="1391.08" y1="-93.5042" x2="853.026" y2="513.309" stroke="url(#paint19_linear_224_278)" stroke-opacity="0.46"/>
<line x1="1496.13" y1="-89.8948" x2="958.081" y2="516.918" stroke="url(#paint20_linear_224_278)" stroke-opacity="0.46"/>
<line x1="1621.51" y1="-113.715" x2="1054.26" y2="526.02" stroke="url(#paint21_linear_224_278)" stroke-opacity="0.46"/>
<line x1="1780.05" y1="-174.95" x2="1242" y2="431.863" stroke="url(#paint22_linear_224_278)" stroke-opacity="0.46"/>
<line x1="685.152" y1="-630.562" x2="1523.92" y2="113.157" stroke="url(#paint23_linear_224_278)" stroke-opacity="0.46"/>
</g>
<defs>
<filter id="filter0_f_224_278" x="-684.3" y="-990.8" width="3289.1" height="2438.6" filterUnits="userSpaceOnUse" color-interpolation-filters="sRGB">
<feFlood flood-opacity="0" result="BackgroundImageFix"/>
<feBlend mode="normal" in="SourceGraphic" in2="BackgroundImageFix" result="shape"/>
<feGaussianBlur stdDeviation="344.9" result="effect1_foregroundBlur_224_278"/>
</filter>
<linearGradient id="paint0_linear_224_278" x1="1079.81" y1="-369.496" x2="447.553" y2="343.565" gradientUnits="userSpaceOnUse">
<stop stop-color="white" stop-opacity="0.39"/>
<stop offset="1" stop-color="white" stop-opacity="0"/>
</linearGradient>
<linearGradient id="paint1_linear_224_278" x1="1029.68" y1="-413.949" x2="401.401" y2="294.623" gradientUnits="userSpaceOnUse">
<stop stop-color="white" stop-opacity="0.39"/>
<stop offset="1" stop-color="white" stop-opacity="0"/>
</linearGradient>
<linearGradient id="paint2_linear_224_278" x1="979.548" y1="-458.394" x2="356.576" y2="244.192" gradientUnits="userSpaceOnUse">
<stop stop-color="white" stop-opacity="0.39"/>
<stop offset="1" stop-color="white" stop-opacity="0"/>
</linearGradient>
<linearGradient id="paint3_linear_224_278" x1="929.423" y1="-502.847" x2="321.047" y2="183.278" gradientUnits="userSpaceOnUse">
<stop stop-color="white" stop-opacity="0.39"/>
<stop offset="1" stop-color="white" stop-opacity="0"/>
</linearGradient>
<linearGradient id="paint4_linear_224_278" x1="879.29" y1="-547.3" x2="282.192" y2="126.105" gradientUnits="userSpaceOnUse">
<stop stop-color="white" stop-opacity="0.39"/>
<stop offset="1" stop-color="white" stop-opacity="0"/>
</linearGradient>
<linearGradient id="paint5_linear_224_278" x1="829.157" y1="-591.746" x2="256.607" y2="53.9748" gradientUnits="userSpaceOnUse">
<stop stop-color="white" stop-opacity="0.39"/>
<stop offset="1" stop-color="white" stop-opacity="0"/>
</linearGradient>
<linearGradient id="paint6_linear_224_278" x1="409.153" y1="-319.298" x2="1247.92" y2="424.421" gradientUnits="userSpaceOnUse">
<stop stop-color="white" stop-opacity="0.39"/>
<stop offset="1" stop-color="white" stop-opacity="0"/>
</linearGradient>
<linearGradient id="paint7_linear_224_278" x1="354.754" y1="-257.938" x2="1168.08" y2="463.223" gradientUnits="userSpaceOnUse">
<stop stop-color="white" stop-opacity="0.39"/>
<stop offset="1" stop-color="white" stop-opacity="0"/>
</linearGradient>
<linearGradient id="paint8_linear_224_278" x1="302.34" y1="-198.829" x2="1082.74" y2="493.141" gradientUnits="userSpaceOnUse">
<stop stop-color="white" stop-opacity="0.39"/>
<stop offset="1" stop-color="white" stop-opacity="0"/>
</linearGradient>
<linearGradient id="paint9_linear_224_278" x1="265.137" y1="-134.266" x2="993.911" y2="511.926" gradientUnits="userSpaceOnUse">
<stop stop-color="white" stop-opacity="0.39"/>
<stop offset="1" stop-color="white" stop-opacity="0"/>
</linearGradient>
<linearGradient id="paint10_linear_224_278" x1="208.082" y1="-69.9149" x2="912.165" y2="554.384" gradientUnits="userSpaceOnUse">
<stop stop-color="white" stop-opacity="0.39"/>
<stop offset="1" stop-color="white" stop-opacity="0"/>
</linearGradient>
<linearGradient id="paint11_linear_224_278" x1="1141.91" y1="-314.433" x2="509.655" y2="398.628" gradientUnits="userSpaceOnUse">
<stop stop-color="white" stop-opacity="0.39"/>
<stop offset="1" stop-color="white" stop-opacity="0"/>
</linearGradient>
<linearGradient id="paint12_linear_224_278" x1="464.223" y1="-381.399" x2="1320.2" y2="377.578" gradientUnits="userSpaceOnUse">
<stop stop-color="white" stop-opacity="0.39"/>
<stop offset="1" stop-color="white" stop-opacity="0"/>
</linearGradient>
<linearGradient id="paint13_linear_224_278" x1="1204.39" y1="-259.035" x2="581.42" y2="443.551" gradientUnits="userSpaceOnUse">
<stop stop-color="white" stop-opacity="0.39"/>
<stop offset="1" stop-color="white" stop-opacity="0"/>
</linearGradient>
<linearGradient id="paint14_linear_224_278" x1="519.285" y1="-443.501" x2="1382.74" y2="322.111" gradientUnits="userSpaceOnUse">
<stop stop-color="white" stop-opacity="0.39"/>
<stop offset="1" stop-color="white" stop-opacity="0"/>
</linearGradient>
<linearGradient id="paint15_linear_224_278" x1="1266.12" y1="-204.3" x2="669.02" y2="469.105" gradientUnits="userSpaceOnUse">
<stop stop-color="white" stop-opacity="0.39"/>
<stop offset="1" stop-color="white" stop-opacity="0"/>
</linearGradient>
<linearGradient id="paint16_linear_224_278" x1="574.356" y1="-505.602" x2="1437.81" y2="260.009" gradientUnits="userSpaceOnUse">
<stop stop-color="white" stop-opacity="0.39"/>
<stop offset="1" stop-color="white" stop-opacity="0"/>
</linearGradient>
<linearGradient id="paint17_linear_224_278" x1="1328.23" y1="-149.23" x2="755.677" y2="496.49" gradientUnits="userSpaceOnUse">
<stop stop-color="white" stop-opacity="0.39"/>
<stop offset="1" stop-color="white" stop-opacity="0"/>
</linearGradient>
<linearGradient id="paint18_linear_224_278" x1="629.418" y1="-567.712" x2="1479.41" y2="185.958" gradientUnits="userSpaceOnUse">
<stop stop-color="white" stop-opacity="0.39"/>
<stop offset="1" stop-color="white" stop-opacity="0"/>
</linearGradient>
<linearGradient id="paint19_linear_224_278" x1="1390.33" y1="-94.1677" x2="852.278" y2="512.645" gradientUnits="userSpaceOnUse">
<stop stop-color="white" stop-opacity="0.39"/>
<stop offset="1" stop-color="white" stop-opacity="0"/>
</linearGradient>
<linearGradient id="paint20_linear_224_278" x1="1495.38" y1="-90.5583" x2="957.332" y2="516.254" gradientUnits="userSpaceOnUse">
<stop stop-color="white" stop-opacity="0.39"/>
<stop offset="1" stop-color="white" stop-opacity="0"/>
</linearGradient>
<linearGradient id="paint21_linear_224_278" x1="1620.76" y1="-114.379" x2="1053.52" y2="525.356" gradientUnits="userSpaceOnUse">
<stop stop-color="white" stop-opacity="0.39"/>
<stop offset="1" stop-color="white" stop-opacity="0"/>
</linearGradient>
<linearGradient id="paint22_linear_224_278" x1="1779.31" y1="-175.613" x2="1241.25" y2="431.2" gradientUnits="userSpaceOnUse">
<stop stop-color="white" stop-opacity="0.39"/>
<stop offset="1" stop-color="white" stop-opacity="0"/>
</linearGradient>
<linearGradient id="paint23_linear_224_278" x1="684.489" y1="-629.813" x2="1523.25" y2="113.905" gradientUnits="userSpaceOnUse">
<stop stop-color="white" stop-opacity="0.39"/>
<stop offset="1" stop-color="white" stop-opacity="0"/>
</linearGradient>
<clipPath id="clip0_224_278">
<rect width="1920" height="1080" fill="white"/>
</clipPath>
</defs>
</svg>
