<svg width="1846" height="1846" viewBox="0 0 1846 1846" fill="none" xmlns="http://www.w3.org/2000/svg">
<g clip-path="url(#clip0_223_460)">
<rect width="1846" height="1846" fill="#080B12"/>
<g filter="url(#filter0_f_223_460)">
<path d="M1730.3 92.035C1730.3 92.035 1688.23 92.035 1688.22 49.9609C1688.22 49.9609 1687.38 92.0403 1646.15 92.035C1646.15 92.035 1688.22 92.8817 1688.22 134.109C1688.22 134.109 1689.06 92.035 1730.3 92.035Z" fill="white"/>
</g>
<g filter="url(#filter1_f_223_460)">
<path d="M504.89 397.074C504.89 397.074 462.821 397.074 462.816 355C462.816 355 461.969 397.079 420.742 397.074C420.742 397.074 462.816 397.921 462.816 439.148C462.816 439.148 463.658 397.074 504.89 397.074Z" fill="white"/>
</g>
<g filter="url(#filter2_f_223_460)">
<path d="M1746.07 647.73C1746.07 647.73 1704 647.73 1704 605.656C1704 605.656 1703.15 647.736 1661.92 647.73C1661.92 647.73 1704 648.577 1704 689.804C1704 689.804 1704.84 647.73 1746.07 647.73Z" fill="white"/>
</g>
<g filter="url(#filter3_f_223_460)">
<path d="M268.218 179.652C268.218 179.652 226.15 179.652 226.144 137.578C226.144 137.578 225.298 179.657 184.07 179.652C184.07 179.652 226.144 180.499 226.144 221.726C226.144 221.726 226.986 179.652 268.218 179.652Z" fill="white"/>
</g>
<g filter="url(#filter4_f_223_460)">
<path d="M241.922 1547.06C241.922 1547.06 199.853 1547.06 199.848 1504.98C199.848 1504.98 199.001 1547.06 157.773 1547.06C157.773 1547.06 199.848 1547.91 199.848 1589.13C199.848 1589.13 200.689 1547.06 241.922 1547.06Z" fill="white"/>
</g>
<g filter="url(#filter5_f_223_460)">
<path d="M1425.26 1646.99C1425.26 1646.99 1383.19 1646.99 1383.18 1604.91C1383.18 1604.91 1382.34 1646.99 1341.11 1646.99C1341.11 1646.99 1383.18 1647.83 1383.18 1689.06C1383.18 1689.06 1384.02 1646.99 1425.26 1646.99Z" fill="white"/>
</g>
<g filter="url(#filter6_f_223_460)">
<path d="M247.179 889.652C247.179 889.652 205.111 889.652 205.105 847.578C205.105 847.578 204.259 889.658 163.031 889.652C163.031 889.652 205.105 890.499 205.105 931.726C205.105 931.726 205.947 889.652 247.179 889.652Z" fill="white"/>
</g>
<g filter="url(#filter7_f_223_460)">
<path d="M1167.55 216.465C1167.55 216.465 1125.49 216.465 1125.48 174.391C1125.48 174.391 1124.63 216.47 1083.41 216.465C1083.41 216.465 1125.48 217.311 1125.48 258.539C1125.48 258.539 1126.32 216.465 1167.55 216.465Z" fill="white"/>
</g>
<g filter="url(#filter8_f_223_460)">
<path d="M1640.88 516.246C1640.88 516.246 1598.81 516.246 1598.81 474.172C1598.81 474.172 1597.96 516.251 1556.73 516.246C1556.73 516.246 1598.81 517.093 1598.81 558.32C1598.81 558.32 1599.65 516.246 1640.88 516.246Z" fill="white"/>
</g>
<g filter="url(#filter9_f_223_460)">
<path d="M1677.7 1483.95C1677.7 1483.95 1635.63 1483.95 1635.63 1441.88C1635.63 1441.88 1634.78 1483.95 1593.55 1483.95C1593.55 1483.95 1635.63 1484.8 1635.63 1526.02C1635.63 1526.02 1636.47 1483.95 1677.7 1483.95Z" fill="white"/>
</g>
<g filter="url(#filter10_f_223_460)">
<path d="M599.554 1689.06C599.554 1689.06 557.486 1689.06 557.48 1646.98C557.48 1646.98 556.634 1689.06 515.406 1689.06C515.406 1689.06 557.48 1689.91 557.48 1731.13C557.48 1731.13 558.322 1689.06 599.554 1689.06Z" fill="white"/>
</g>
<g filter="url(#filter11_f_223_460)">
<path d="M641.625 32.3944C641.625 32.3944 599.556 32.3944 599.551 -9.67969C599.551 -9.67969 598.704 32.3996 557.477 32.3944C557.477 32.3944 599.551 33.2411 599.551 74.4685C599.551 74.4685 600.392 32.3944 641.625 32.3944Z" fill="white"/>
</g>
<g filter="url(#filter12_f_223_460)">
<path d="M1383.18 121.801C1383.18 121.801 1341.11 121.801 1341.11 79.7266C1341.11 79.7266 1340.26 121.806 1299.03 121.801C1299.03 121.801 1341.11 122.647 1341.11 163.875C1341.11 163.875 1341.95 121.801 1383.18 121.801Z" fill="white"/>
</g>
<path d="M310.68 429.227L177.032 660.712L654.469 936.361L788.117 704.875L310.68 429.227Z" fill="black"/>
<path d="M310.68 429.227L177.032 660.712L654.469 936.361L788.117 704.875L310.68 429.227Z" stroke="white" stroke-width="3.176"/>
<path d="M746.308 782.011L700.366 861.585L779.941 907.527L825.883 827.953L746.308 782.011Z" fill="black"/>
<path d="M746.308 782.011L700.366 861.585L779.941 907.527L825.883 827.953L746.308 782.011Z" stroke="white" stroke-width="3.176"/>
<path d="M609.533 905.596L741.094 677.727" stroke="white"/>
<path d="M555.283 874.276L686.844 646.406" stroke="white"/>
<path d="M501.026 842.947L632.586 615.078" stroke="white"/>
<path d="M446.776 811.627L578.336 583.758" stroke="white"/>
<path d="M392.518 780.299L524.078 552.43" stroke="white"/>
<path d="M338.268 748.979L469.828 521.109" stroke="white"/>
<path d="M284.01 717.65L415.57 489.781" stroke="white"/>
<path d="M227.672 689.947L361.32 458.461" stroke="white"/>
<path d="M309.56 447.875L768.906 713.078" stroke="white"/>
<path d="M280.326 498.508L739.672 763.711" stroke="white"/>
<path d="M249.006 552.765L708.352 817.969" stroke="white"/>
<path d="M219.771 603.398L679.117 868.602" stroke="white"/>
<path d="M190.537 654.039L649.883 919.242" stroke="white"/>
<path d="M985.848 679.185C953.888 660.733 913.017 671.685 894.564 703.645L689.919 1058.1C680.691 1074.08 686.166 1094.52 702.148 1103.74L904.694 1220.68C920.676 1229.91 941.108 1224.44 950.336 1208.45L1154.98 853.996C1173.43 822.037 1162.48 781.165 1130.52 762.713L985.848 679.185Z" fill="black"/>
<path d="M985.848 679.185C953.888 660.733 913.017 671.685 894.564 703.645L689.919 1058.1C680.691 1074.08 686.166 1094.52 702.148 1103.74L904.694 1220.68C920.676 1229.91 941.108 1224.44 950.336 1208.45L1154.98 853.996C1173.43 822.037 1162.48 781.165 1130.52 762.713L985.848 679.185Z" stroke="white" stroke-width="3.176"/>
<path d="M1017.02 658.597C1001.04 649.369 980.607 654.844 971.38 670.826L963.026 685.296L1136.64 785.533L1144.99 771.063C1154.22 755.08 1148.75 734.648 1132.76 725.421L1017.02 658.597Z" fill="black"/>
<path d="M1017.02 658.597C1001.04 649.369 980.607 654.844 971.38 670.826L963.026 685.296L1136.64 785.533L1144.99 771.063C1154.22 755.08 1148.75 734.648 1132.76 725.421L1017.02 658.597Z" stroke="white" stroke-width="3.176"/>
<path d="M1069.9 650.546C1049.92 639.012 1024.38 645.856 1012.84 665.833L1008.67 673.07L1124.41 739.894L1128.59 732.657C1140.12 712.68 1133.28 687.14 1113.3 675.606L1069.9 650.546Z" fill="black"/>
<path d="M1069.9 650.546C1049.92 639.012 1024.38 645.856 1012.84 665.833L1008.67 673.07L1124.41 739.894L1128.59 732.657C1140.12 712.68 1133.28 687.14 1113.3 675.606L1069.9 650.546Z" stroke="white" stroke-width="3.176"/>
<path d="M726.942 1110.91C653.034 1068.24 558.524 1093.56 515.853 1167.47L942.652 1413.89C985.323 1339.98 959.999 1245.47 886.091 1202.8L726.942 1110.91Z" fill="black"/>
<path d="M726.942 1110.91C653.034 1068.24 558.524 1093.56 515.853 1167.47L942.652 1413.89C985.323 1339.98 959.999 1245.47 886.091 1202.8L726.942 1110.91Z" stroke="white" stroke-width="3.176"/>
<path d="M674.763 1385.05C688.737 1393.11 693.532 1411.01 685.464 1424.98C677.397 1438.96 659.501 1443.75 645.527 1435.69C631.553 1427.62 626.758 1409.72 634.826 1395.75C642.893 1381.77 660.789 1376.98 674.763 1385.05ZM737.819 1300.89L681.437 1398.55L659.734 1386.02L716.116 1288.36L737.819 1300.89Z" fill="white"/>
<path d="M1689.13 1225.08L1555.48 1456.56L1078.05 1180.92L1211.7 949.43L1689.13 1225.08Z" fill="black"/>
<path d="M1689.13 1225.08L1555.48 1456.56L1078.05 1180.92L1211.7 949.43L1689.13 1225.08Z" stroke="white" stroke-width="3.176"/>
<path d="M1165.8 1024.21L1119.86 1103.78L1040.28 1057.84L1086.23 978.266L1165.8 1024.21Z" fill="black"/>
<path d="M1165.8 1024.21L1119.86 1103.78L1040.28 1057.84L1086.23 978.266L1165.8 1024.21Z" stroke="white" stroke-width="3.176"/>
<path d="M1127.16 1204.45L1258.72 976.578" stroke="white"/>
<path d="M1181.41 1235.77L1312.97 1007.9" stroke="white"/>
<path d="M1235.66 1267.1L1367.22 1039.23" stroke="white"/>
<path d="M1289.92 1298.42L1421.48 1070.55" stroke="white"/>
<path d="M1344.17 1329.74L1475.73 1101.88" stroke="white"/>
<path d="M1398.42 1361.06L1529.98 1133.2" stroke="white"/>
<path d="M1452.67 1392.38L1584.23 1164.52" stroke="white"/>
<path d="M1504.84 1427.33L1638.49 1195.84" stroke="white"/>
<path d="M1673.54 1235.37L1214.2 970.164" stroke="white"/>
<path d="M1644.31 1286L1184.96 1020.8" stroke="white"/>
<path d="M1612.98 1340.26L1153.63 1075.05" stroke="white"/>
<path d="M1583.74 1390.9L1124.4 1125.7" stroke="white"/>
<path d="M1554.51 1441.53L1095.16 1176.33" stroke="white"/>
<path d="M957.849 785.996L903.594 754.672" stroke="white" stroke-width="7.147" stroke-linecap="round"/>
<path d="M925.81 1170.18L871.555 1138.86" stroke="white" stroke-width="7.147" stroke-linecap="round"/>
<path d="M787.686 1013.27C809.644 1025.95 817.179 1054.07 804.502 1076.03C791.824 1097.98 763.702 1105.52 741.743 1092.84C719.785 1080.16 712.25 1052.04 724.927 1030.08C737.605 1008.13 765.727 1000.59 787.686 1013.27Z" fill="white"/>
<path d="M983.39 861.017C991.375 865.627 994.115 875.853 989.505 883.838C984.895 891.823 974.669 894.563 966.684 889.953C958.699 885.343 955.959 875.117 960.569 867.132C965.179 859.147 975.405 856.407 983.39 861.017Z" fill="white"/>
<path d="M956.241 908.033C964.226 912.643 966.966 922.869 962.356 930.854C957.746 938.838 947.52 941.578 939.535 936.968C931.55 932.358 928.81 922.132 933.42 914.148C938.03 906.163 948.256 903.423 956.241 908.033Z" fill="white"/>
<path d="M929.093 955.056C937.078 959.666 939.818 969.892 935.208 977.877C930.598 985.862 920.372 988.602 912.387 983.992C904.402 979.382 901.662 969.156 906.272 961.171C910.882 953.186 921.108 950.446 929.093 955.056Z" fill="white"/>
<path d="M901.944 1002.08C909.929 1006.69 912.669 1016.92 908.059 1024.9C903.449 1032.89 893.223 1035.63 885.238 1031.02C877.254 1026.41 874.514 1016.18 879.124 1008.19C883.734 1000.21 893.96 997.47 901.944 1002.08Z" fill="white"/>
<path d="M1019.56 955.848L1097.87 820.211" stroke="white" stroke-width="7.147" stroke-linecap="round"/>
</g>
<defs>
<filter id="filter0_f_223_460" x="1643.75" y="47.5609" width="88.9484" height="88.9484" filterUnits="userSpaceOnUse" color-interpolation-filters="sRGB">
<feFlood flood-opacity="0" result="BackgroundImageFix"/>
<feBlend mode="normal" in="SourceGraphic" in2="BackgroundImageFix" result="shape"/>
<feGaussianBlur stdDeviation="1.2" result="effect1_foregroundBlur_223_460"/>
</filter>
<filter id="filter1_f_223_460" x="418.342" y="352.6" width="88.9484" height="88.9484" filterUnits="userSpaceOnUse" color-interpolation-filters="sRGB">
<feFlood flood-opacity="0" result="BackgroundImageFix"/>
<feBlend mode="normal" in="SourceGraphic" in2="BackgroundImageFix" result="shape"/>
<feGaussianBlur stdDeviation="1.2" result="effect1_foregroundBlur_223_460"/>
</filter>
<filter id="filter2_f_223_460" x="1659.52" y="603.256" width="88.9484" height="88.9484" filterUnits="userSpaceOnUse" color-interpolation-filters="sRGB">
<feFlood flood-opacity="0" result="BackgroundImageFix"/>
<feBlend mode="normal" in="SourceGraphic" in2="BackgroundImageFix" result="shape"/>
<feGaussianBlur stdDeviation="1.2" result="effect1_foregroundBlur_223_460"/>
</filter>
<filter id="filter3_f_223_460" x="181.67" y="135.178" width="88.9484" height="88.9484" filterUnits="userSpaceOnUse" color-interpolation-filters="sRGB">
<feFlood flood-opacity="0" result="BackgroundImageFix"/>
<feBlend mode="normal" in="SourceGraphic" in2="BackgroundImageFix" result="shape"/>
<feGaussianBlur stdDeviation="1.2" result="effect1_foregroundBlur_223_460"/>
</filter>
<filter id="filter4_f_223_460" x="155.373" y="1502.58" width="88.9484" height="88.9484" filterUnits="userSpaceOnUse" color-interpolation-filters="sRGB">
<feFlood flood-opacity="0" result="BackgroundImageFix"/>
<feBlend mode="normal" in="SourceGraphic" in2="BackgroundImageFix" result="shape"/>
<feGaussianBlur stdDeviation="1.2" result="effect1_foregroundBlur_223_460"/>
</filter>
<filter id="filter5_f_223_460" x="1338.71" y="1602.51" width="88.9484" height="88.9484" filterUnits="userSpaceOnUse" color-interpolation-filters="sRGB">
<feFlood flood-opacity="0" result="BackgroundImageFix"/>
<feBlend mode="normal" in="SourceGraphic" in2="BackgroundImageFix" result="shape"/>
<feGaussianBlur stdDeviation="1.2" result="effect1_foregroundBlur_223_460"/>
</filter>
<filter id="filter6_f_223_460" x="160.631" y="845.178" width="88.9484" height="88.9484" filterUnits="userSpaceOnUse" color-interpolation-filters="sRGB">
<feFlood flood-opacity="0" result="BackgroundImageFix"/>
<feBlend mode="normal" in="SourceGraphic" in2="BackgroundImageFix" result="shape"/>
<feGaussianBlur stdDeviation="1.2" result="effect1_foregroundBlur_223_460"/>
</filter>
<filter id="filter7_f_223_460" x="1081.01" y="171.991" width="88.9484" height="88.9484" filterUnits="userSpaceOnUse" color-interpolation-filters="sRGB">
<feFlood flood-opacity="0" result="BackgroundImageFix"/>
<feBlend mode="normal" in="SourceGraphic" in2="BackgroundImageFix" result="shape"/>
<feGaussianBlur stdDeviation="1.2" result="effect1_foregroundBlur_223_460"/>
</filter>
<filter id="filter8_f_223_460" x="1554.33" y="471.772" width="88.9484" height="88.9484" filterUnits="userSpaceOnUse" color-interpolation-filters="sRGB">
<feFlood flood-opacity="0" result="BackgroundImageFix"/>
<feBlend mode="normal" in="SourceGraphic" in2="BackgroundImageFix" result="shape"/>
<feGaussianBlur stdDeviation="1.2" result="effect1_foregroundBlur_223_460"/>
</filter>
<filter id="filter9_f_223_460" x="1591.15" y="1439.47" width="88.9484" height="88.9484" filterUnits="userSpaceOnUse" color-interpolation-filters="sRGB">
<feFlood flood-opacity="0" result="BackgroundImageFix"/>
<feBlend mode="normal" in="SourceGraphic" in2="BackgroundImageFix" result="shape"/>
<feGaussianBlur stdDeviation="1.2" result="effect1_foregroundBlur_223_460"/>
</filter>
<filter id="filter10_f_223_460" x="513.006" y="1644.58" width="88.9484" height="88.9484" filterUnits="userSpaceOnUse" color-interpolation-filters="sRGB">
<feFlood flood-opacity="0" result="BackgroundImageFix"/>
<feBlend mode="normal" in="SourceGraphic" in2="BackgroundImageFix" result="shape"/>
<feGaussianBlur stdDeviation="1.2" result="effect1_foregroundBlur_223_460"/>
</filter>
<filter id="filter11_f_223_460" x="555.077" y="-12.0797" width="88.9484" height="88.9484" filterUnits="userSpaceOnUse" color-interpolation-filters="sRGB">
<feFlood flood-opacity="0" result="BackgroundImageFix"/>
<feBlend mode="normal" in="SourceGraphic" in2="BackgroundImageFix" result="shape"/>
<feGaussianBlur stdDeviation="1.2" result="effect1_foregroundBlur_223_460"/>
</filter>
<filter id="filter12_f_223_460" x="1296.63" y="77.3266" width="88.9484" height="88.9484" filterUnits="userSpaceOnUse" color-interpolation-filters="sRGB">
<feFlood flood-opacity="0" result="BackgroundImageFix"/>
<feBlend mode="normal" in="SourceGraphic" in2="BackgroundImageFix" result="shape"/>
<feGaussianBlur stdDeviation="1.2" result="effect1_foregroundBlur_223_460"/>
</filter>
<clipPath id="clip0_223_460">
<rect width="1846" height="1846" fill="white"/>
</clipPath>
</defs>
</svg>
