<?xml version="1.0" encoding="utf-8"?>
<!-- Generator: Adobe Illustrator 27.5.0, SVG Export Plug-In . SVG Version: 6.00 Build 0)  -->
<svg version="1.1" xmlns="http://www.w3.org/2000/svg" xmlns:xlink="http://www.w3.org/1999/xlink" x="0px" y="0px"
	 viewBox="0 0 750 500" style="enable-background:new 0 0 750 500;" xml:space="preserve">
<g id="BACKGROUND">
	<rect style="fill:#FFFFFF;" width="750" height="500"/>
</g>
<g id="OBJECTS">
	<path style="fill:#EBE6DD;" d="M610.332,438.687c19.063-36.808,29.842-78.6,29.842-122.912
		c0-147.82-119.832-267.652-267.652-267.652S104.869,167.954,104.869,315.774c0,44.313,10.779,86.104,29.842,122.912H610.332z"/>
	<g>
		
			<rect x="446.802" y="211.561" transform="matrix(-1 -1.224647e-16 1.224647e-16 -1 896.1513 500.1066)" style="fill:#FFFFFF;" width="2.548" height="76.984"/>
		
			<rect x="440.001" y="179.247" transform="matrix(-1 -1.224647e-16 1.224647e-16 -1 882.5501 500.1066)" style="fill:#FFFFFF;" width="2.548" height="141.612"/>
		
			<rect x="433.2" y="202.374" transform="matrix(-1 -1.224647e-16 1.224647e-16 -1 868.9488 500.1065)" style="fill:#FFFFFF;" width="2.548" height="95.358"/>
		
			<rect x="385.596" y="202.374" transform="matrix(-1 -1.224647e-16 1.224647e-16 -1 773.74 500.1065)" style="fill:#FFFFFF;" width="2.548" height="95.358"/>
		
			<rect x="378.795" y="202.374" transform="matrix(-1 -1.224647e-16 1.224647e-16 -1 760.1387 500.1065)" style="fill:#FFFFFF;" width="2.548" height="95.358"/>
		
			<rect x="371.995" y="189.087" transform="matrix(-1 -1.224647e-16 1.224647e-16 -1 746.5375 500.1066)" style="fill:#FFFFFF;" width="2.548" height="121.933"/>
		
			<rect x="365.194" y="189.087" transform="matrix(-1 -1.224647e-16 1.224647e-16 -1 732.9363 500.1066)" style="fill:#FFFFFF;" width="2.548" height="121.933"/>
		
			<rect x="426.4" y="219.419" transform="matrix(-1 -1.224647e-16 1.224647e-16 -1 855.3475 500.1066)" style="fill:#FFFFFF;" width="2.548" height="61.268"/>
		
			<rect x="419.599" y="231.246" transform="matrix(-1 -1.224647e-16 1.224647e-16 -1 841.7463 500.1066)" style="fill:#FFFFFF;" width="2.548" height="37.615"/>
		
			<rect x="392.397" y="231.246" transform="matrix(-1 -1.224647e-16 1.224647e-16 -1 787.3413 500.1066)" style="fill:#FFFFFF;" width="2.548" height="37.615"/>
		
			<rect x="358.393" y="232.847" transform="matrix(-1 -1.224647e-16 1.224647e-16 -1 719.335 503.3094)" style="fill:#FFFFFF;" width="2.548" height="37.615"/>
		
			<rect x="412.798" y="240.95" transform="matrix(-1 -1.224647e-16 1.224647e-16 -1 828.1451 500.1066)" style="fill:#FFFFFF;" width="2.548" height="18.206"/>
		
			<rect x="399.197" y="240.95" transform="matrix(-1 -1.224647e-16 1.224647e-16 -1 800.9425 500.1066)" style="fill:#FFFFFF;" width="2.548" height="18.206"/>
		
			<rect x="351.593" y="242.552" transform="matrix(-1 -1.224647e-16 1.224647e-16 -1 705.7337 503.3094)" style="fill:#FFFFFF;" width="2.548" height="18.206"/>
		
			<rect x="453.602" y="238.015" transform="matrix(-1 -1.224647e-16 1.224647e-16 -1 909.7526 494.2356)" style="fill:#FFFFFF;" width="2.548" height="18.206"/>
		
			<rect x="405.998" y="247.118" transform="matrix(-1 -1.224647e-16 1.224647e-16 -1 814.5438 500.1066)" style="fill:#FFFFFF;" width="2.548" height="5.871"/>
		
			<rect x="344.792" y="248.719" transform="matrix(-1 -1.224647e-16 1.224647e-16 -1 692.1325 503.3094)" style="fill:#FFFFFF;" width="2.548" height="5.871"/>
		
			<rect x="331.191" y="214.497" transform="matrix(-1 -1.224647e-16 1.224647e-16 -1 664.9299 505.9776)" style="fill:#FFFFFF;" width="2.548" height="76.984"/>
		
			<rect x="324.39" y="182.183" transform="matrix(-1 -1.224647e-16 1.224647e-16 -1 651.3287 505.9775)" style="fill:#FFFFFF;" width="2.548" height="141.612"/>
		
			<rect x="317.59" y="205.309" transform="matrix(-1 -1.224647e-16 1.224647e-16 -1 637.7275 505.9775)" style="fill:#FFFFFF;" width="2.548" height="95.358"/>
		
			<rect x="269.985" y="220.59" transform="matrix(-1 -1.224647e-16 1.224647e-16 -1 542.5187 505.9776)" style="fill:#FFFFFF;" width="2.548" height="64.797"/>
		
			<rect x="263.185" y="220.59" transform="matrix(-1 -1.224647e-16 1.224647e-16 -1 528.9174 505.9776)" style="fill:#FFFFFF;" width="2.548" height="64.797"/>
		
			<rect x="256.384" y="211.561" transform="matrix(-1 -1.224647e-16 1.224647e-16 -1 515.3161 505.9776)" style="fill:#FFFFFF;" width="2.548" height="82.855"/>
		
			<rect x="249.583" y="211.561" transform="matrix(-1 -1.224647e-16 1.224647e-16 -1 501.7149 505.9776)" style="fill:#FFFFFF;" width="2.548" height="82.855"/>
		
			<rect x="310.789" y="222.355" transform="matrix(-1 -1.224647e-16 1.224647e-16 -1 624.1262 505.9776)" style="fill:#FFFFFF;" width="2.548" height="61.268"/>
		
			<rect x="303.988" y="234.181" transform="matrix(-1 -1.224647e-16 1.224647e-16 -1 610.5249 505.9776)" style="fill:#FFFFFF;" width="2.548" height="37.615"/>
		
			<rect x="276.786" y="240.209" transform="matrix(-1 -1.224647e-16 1.224647e-16 -1 556.1199 505.9776)" style="fill:#FFFFFF;" width="2.548" height="25.56"/>
		
			<rect x="242.783" y="241.297" transform="matrix(-1 -1.224647e-16 1.224647e-16 -1 488.1136 508.1538)" style="fill:#FFFFFF;" width="2.548" height="25.56"/>
		
			<rect x="297.188" y="243.886" transform="matrix(-1 -1.224647e-16 1.224647e-16 -1 596.9237 505.9775)" style="fill:#FFFFFF;" width="2.548" height="18.206"/>
		
			<rect x="283.586" y="243.886" transform="matrix(-1 -1.224647e-16 1.224647e-16 -1 569.7211 505.9775)" style="fill:#FFFFFF;" width="2.548" height="18.206"/>
		
			<rect x="235.982" y="245.487" transform="matrix(-1 -1.224647e-16 1.224647e-16 -1 474.5123 509.1803)" style="fill:#FFFFFF;" width="2.548" height="18.206"/>
		
			<rect x="337.991" y="240.95" transform="matrix(-1 -1.224647e-16 1.224647e-16 -1 678.5312 500.1066)" style="fill:#FFFFFF;" width="2.548" height="18.206"/>
		
			<rect x="290.387" y="250.053" transform="matrix(-1 -1.224647e-16 1.224647e-16 -1 583.3224 505.9776)" style="fill:#FFFFFF;" width="2.548" height="5.871"/>
		
			<rect x="229.182" y="251.655" transform="matrix(-1 -1.224647e-16 1.224647e-16 -1 460.9111 509.1804)" style="fill:#FFFFFF;" width="2.548" height="5.871"/>
		
			<rect x="215.58" y="238.62" transform="matrix(-1 -1.224647e-16 1.224647e-16 -1 433.7086 505.9775)" style="fill:#FFFFFF;" width="2.548" height="28.738"/>
		
			<rect x="208.78" y="226.557" transform="matrix(-1 -1.224647e-16 1.224647e-16 -1 420.1073 505.9776)" style="fill:#FFFFFF;" width="2.548" height="52.864"/>
		
			<rect x="201.979" y="235.19" transform="matrix(-1 -1.224647e-16 1.224647e-16 -1 406.5061 505.9775)" style="fill:#FFFFFF;" width="2.548" height="35.597"/>
		
			<rect x="154.375" y="247.122" transform="matrix(-1 -1.224647e-16 1.224647e-16 -1 311.2973 505.9776)" style="fill:#FFFFFF;" width="2.548" height="11.734"/>
		
			<rect x="147.574" y="247.122" transform="matrix(-1 -1.224647e-16 1.224647e-16 -1 297.696 505.9776)" style="fill:#FFFFFF;" width="2.548" height="11.734"/>
		
			<rect x="140.773" y="245.487" transform="matrix(-1 -1.224647e-16 1.224647e-16 -1 284.0947 505.9775)" style="fill:#FFFFFF;" width="2.548" height="15.003"/>
		
			<rect x="133.973" y="245.487" transform="matrix(-1 -1.224647e-16 1.224647e-16 -1 270.4935 505.9775)" style="fill:#FFFFFF;" width="2.548" height="15.003"/>
		
			<rect x="195.178" y="241.553" transform="matrix(-1 -1.224647e-16 1.224647e-16 -1 392.9048 505.9775)" style="fill:#FFFFFF;" width="2.548" height="22.871"/>
		
			<rect x="188.378" y="245.968" transform="matrix(-1 -1.224647e-16 1.224647e-16 -1 379.3035 505.9775)" style="fill:#FFFFFF;" width="2.548" height="14.042"/>
		
			<rect x="161.175" y="250.675" transform="matrix(-1 -1.224647e-16 1.224647e-16 -1 324.8985 505.9776)" style="fill:#FFFFFF;" width="2.548" height="4.628"/>
		
			<rect x="127.172" y="250.872" transform="matrix(-1 -1.224647e-16 1.224647e-16 -1 256.8923 506.3716)" style="fill:#FFFFFF;" width="2.548" height="4.628"/>
		
			<rect x="181.577" y="249.591" transform="matrix(-1 -1.224647e-16 1.224647e-16 -1 365.7023 505.9776)" style="fill:#FFFFFF;" width="2.548" height="6.796"/>
		
			<rect x="167.976" y="251.869" transform="matrix(-1 -1.224647e-16 1.224647e-16 -1 338.4998 505.9776)" style="fill:#FFFFFF;" width="2.548" height="2.24"/>
		
			<rect x="120.371" y="252.066" transform="matrix(-1 -1.224647e-16 1.224647e-16 -1 243.291 506.3716)" style="fill:#FFFFFF;" width="2.548" height="2.24"/>
		
			<rect x="222.381" y="248.495" transform="matrix(-1 -1.224647e-16 1.224647e-16 -1 447.3099 503.7859)" style="fill:#FFFFFF;" width="2.548" height="6.796"/>
		
			<rect x="174.777" y="251.893" transform="matrix(-1 -1.224647e-16 1.224647e-16 -1 352.1011 505.9776)" style="fill:#FFFFFF;" width="2.548" height="2.192"/>
		
			<rect x="113.571" y="252.825" transform="matrix(-1 -1.224647e-16 1.224647e-16 -1 229.6897 506.3716)" style="fill:#FFFFFF;" width="2.548" height="0.722"/>
		
			<rect x="610.017" y="243.049" transform="matrix(-1 -1.224647e-16 1.224647e-16 -1 1222.5814 497.8324)" style="fill:#FFFFFF;" width="2.548" height="11.734"/>
		
			<rect x="603.216" y="243.049" transform="matrix(-1 -1.224647e-16 1.224647e-16 -1 1208.9802 497.8324)" style="fill:#FFFFFF;" width="2.548" height="11.734"/>
		
			<rect x="596.415" y="241.415" transform="matrix(-1 -1.224647e-16 1.224647e-16 -1 1195.379 497.8325)" style="fill:#FFFFFF;" width="2.548" height="15.003"/>
		
			<rect x="589.615" y="241.415" transform="matrix(-1 -1.224647e-16 1.224647e-16 -1 1181.7777 497.8325)" style="fill:#FFFFFF;" width="2.548" height="15.003"/>
		
			<rect x="616.817" y="246.602" transform="matrix(-1 -1.224647e-16 1.224647e-16 -1 1236.1826 497.8324)" style="fill:#FFFFFF;" width="2.548" height="4.628"/>
		
			<rect x="582.814" y="246.799" transform="matrix(-1 -1.224647e-16 1.224647e-16 -1 1168.1765 498.2266)" style="fill:#FFFFFF;" width="2.548" height="4.628"/>
		
			<rect x="623.618" y="247.796" transform="matrix(-1 -1.224647e-16 1.224647e-16 -1 1249.7839 497.8324)" style="fill:#FFFFFF;" width="2.548" height="2.24"/>
		
			<rect x="576.013" y="247.993" transform="matrix(-1 -1.224647e-16 1.224647e-16 -1 1154.5752 498.2266)" style="fill:#FFFFFF;" width="2.548" height="2.24"/>
		
			<rect x="569.213" y="248.752" transform="matrix(-1 -1.224647e-16 1.224647e-16 -1 1140.9739 498.2266)" style="fill:#FFFFFF;" width="2.548" height="0.722"/>
		
			<rect x="562.412" y="234.35" transform="matrix(-1 -1.224647e-16 1.224647e-16 -1 1127.3727 497.4384)" style="fill:#FFFFFF;" width="2.548" height="28.738"/>
		
			<rect x="555.612" y="222.287" transform="matrix(-1 -1.224647e-16 1.224647e-16 -1 1113.7715 497.4384)" style="fill:#FFFFFF;" width="2.548" height="52.864"/>
		
			<rect x="548.811" y="230.921" transform="matrix(-1 -1.224647e-16 1.224647e-16 -1 1100.1702 497.4384)" style="fill:#FFFFFF;" width="2.548" height="35.597"/>
		
			<rect x="501.207" y="242.852" transform="matrix(-1 -1.224647e-16 1.224647e-16 -1 1004.9614 497.4384)" style="fill:#FFFFFF;" width="2.548" height="11.734"/>
		
			<rect x="494.406" y="242.852" transform="matrix(-1 -1.224647e-16 1.224647e-16 -1 991.3601 497.4384)" style="fill:#FFFFFF;" width="2.548" height="11.734"/>
		
			<rect x="487.605" y="241.217" transform="matrix(-1 -1.224647e-16 1.224647e-16 -1 977.7589 497.4384)" style="fill:#FFFFFF;" width="2.548" height="15.003"/>
		
			<rect x="480.805" y="241.217" transform="matrix(-1 -1.224647e-16 1.224647e-16 -1 964.1576 497.4384)" style="fill:#FFFFFF;" width="2.548" height="15.003"/>
		
			<rect x="542.01" y="237.283" transform="matrix(-1 -1.224647e-16 1.224647e-16 -1 1086.5688 497.4384)" style="fill:#FFFFFF;" width="2.548" height="22.871"/>
		
			<rect x="535.21" y="241.698" transform="matrix(-1 -1.224647e-16 1.224647e-16 -1 1072.9677 497.4383)" style="fill:#FFFFFF;" width="2.548" height="14.042"/>
		
			<rect x="508.007" y="246.405" transform="matrix(-1 -1.224647e-16 1.224647e-16 -1 1018.5627 497.4384)" style="fill:#FFFFFF;" width="2.548" height="4.628"/>
		
			<rect x="474.004" y="246.602" transform="matrix(-1 -1.224647e-16 1.224647e-16 -1 950.5563 497.8324)" style="fill:#FFFFFF;" width="2.548" height="4.628"/>
		
			<rect x="528.409" y="245.321" transform="matrix(-1 -1.224647e-16 1.224647e-16 -1 1059.3663 497.4384)" style="fill:#FFFFFF;" width="2.548" height="6.796"/>
		
			<rect x="514.808" y="247.599" transform="matrix(-1 -1.224647e-16 1.224647e-16 -1 1032.1639 497.4384)" style="fill:#FFFFFF;" width="2.548" height="2.24"/>
		
			<rect x="467.203" y="247.796" transform="matrix(-1 -1.224647e-16 1.224647e-16 -1 936.9551 497.8324)" style="fill:#FFFFFF;" width="2.548" height="2.24"/>
		
			<rect x="521.608" y="247.623" transform="matrix(-1 -1.224647e-16 1.224647e-16 -1 1045.7651 497.4384)" style="fill:#FFFFFF;" width="2.548" height="2.192"/>
		
			<rect x="460.403" y="248.555" transform="matrix(-1 -1.224647e-16 1.224647e-16 -1 923.3539 497.8324)" style="fill:#FFFFFF;" width="2.548" height="0.722"/>
	</g>
	<g>
		
			<ellipse transform="matrix(0.9728 -0.2318 0.2318 0.9728 -41.7575 58.7655)" style="fill:#2C272E;" cx="229.147" cy="207.046" rx="41.967" ry="41.967"/>
		<circle style="fill:#2C272E;" cx="240.922" cy="193.508" r="41.967"/>
		
			<ellipse transform="matrix(0.174 -0.9847 0.9847 0.174 -108.6697 387.8024)" style="fill:#2C272E;" cx="176.836" cy="258.68" rx="41.967" ry="41.967"/>
		<path style="fill:#E59934;" d="M231.854,223.968l7.778,31.575c0,0-3.706,8.674-19.285,9.038
			c-15.298,0.358-18.276-10.153-18.276-10.153l6.127-41.106L231.854,223.968z"/>
		<path style="fill:#511924;" d="M220.63,227.327c0,0,7.241,3.802,13.939,4.707l1.086,5.25
			C235.655,237.283,226.785,236.016,220.63,227.327z"/>
		<g>
			<path style="fill:#FFFFFF;" d="M256.561,211.784c0,1.495-1.212,2.708-2.707,2.708c-1.495,0-2.708-1.212-2.708-2.708
				c0-1.495,1.212-2.707,2.708-2.707C255.349,209.077,256.561,210.289,256.561,211.784z"/>
			<path style="fill:#E59934;" d="M208.756,211.678c5.246,14.702,19.099,23.194,30.943,18.968
				c11.843-4.226,17.191-19.57,11.945-34.272c-5.246-14.702-19.099-23.194-30.943-18.969
				C208.858,181.632,203.51,196.976,208.756,211.678z"/>
			<g>
				<path style="fill:#2C272E;" d="M243.683,201.99c0.152,1.392,1.062,2.433,2.032,2.327c0.97-0.106,1.632-1.32,1.48-2.712
					c-0.152-1.391-1.062-2.433-2.032-2.327C244.193,199.385,243.531,200.599,243.683,201.99z"/>
				<path style="fill:#2C272E;" d="M226.99,203.644c0.153,1.391,1.062,2.433,2.032,2.327c0.97-0.106,1.632-1.32,1.48-2.711
					c-0.152-1.391-1.062-2.433-2.032-2.327C227.5,201.038,226.838,202.253,226.99,203.644z"/>
				
					<path style="fill:none;stroke:#2C272E;stroke-width:0.9366;stroke-linecap:round;stroke-linejoin:round;stroke-miterlimit:10;" d="
					M240.489,199.442c-0.584,3.99-0.402,5.652-0.402,5.652l0.941,0.343c1.236,0.451,1.46,1.819,0.427,2.602l-1.28,0.97"/>
				<path style="fill:#FFFFFF;" d="M241.451,218.565c0,0-6.97,0.763-8.729-6.098l11.993-1.586
					C244.715,210.881,244.882,217.685,241.451,218.565z"/>
				
					<path style="fill:none;stroke:#2C272E;stroke-width:0.9366;stroke-linecap:round;stroke-linejoin:round;stroke-miterlimit:10;" d="
					M249.425,197.102c0,0-1.977-2.507-7.286-1.245"/>
				
					<path style="fill:none;stroke:#2C272E;stroke-width:0.9366;stroke-linecap:round;stroke-linejoin:round;stroke-miterlimit:10;" d="
					M223.998,198.865c0,0,1.651-2.733,7.076-2.138"/>
			</g>
			<path style="fill:#E59934;" d="M214.881,206.445c1.656,4.642,1.843,7.141-1.463,8.32c-3.306,1.18-9.566,0.382-11.223-4.26
				c-1.656-4.642,1.728-8.882,5.034-10.061C210.536,199.265,213.224,201.804,214.881,206.445z"/>
			<g>
				<defs>
					<path id="SVGID_1_" d="M208.756,211.678c5.246,14.702,19.099,23.194,30.943,18.968c11.843-4.226,17.191-19.57,11.945-34.272
						c-5.246-14.702-19.099-23.194-30.943-18.969C208.858,181.632,203.51,196.976,208.756,211.678z"/>
				</defs>
				<clipPath id="SVGID_00000162326709871984204810000011949238024093573813_">
					<use xlink:href="#SVGID_1_"  style="overflow:visible;"/>
				</clipPath>
			</g>
			<g>
				
					<path style="fill:none;stroke:#2C272E;stroke-width:0.9366;stroke-linecap:round;stroke-linejoin:round;stroke-miterlimit:10;" d="
					M242.148,202.154c0.458,4.181,3.615,7.265,7.053,6.888c3.438-0.376,5.853-4.07,5.395-8.251c-0.458-4.18-3.615-7.264-7.053-6.888
					C244.105,194.279,241.69,197.974,242.148,202.154z"/>
				
					<path style="fill:none;stroke:#2C272E;stroke-width:0.9366;stroke-linecap:round;stroke-linejoin:round;stroke-miterlimit:10;" d="
					M222.467,203.288c0.458,4.181,4.08,7.214,8.09,6.775c4.01-0.439,6.891-4.184,6.433-8.365c-0.458-4.18-4.08-7.214-8.09-6.774
					C224.89,195.362,222.01,199.107,222.467,203.288z"/>
				
					<path style="fill:none;stroke:#2C272E;stroke-width:0.9366;stroke-linecap:round;stroke-linejoin:round;stroke-miterlimit:10;" d="
					M242.807,198.848c0,0-2.802-0.715-6.729,0.737"/>
			</g>
			
				<path style="fill:none;stroke:#2C272E;stroke-width:0.9366;stroke-linecap:round;stroke-linejoin:round;stroke-miterlimit:10;" d="
				M204.223,205.111c6.376-2.275,7.853,6.9,7.853,6.9s-1.797-4.03-5.554-4.486"/>
		</g>
		<path style="fill:#2C272E;" d="M257.974,189.193c-5.164,8.944-19.252,10.478-31.467,3.426
			c-12.215-7.052-17.931-20.02-12.767-28.965c5.164-8.944,19.252-10.478,31.467-3.426
			C257.422,167.281,263.138,180.249,257.974,189.193z"/>
		<path style="fill:#E59934;" d="M378.892,296.694c-7.334,5.515-40.238,63.711-40.238,63.711s-16.773-54.534-35.049-82.963
			c-18.276-28.429-45.351-27.752-81.226-27.075c-35.875,0.677-65.493,0.417-81.903,32.49c-14.891,29.106,5.415,73.78,5.415,73.78
			l16.245,53.474l123.87-2.707l-1.354-56.182c0,0,22.188,80.255,59.417,70.102c33.159-9.044,55.924-96.68,53.285-113.422
			C396.513,302.569,383.207,293.449,378.892,296.694z"/>
		<g>
			<defs>
				<path id="SVGID_00000013187329170568193180000006904621148745671059_" d="M222.378,250.366
					c35.875-0.677,62.95-1.354,81.226,27.075c18.276,28.429,35.049,82.963,35.049,82.963l40.613-64.304l13.349,7.74
					c0,0-11.318,107.33-48.547,117.483c-37.229,10.153-59.417-70.102-59.417-70.102l3.69,86.978l-130.009,0.487l-12.442-82.05
					c0,0-20.307-44.674-5.415-73.78C156.885,250.783,186.503,251.043,222.378,250.366z"/>
			</defs>
			<clipPath id="SVGID_00000091694019596135331810000012460407954430888068_">
				<use xlink:href="#SVGID_00000013187329170568193180000006904621148745671059_"  style="overflow:visible;"/>
			</clipPath>
			<path style="clip-path:url(#SVGID_00000091694019596135331810000012460407954430888068_);fill:#9AE66E;" d="M297.253,384.323
				l43.657-28.428c0,0-10.153-64.978-30.458-89.345c-20.306-24.366-56.874-27.638-56.874-27.638s-4.96,18.287-31.5,21.724
				c-26.54,3.436-40.566-14.391-40.566-14.391l-28.428,8.122l-21.52,17.66c0,0,28.88,117.327-11.281,130.413
				c-43.782,14.266,39.645,47.691,39.645,47.691l154.432,5.965L297.253,384.323z"/>
			
				<path style="clip-path:url(#SVGID_00000091694019596135331810000012460407954430888068_);fill:none;stroke:#2C272E;stroke-width:0.9366;stroke-linecap:round;stroke-linejoin:round;stroke-miterlimit:10;" d="
				M173.079,365.889c0,0-4.637-25.383-1.805-53.7"/>
		</g>
		
			<path style="fill:none;stroke:#2C272E;stroke-width:0.9366;stroke-linecap:round;stroke-linejoin:round;stroke-miterlimit:10;" d="
			M279.913,309.932c0,0,16.922,18.276,4.738,41.29l0.531,8.17"/>
		
			<line style="fill:none;stroke:#2C272E;stroke-width:0.9366;stroke-linecap:round;stroke-linejoin:round;stroke-miterlimit:10;" x1="327.296" y1="377.96" x2="338.803" y2="360.022"/>
		<path style="fill:#FFFFFF;" d="M210.533,215.169c0,1.495-1.212,2.708-2.708,2.708c-1.495,0-2.707-1.212-2.707-2.708
			s1.212-2.708,2.707-2.708C209.321,212.461,210.533,213.673,210.533,215.169z"/>
		<g>
			<path style="fill:#E59934;" d="M128.441,289.458c12.591,7.283,56.073,66.49,42.538,87.143
				c-17.591,26.843-35.796,22.115-45.214-6.118c-9.419-28.233-14.642-68.666-13.491-74.405
				C113.504,289.948,123.028,286.328,128.441,289.458z"/>
		</g>
		<path style="fill:#2C272E;" d="M221.701,174.217c-0.338,1.354-8.799,19.291-8.461,26.398c0,0-5.415-1.354-10.492,0
			c-5.077,1.354,1.354-16.922,4.061-19.63C209.517,178.278,221.701,174.217,221.701,174.217z"/>
		<g>
			<path style="fill:#E59934;" d="M415.656,296.465c7.113,1.686,11.479-13.176,7.961-15.409c-3.519-2.233-7.229,6.837-7.229,6.837
				s6.027-9.615,2.534-10.693c-3.492-1.078-7.044,5.476-7.044,5.476s3.229-5.506,1.672-7.899c-1.557-2.393-12.238-3.77-14.363-0.601
				C397.062,277.347,404.964,293.931,415.656,296.465z"/>
			<path style="fill:#E59934;" d="M397.515,313.035l20.418-16.668l-4.312-7.584l-6.334-10.398l-1.376-1.37
				c0,0-10.843,0.427-15.577,3.644c-3.578,2.432-13.175,17.743-13.175,17.743L397.515,313.035z"/>
			
				<path style="fill:none;stroke:#2C272E;stroke-width:0.8091;stroke-linecap:round;stroke-linejoin:round;stroke-miterlimit:10;" d="
				M399.471,277.699c0,0,2.253,1.993,4.658,2.614"/>
		</g>
		<path style="fill:#E59934;" d="M104.869,276.422l8.057,21.388l15.508-6.587c0,0,0.253-13.535-2.095-17.709
			c-2.348-4.174-8.307-8.924-8.307-8.924L104.869,276.422z"/>
	</g>
	<g>
		<g>
			<g>
				<path style="fill:#753188;" d="M433.449,407.34c2.945-15.233,14.009-103.969,66.04-123.409
					c36.202-13.526,60.413-11.494,60.413-11.494c38.373,0.743,70.969,18.924,84.259,36.832
					c23.383,26.379,49.153,107.147,35.942,125.439c-15.515,21.482-122.333,10.145-122.333,10.145l-1.871-14.222l-36.519,8.056
					l-38.589-0.796l-48.907,0.398C431.883,438.289,429.927,425.558,433.449,407.34z"/>
				<g>
					<defs>
						<path id="SVGID_00000005235478304803016180000016731511598362912677_" d="M439.019,414.817
							c-5.967-14.322,8.439-111.446,60.47-130.886c36.202-13.526,60.413-11.494,60.413-11.494
							c38.373,0.743,70.969,18.924,84.259,36.832c23.383,26.379,49.153,107.147,35.942,125.439
							c-15.515,21.482-122.333,10.145-122.333,10.145l-1.871-14.222l-36.519,8.056l-38.589-0.796l-32.622,0.398L439.019,414.817z"/>
					</defs>
					<clipPath id="SVGID_00000047763141092369549000000007547041843676001717_">
						<use xlink:href="#SVGID_00000005235478304803016180000016731511598362912677_"  style="overflow:visible;"/>
					</clipPath>
					<path style="clip-path:url(#SVGID_00000047763141092369549000000007547041843676001717_);fill:#FFFFFF;" d="M579.828,267.515
						c8.951,4.774,15.837,10.329,15.837,10.329s-2.687,23.791-17.009,27.371c-14.322,3.581-20.886-13.128-20.886-13.128
						s-9.548,14.322-20.886,8.354c-11.338-5.967-7.322-26.04-7.322-26.04s10.282-8.859,14.46-8.263
						C548.2,266.735,579.828,267.515,579.828,267.515z"/>
				</g>
				<g>
					<g>
						
							<path style="fill:none;stroke:#2C272E;stroke-width:0.9366;stroke-linecap:round;stroke-linejoin:round;stroke-miterlimit:10;" d="
							M506.252,359.518c0,0-4.774,64.448-22.676,75.19c-17.902,10.741-38.59-5.57-43.364-18.3
							c-4.774-12.731,44.557-65.642,44.557-65.642L506.252,359.518z"/>
						<path style="fill:#E59934;" d="M522.961,337.24c-4.774-1.193-16.311,6.763-16.311,6.763s-22.278,4.774-21.88,5.57
							c0.398,0.796-0.483,18.289,11.054,17.096C507.36,365.475,527.734,338.434,522.961,337.24z"/>
						<g>
							<path style="fill:#2C272E;" d="M495.111,383.016c-0.404,0-0.814-0.086-1.202-0.271c-1.403-0.666-1.999-2.341-1.335-3.743
								l25.858-54.503c0.668-1.403,2.349-1.999,3.743-1.335c1.403,0.666,2,2.341,1.335,3.743l-25.858,54.503
								C497.17,382.423,496.162,383.016,495.111,383.016z"/>
						</g>
						<path style="fill:#E59934;" d="M504.66,332.864c7.939,0.53,11.537,22.676,7.161,23.87c-4.376,1.193-9.15-14.72-9.15-14.72
							s3.183,11.935-0.796,11.935s-5.57-7.957-5.57-7.957s3.978,5.968,1.591,7.957c-2.387,1.989-11.935,0.796-13.128-3.183
							C483.576,346.788,492.726,332.068,504.66,332.864z"/>
					</g>
					<g>
						
							<path style="fill:none;stroke:#511924;stroke-width:4.1862;stroke-linecap:round;stroke-linejoin:round;stroke-miterlimit:10;" d="
							M495.112,380.206"/>
						
							<path style="fill:none;stroke:#511924;stroke-width:4.1862;stroke-linecap:round;stroke-linejoin:round;stroke-miterlimit:10;" d="
							M520.971,325.703"/>
						
							<path style="fill:none;stroke:#2C272E;stroke-width:0.9366;stroke-linecap:round;stroke-linejoin:round;stroke-miterlimit:10;" d="
							M504.66,332.864c7.939,0.53,11.537,22.676,7.161,23.87c-4.376,1.193-9.15-14.72-9.15-14.72s3.183,11.935-0.796,11.935
							s-5.57-7.957-5.57-7.957s1.591,6.763-0.796,8.753c-2.387,1.989-9.548,0-10.741-3.979
							C483.576,346.788,492.726,332.068,504.66,332.864z"/>
					</g>
				</g>
				<path style="fill:#E59934;" d="M545.915,242.22l-7.24,31.368c0,0,1.979,15.684,20.289,16.112
					c17.981,0.421,23.87-14.918,23.87-14.918l-9.114-45.075L545.915,242.22z"/>
				<path style="fill:#FFFFFF;" d="M560.754,188.85c-1.474-1.179,5.967-10.741,21.483-5.371
					c15.515,5.371,24.467,29.837,15.515,48.336c-8.951,18.499-31.031,16.709-31.031,16.709S587.608,210.333,560.754,188.85z"/>
				<g>
					<path style="fill:#753188;" d="M520.846,228.439c-1.32,3.883-0.141,7.794,2.632,8.737c2.774,0.943,6.092-1.441,7.411-5.323
						c1.32-3.883,0.141-7.795-2.632-8.737C525.483,222.173,522.165,224.556,520.846,228.439z"/>
					<path style="fill:#E59934;" d="M578.324,228.286c-5.904,17.371-22.034,27.597-36.027,22.841
						c-13.993-4.756-20.551-22.694-14.646-40.064c5.904-17.371,22.034-27.597,36.027-22.841
						C577.671,192.977,584.229,210.915,578.324,228.286z"/>
					<g>
						<path style="fill:#2C272E;" d="M537.106,217.52c-0.154,1.638-1.205,2.878-2.346,2.771c-1.141-0.107-1.942-1.522-1.787-3.16
							c0.154-1.638,1.205-2.878,2.346-2.771C536.46,214.467,537.261,215.882,537.106,217.52z"/>
						<path style="fill:#2C272E;" d="M556.754,219.167c-0.155,1.638-1.205,2.878-2.346,2.771c-1.141-0.107-1.942-1.523-1.787-3.16
							c0.154-1.638,1.205-2.878,2.346-2.771C556.108,216.115,556.908,217.529,556.754,219.167z"/>
						
							<path style="fill:none;stroke:#2C272E;stroke-width:0.9366;stroke-linecap:round;stroke-linejoin:round;stroke-miterlimit:10;" d="
							M540.815,214.469c0.758,4.678,0.573,6.635,0.573,6.635l-1.1,0.42c-1.444,0.552-1.684,2.164-0.456,3.066l1.521,1.117"/>
						<path style="fill:#FFFFFF;" d="M541.062,234.799c0,0,7.166,2.933,9.111-5.161l-14.122-1.651
							C536.051,227.987,537.015,233.827,541.062,234.799z"/>
						
							<path style="fill:none;stroke:#2C272E;stroke-width:0.9366;stroke-linecap:round;stroke-linejoin:round;stroke-miterlimit:10;" d="
							M530.271,211.877c0,0,2.279-2.982,8.541-1.592"/>
						
							<path style="fill:none;stroke:#2C272E;stroke-width:0.9366;stroke-linecap:round;stroke-linejoin:round;stroke-miterlimit:10;" d="
							M560.185,213.498c0,0-1.989-3.182-8.353-2.387"/>
					</g>
					<path style="fill:#E59934;" d="M571.034,222.245c-1.865,5.485-2.039,8.424,1.867,9.752c3.906,1.328,11.249,0.279,13.113-5.206
						c1.864-5.485-2.189-10.407-6.095-11.735C576.013,213.729,572.898,216.76,571.034,222.245z"/>
					<g>
						<defs>
							<path id="SVGID_00000114063184292966217330000017347384737974851512_" d="M578.324,228.286
								c-5.904,17.371-22.034,27.597-36.027,22.841c-13.993-4.756-20.551-22.694-14.646-40.064
								c5.904-17.371,22.034-27.597,36.027-22.841C577.671,192.977,584.229,210.915,578.324,228.286z"/>
						</defs>
						<clipPath id="SVGID_00000065059643798516486880000015228824080591497102_">
							<use xlink:href="#SVGID_00000114063184292966217330000017347384737974851512_"  style="overflow:visible;"/>
						</clipPath>
					</g>
					<g>
						
							<path style="fill:none;stroke:#2C272E;stroke-width:0.9366;stroke-linecap:round;stroke-linejoin:round;stroke-miterlimit:10;" d="
							M538.914,217.686c-0.464,4.921-4.12,8.602-8.166,8.22c-4.047-0.381-6.951-4.68-6.487-9.601c0.464-4.921,4.12-8.602,8.166-8.22
							C536.473,208.466,539.377,212.765,538.914,217.686z"/>
						
							<path style="fill:none;stroke:#2C272E;stroke-width:0.9366;stroke-linecap:round;stroke-linejoin:round;stroke-miterlimit:10;" d="
							M562.062,218.669c-0.464,4.921-4.667,8.55-9.388,8.105c-4.721-0.445-8.172-4.795-7.708-9.716
							c0.464-4.921,4.667-8.55,9.388-8.105C559.074,209.397,562.526,213.747,562.062,218.669z"/>
						
							<path style="fill:none;stroke:#2C272E;stroke-width:0.9366;stroke-linecap:round;stroke-linejoin:round;stroke-miterlimit:10;" d="
							M538.08,213.812c0,0,3.28-0.89,7.921,0.746"/>
					</g>
					
						<path style="fill:none;stroke:#2C272E;stroke-width:0.9366;stroke-linecap:round;stroke-linejoin:round;stroke-miterlimit:10;" d="
						M583.535,220.487c-7.532-2.56-9.106,8.249-9.106,8.249s2.041-4.768,6.447-5.371"/>
					<path style="fill:#753188;" d="M568.553,236.961c-1.32,3.883-0.141,7.795,2.632,8.737c2.773,0.943,6.091-1.441,7.411-5.324
						c1.32-3.882,0.141-7.794-2.632-8.737C573.191,230.695,569.872,233.079,568.553,236.961z"/>
				</g>
				
					<path style="fill:none;stroke:#2C272E;stroke-width:0.9366;stroke-linecap:round;stroke-linejoin:round;stroke-miterlimit:10;" d="
					M558.367,249.718c0,0-9.464,2.817-16.07,1.409"/>
				<path style="fill:#E59934;" d="M557.174,442.267l-3.146-23.146c0,0-17.838-1.302-30.271,0.669
					c-16.311,2.586-35.407,14.521-32.224,17.306c3.182,2.785,7.957-0.796,7.957-0.796s-6.763,4.774-0.796,4.774
					c5.968,0,10.343-3.58,10.343-3.58s-6.365,3.978-0.796,4.774c5.569,0.796,19.892-4.774,19.892-4.774
					C533.453,440.955,540.992,441.209,557.174,442.267z"/>
				
					<polyline style="fill:none;stroke:#2C272E;stroke-width:0.9366;stroke-linecap:round;stroke-linejoin:round;stroke-miterlimit:10;" points="
					614.063,351.562 631.17,401.29 554.787,418.596 557.174,443.659 				"/>
				<g>
					<path style="fill:#FFFFFF;" d="M553.593,303.425c0,1.978,1.603,3.58,3.581,3.58c1.977,0,3.58-1.603,3.58-3.58
						c0-1.977-1.603-3.581-3.58-3.581C555.196,299.844,553.593,301.447,553.593,303.425z"/>
				</g>
			</g>
			
				<polyline style="fill:none;stroke:#2C272E;stroke-width:0.9366;stroke-linecap:round;stroke-linejoin:round;stroke-miterlimit:10;" points="
				647.481,403.28 631.17,401.29 641.116,408.054 			"/>
			
				<line style="fill:none;stroke:#2C272E;stroke-width:0.9366;stroke-linecap:round;stroke-linejoin:round;stroke-miterlimit:10;" x1="522.165" y1="429.139" x2="507.047" y2="438.687"/>
			
				<line style="fill:none;stroke:#2C272E;stroke-width:0.9366;stroke-linecap:round;stroke-linejoin:round;stroke-miterlimit:10;" x1="514.606" y1="425.558" x2="497.897" y2="437.493"/>
			<path style="fill:#FFFFFF;" d="M555.728,181.445c0.422,1.585,15.837,14.46,17.13,33.919c0,0,6.34-1.687,12.33-0.186
				c5.99,1.501-1.891-19.863-5.121-22.997S555.728,181.445,555.728,181.445z"/>
		</g>
		<path style="fill:#FFFFFF;" d="M515.663,195.248c3.386,10.495,18.307,15.076,33.326,10.23
			c15.019-4.846,24.45-17.282,21.064-27.778c-3.386-10.495-18.307-15.076-33.326-10.23
			C521.707,172.316,512.277,184.753,515.663,195.248z"/>
	</g>
	
		<line style="fill:none;stroke:#2C272E;stroke-width:1.8732;stroke-linecap:round;stroke-linejoin:round;stroke-miterlimit:10;" x1="489.21" y1="438.687" x2="80.518" y2="438.687"/>
	<g>
		<path style="fill:none;stroke:#2C272E;stroke-miterlimit:10;" d="M543.724,233.396c-27.264,19.63-112.585,78.293-137.992,56.312
			c-25.407-21.981,2.715-111.624,17.739-141.673c8.87-17.739,23.832-26.793,30.839-20.892c1.705,1.436,2.781,3.479,3.613,5.548
			c6.336,15.769-0.573,35.113-14.296,45.136c-13.724,10.022-32.765,11.188-48.621,5.074c-13.808-5.324-25.73-16.177-30.836-30.067
			c-5.106-13.89-2.69-30.664,7.303-41.579c4.179-4.564,10.576-8.189,16.398-6.092c3.83,1.38,6.502,4.994,7.819,8.846
			c3.792,11.088-2.679,23.839-12.664,29.973c-9.984,6.134-22.503,6.717-34.064,4.805c-14.4-2.382-28.673-8.773-37.693-20.248
			c-9.02-11.475-11.606-28.569-3.781-40.89c1.342-2.114,3.569-4.279,5.986-3.627c1.125,0.304,2.004,1.175,2.733,2.085
			c6.854,8.553,4.24,22.457-3.992,29.694c-48.398,42.544-83.196-34.025-151.179-4.286c-53.944,23.598-47.715,159.104-54.783,178.194
			c-6.853,18.511-52.696,82.065-2.609,144.205"/>
		<g>
			<path style="fill:#E59934;" d="M105.933,274.576c0,0-3.06,0.324-3.393-3.293c-0.332-3.617,1.888-4.208,1.888-4.208
				s-3.101-2.462-1.48-5.829c1.622-3.368,16.382-3.866,18.926-1.396c2.545,2.47-3.842,3.958-3.842,3.958s5.329,1.771,4.798,4.108
				c-0.662,2.915-2.719,4.499-2.719,4.499s0.881,3.052-2.171,3.933c-3.052,0.881-5.014,0.074-5.014,0.074s4.199,1.331,2.278,3.31
				c-1.921,1.979-9.205-0.699-11.459-2.337C101.492,275.756,105.933,274.576,105.933,274.576z"/>
			<g>
				
					<path style="fill:none;stroke:#2C272E;stroke-width:0.8091;stroke-linecap:round;stroke-linejoin:round;stroke-miterlimit:10;" d="
					M105.933,274.576c0,0-3.06,0.324-3.393-3.293c-0.332-3.617,1.888-4.208,1.888-4.208s-3.101-2.462-1.48-5.829
					c1.622-3.368,16.382-3.866,18.926-1.396c2.545,2.47-3.842,3.958-3.842,3.958s5.329,1.771,4.798,4.108
					c-0.662,2.915-2.719,4.499-2.719,4.499s0.881,3.052-2.171,3.933c-3.052,0.881-5.014,0.074-5.014,0.074s4.199,1.331,2.278,3.31
					c-1.921,1.979-9.46-0.397-11.459-2.337C100.919,274.65,105.933,274.576,105.933,274.576z"/>
				
					<line style="fill:none;stroke:#2C272E;stroke-width:0.8091;stroke-linecap:round;stroke-linejoin:round;stroke-miterlimit:10;" x1="107.721" y1="263.682" x2="118.033" y2="263.808"/>
				
					<line style="fill:none;stroke:#2C272E;stroke-width:0.8091;stroke-linecap:round;stroke-linejoin:round;stroke-miterlimit:10;" x1="108.199" y1="270.005" x2="119.862" y2="272.158"/>
				
					<line style="fill:none;stroke:#2C272E;stroke-width:0.8091;stroke-linecap:round;stroke-linejoin:round;stroke-miterlimit:10;" x1="105.933" y1="274.576" x2="112.926" y2="276.422"/>
				<path style="fill:#E59934;" d="M104.869,259.267c0,0,0.109-11.426,2.936-8.681c2.827,2.744,3.176,7.476,3.176,7.476"/>
				
					<path style="fill:none;stroke:#2C272E;stroke-width:0.8091;stroke-linecap:round;stroke-linejoin:round;stroke-miterlimit:10;" d="
					M104.869,259.267c0,0,0.109-11.426,2.936-8.681c2.827,2.744,3.176,7.476,3.176,7.476"/>
			</g>
		</g>
		<g>
			<text transform="matrix(1 0 0 1 272.2181 105.4469)" style="font-family:'OrelegaOne-Regular'; font-size:25.4038px;">S</text>
			<text transform="matrix(1 0 0 1 338.8031 131.8557)" style="font-family:'OrelegaOne-Regular'; font-size:25.4038px;">P</text>
			<text transform="matrix(1 0 0 1 272.2181 158.7662)" style="font-family:'OrelegaOne-Regular'; font-size:25.4038px;">T</text>
			<text transform="matrix(1 0 0 1 399.4711 105.4469)" style="font-family:'OrelegaOne-Regular'; font-size:25.4038px;">E</text>
			<text transform="matrix(1 0 0 1 434.4292 155.7995)" style="font-family:'OrelegaOne-Regular'; font-size:25.4038px;">E</text>
			<text transform="matrix(1 0 0 1 341.9365 181.4444)" style="font-family:'OrelegaOne-Regular'; font-size:25.4038px;">E</text>
			<text transform="matrix(1 0 0 1 356.8893 225.9333)" style="font-family:'OrelegaOne-Regular'; font-size:25.4038px;">R</text>
			<text transform="matrix(1 0 0 1 404.1288 249.7182)" style="font-family:'OrelegaOne-Regular'; font-size:25.4038px;">A</text>
			<text transform="matrix(1 0 0 1 445.1042 224.4151)" style="font-family:'OrelegaOne-Regular'; font-size:25.4038px;">P</text>
			<text transform="matrix(1 0 0 1 478.8371 238.9557)" style="font-family:'OrelegaOne-Regular'; font-size:25.4038px;">Y</text>
			<text transform="matrix(1 0 0 1 473.0692 131.8557)" style="font-family:'OrelegaOne-Regular'; font-size:25.4038px;">C</text>
			<text transform="matrix(1 0 0 1 508.0412 158.766)" style="font-family:'OrelegaOne-Regular'; font-size:25.4038px;">H</text>
			<text transform="matrix(1 0 0 1 302.7298 196.3014)" style="font-family:'OrelegaOne-Regular'; font-size:25.4038px;">H</text>
		</g>
	</g>
</g>
</svg>
