<svg width="1280" height="832" viewBox="0 0 1280 832" fill="none" xmlns="http://www.w3.org/2000/svg">
<g clip-path="url(#clip0_212_228)">
<rect width="1280" height="832" fill="black"/>
<mask id="mask0_212_228" style="mask-type:alpha" maskUnits="userSpaceOnUse" x="295" y="128" width="708" height="577">
<path d="M560.453 650.052L545.686 674.751C521.649 714.957 463.402 714.957 439.364 674.751L303.976 448.295C292.274 428.722 292.274 404.303 303.976 384.73L439.364 158.274C463.402 118.068 521.649 118.067 545.686 158.274L560.453 182.973C585.887 146.917 640.919 148.283 664.11 187.073L680.156 213.914C704.891 175.68 761.618 176.334 785.258 215.875L802.643 244.954L803.364 243.747C827.402 203.541 885.649 203.541 909.686 243.747L993.973 384.73C1005.68 404.302 1005.68 428.722 993.973 448.295L909.686 589.278C885.649 629.484 827.402 629.484 803.364 589.278L802.643 588.071L785.258 617.149C761.618 656.691 704.891 657.345 680.156 619.111L664.11 645.952C640.919 684.741 585.887 686.108 560.453 650.052Z" fill="url(#paint0_linear_212_228)"/>
</mask>
<g mask="url(#mask0_212_228)">
<g style="mix-blend-mode:lighten">
<g filter="url(#filter1_i_212_228)">
<path d="M782.273 384.734C793.975 404.306 793.975 428.726 782.273 448.299L664.103 645.955C640.065 686.162 581.818 686.162 557.781 645.956L439.611 448.299C427.909 428.726 427.909 404.306 439.611 384.734L557.781 187.077C581.818 146.871 640.065 146.871 664.103 187.077L782.273 384.734Z" fill="url(#paint1_radial_212_228)" fill-opacity="0.7"/>
<path d="M782.273 384.734C793.975 404.306 793.975 428.726 782.273 448.299L664.103 645.955C640.065 686.162 581.818 686.162 557.781 645.956L439.611 448.299C427.909 428.726 427.909 404.306 439.611 384.734L557.781 187.077C581.818 146.871 640.065 146.871 664.103 187.077L782.273 384.734Z" fill="#1F2E7E" fill-opacity="0.2"/>
</g>
<path d="M440.469 447.786C428.956 428.529 428.956 404.504 440.469 385.247L558.639 187.59C582.288 148.033 639.595 148.033 663.244 187.59L781.415 385.247C792.927 404.504 792.927 428.529 781.415 447.785L663.244 645.442C639.595 684.999 582.289 684.999 558.64 645.442L440.469 447.786Z" stroke="white" stroke-width="2"/>
</g>
<g style="mix-blend-mode:lighten">
<g filter="url(#filter2_i_212_228)">
<path d="M886.201 384.731C897.903 404.304 897.903 428.723 886.201 448.296L785.25 617.151C761.213 657.357 702.966 657.357 678.929 617.151L577.978 448.296C566.276 428.723 566.276 404.304 577.978 384.731L678.929 215.877C702.966 175.67 761.213 175.67 785.25 215.877L886.201 384.731Z" fill="url(#paint2_radial_212_228)" fill-opacity="0.7"/>
<path d="M886.201 384.731C897.903 404.304 897.903 428.723 886.201 448.296L785.25 617.151C761.213 657.357 702.966 657.357 678.929 617.151L577.978 448.296C566.276 428.723 566.276 404.304 577.978 384.731L678.929 215.877C702.966 175.67 761.213 175.67 785.25 215.877L886.201 384.731Z" fill="#1F2E7E" fill-opacity="0.2"/>
</g>
<path d="M578.836 447.783C567.323 428.526 567.323 404.501 578.836 385.244L679.787 216.39C703.437 176.833 760.743 176.833 784.393 216.39L885.343 385.244C896.856 404.501 896.856 428.526 885.343 447.783L784.393 616.638C760.743 656.195 703.437 656.195 679.787 616.638L578.836 447.783Z" stroke="white" stroke-width="2"/>
</g>
<g style="mix-blend-mode:lighten">
<g filter="url(#filter3_i_212_228)">
<path d="M993.968 384.728C1005.67 404.301 1005.67 428.72 993.968 448.293L909.681 589.276C885.643 629.482 827.396 629.482 803.359 589.276L719.072 448.293C707.37 428.72 707.37 404.301 719.072 384.728L803.359 243.745C827.396 203.539 885.643 203.539 909.681 243.745L993.968 384.728Z" fill="url(#paint3_radial_212_228)" fill-opacity="0.7"/>
<path d="M993.968 384.728C1005.67 404.301 1005.67 428.72 993.968 448.293L909.681 589.276C885.643 629.482 827.396 629.482 803.359 589.276L719.072 448.293C707.37 428.72 707.37 404.301 719.072 384.728L803.359 243.745C827.396 203.539 885.643 203.539 909.681 243.745L993.968 384.728Z" fill="#1F2E7E" fill-opacity="0.2"/>
</g>
<path d="M719.93 447.78C708.417 428.524 708.417 404.498 719.93 385.241L804.218 244.258C827.867 204.701 885.173 204.701 908.822 244.258L993.11 385.241C1004.62 404.498 1004.62 428.524 993.11 447.78L908.822 588.763C885.173 628.32 827.867 628.319 804.218 588.763L719.93 447.78Z" stroke="white" stroke-width="2"/>
</g>
<g style="mix-blend-mode:lighten">
<g filter="url(#filter4_i_212_228)">
<path d="M681.068 384.731C692.77 404.304 692.77 428.723 681.068 448.296L545.68 674.752C521.643 714.959 463.396 714.959 439.358 674.752L303.97 448.296C292.268 428.724 292.268 404.304 303.97 384.731L439.358 158.275C463.396 118.069 521.643 118.069 545.68 158.275L681.068 384.731Z" fill="url(#paint4_radial_212_228)" fill-opacity="0.7"/>
<path d="M681.068 384.731C692.77 404.304 692.77 428.723 681.068 448.296L545.68 674.752C521.643 714.959 463.396 714.959 439.358 674.752L303.97 448.296C292.268 428.724 292.268 404.304 303.97 384.731L439.358 158.275C463.396 118.069 521.643 118.069 545.68 158.275L681.068 384.731Z" fill="#1F2E7E" fill-opacity="0.2"/>
</g>
<path d="M304.828 447.783C293.315 428.526 293.315 404.501 304.828 385.244L440.217 158.788C463.866 119.231 521.172 119.231 544.821 158.788L680.21 385.244C691.723 404.501 691.723 428.526 680.21 447.783L544.822 674.239C521.173 713.796 463.866 713.796 440.217 674.239L304.828 447.783Z" stroke="white" stroke-width="2"/>
</g>
</g>
</g>
<defs>
<filter id="filter1_i_212_228" x="416.628" y="156.922" width="374.419" height="544.052" filterUnits="userSpaceOnUse" color-interpolation-filters="sRGB">
<feFlood flood-opacity="0" result="BackgroundImageFix"/>
<feBlend mode="normal" in="SourceGraphic" in2="BackgroundImageFix" result="shape"/>
<feColorMatrix in="SourceAlpha" type="matrix" values="0 0 0 0 0 0 0 0 0 0 0 0 0 0 0 0 0 0 127 0" result="hardAlpha"/>
<feOffset dx="-14.2081" dy="24.8641"/>
<feGaussianBlur stdDeviation="30.1922"/>
<feComposite in2="hardAlpha" operator="arithmetic" k2="-1" k3="1"/>
<feColorMatrix type="matrix" values="0 0 0 0 1 0 0 0 0 1 0 0 0 0 1 0 0 0 0.87 0"/>
<feBlend mode="lighten" in2="shape" result="effect1_innerShadow_212_228"/>
</filter>
<filter id="filter2_i_212_228" x="554.995" y="185.719" width="339.982" height="486.45" filterUnits="userSpaceOnUse" color-interpolation-filters="sRGB">
<feFlood flood-opacity="0" result="BackgroundImageFix"/>
<feBlend mode="normal" in="SourceGraphic" in2="BackgroundImageFix" result="shape"/>
<feColorMatrix in="SourceAlpha" type="matrix" values="0 0 0 0 0 0 0 0 0 0 0 0 0 0 0 0 0 0 127 0" result="hardAlpha"/>
<feOffset dx="-14.2081" dy="24.8641"/>
<feGaussianBlur stdDeviation="30.1922"/>
<feComposite in2="hardAlpha" operator="arithmetic" k2="-1" k3="1"/>
<feColorMatrix type="matrix" values="0 0 0 0 1 0 0 0 0 1 0 0 0 0 1 0 0 0 0.87 0"/>
<feBlend mode="lighten" in2="shape" result="effect1_innerShadow_212_228"/>
</filter>
<filter id="filter3_i_212_228" x="696.089" y="213.594" width="306.653" height="430.7" filterUnits="userSpaceOnUse" color-interpolation-filters="sRGB">
<feFlood flood-opacity="0" result="BackgroundImageFix"/>
<feBlend mode="normal" in="SourceGraphic" in2="BackgroundImageFix" result="shape"/>
<feColorMatrix in="SourceAlpha" type="matrix" values="0 0 0 0 0 0 0 0 0 0 0 0 0 0 0 0 0 0 127 0" result="hardAlpha"/>
<feOffset dx="-14.2081" dy="24.8641"/>
<feGaussianBlur stdDeviation="30.1922"/>
<feComposite in2="hardAlpha" operator="arithmetic" k2="-1" k3="1"/>
<feColorMatrix type="matrix" values="0 0 0 0 1 0 0 0 0 1 0 0 0 0 1 0 0 0 0.87 0"/>
<feBlend mode="lighten" in2="shape" result="effect1_innerShadow_212_228"/>
</filter>
<filter id="filter4_i_212_228" x="280.987" y="128.117" width="408.857" height="601.653" filterUnits="userSpaceOnUse" color-interpolation-filters="sRGB">
<feFlood flood-opacity="0" result="BackgroundImageFix"/>
<feBlend mode="normal" in="SourceGraphic" in2="BackgroundImageFix" result="shape"/>
<feColorMatrix in="SourceAlpha" type="matrix" values="0 0 0 0 0 0 0 0 0 0 0 0 0 0 0 0 0 0 127 0" result="hardAlpha"/>
<feOffset dx="-14.2081" dy="24.8641"/>
<feGaussianBlur stdDeviation="30.1922"/>
<feComposite in2="hardAlpha" operator="arithmetic" k2="-1" k3="1"/>
<feColorMatrix type="matrix" values="0 0 0 0 1 0 0 0 0 1 0 0 0 0 1 0 0 0 0.87 0"/>
<feBlend mode="lighten" in2="shape" result="effect1_innerShadow_212_228"/>
</filter>
<linearGradient id="paint0_linear_212_228" x1="204.342" y1="484.06" x2="1246.97" y2="372.437" gradientUnits="userSpaceOnUse">
<stop offset="0.132716" stop-opacity="0"/>
<stop offset="1"/>
</linearGradient>
<radialGradient id="paint1_radial_212_228" cx="0" cy="0" r="1" gradientTransform="matrix(293.935 -1.28483e-05 455.246 1273.26 348.53 507.939)" gradientUnits="userSpaceOnUse">
<stop stop-color="#949494"/>
<stop offset="0.635171" stop-color="#181818"/>
<stop offset="1" stop-color="#1D1D1D"/>
</radialGradient>
<radialGradient id="paint2_radial_212_228" cx="0" cy="0" r="1" gradientTransform="matrix(267.343 -1.16859e-05 414.059 1158.07 493.418 499.665)" gradientUnits="userSpaceOnUse">
<stop stop-color="#949494"/>
<stop offset="0.635171" stop-color="#181818"/>
<stop offset="1" stop-color="#1D1D1D"/>
</radialGradient>
<radialGradient id="paint3_radial_212_228" cx="0" cy="0" r="1" gradientTransform="matrix(241.609 -1.05611e-05 374.203 1046.59 640.823 491.658)" gradientUnits="userSpaceOnUse">
<stop stop-color="#949494"/>
<stop offset="0.635171" stop-color="#181818"/>
<stop offset="1" stop-color="#1D1D1D"/>
</radialGradient>
<radialGradient id="paint4_radial_212_228" cx="0" cy="0" r="1" gradientTransform="matrix(320.525 -1.40106e-05 496.428 1388.44 206.369 516.207)" gradientUnits="userSpaceOnUse">
<stop stop-color="#949494"/>
<stop offset="0.635171" stop-color="#181818"/>
<stop offset="1" stop-color="#1D1D1D"/>
</radialGradient>
<clipPath id="clip0_212_228">
<rect width="1280" height="832" fill="white"/>
</clipPath>
</defs>
</svg>
