<svg width="1280" height="832" viewBox="0 0 1280 832" fill="none" xmlns="http://www.w3.org/2000/svg">
<g clip-path="url(#clip0_212_350)">
<rect width="1280" height="832" fill="black"/>
<mask id="mask0_212_350" style="mask-type:alpha" maskUnits="userSpaceOnUse" x="309" y="247" width="662" height="406">
<path d="M566.189 340.723C566.189 370.899 541.727 395.362 511.55 395.362C500.743 395.362 490.179 398.567 481.193 404.571C472.208 410.575 465.205 419.109 461.069 429.093C456.934 439.077 455.852 450.063 457.96 460.662C460.068 471.261 465.272 480.997 472.913 488.639C480.555 496.28 490.291 501.484 500.89 503.593C511.489 505.701 522.475 504.619 532.459 500.483C542.443 496.348 550.978 489.345 556.981 480.359C562.985 471.374 566.189 460.81 566.189 450.003H566.179C566.179 409.996 578.042 370.888 600.269 337.624C622.495 304.36 654.086 278.434 691.047 263.124C728.008 247.814 768.679 243.808 807.917 251.613C847.155 259.418 883.197 278.683 911.485 306.972C939.774 335.26 959.04 371.303 966.845 410.541C974.649 449.778 970.644 490.449 955.334 527.41C940.024 564.371 914.098 595.963 880.834 618.189C847.57 640.416 808.461 652.279 768.455 652.279H706.525V566.572C706.525 532.37 734.252 504.643 768.455 504.643C779.262 504.643 789.826 501.438 798.812 495.435C807.797 489.431 814.8 480.897 818.936 470.913C823.071 460.929 824.153 449.942 822.045 439.343C819.937 428.744 814.732 419.008 807.091 411.366C799.449 403.725 789.713 398.521 779.114 396.413C768.515 394.305 757.529 395.387 747.545 399.522C737.561 403.658 729.027 410.661 723.023 419.646C717.02 428.632 713.814 439.196 713.814 450.003H713.826C713.826 490.009 701.962 529.117 679.736 562.381C657.51 595.645 625.918 621.572 588.957 636.882C551.996 652.191 511.325 656.197 472.088 648.393C432.85 640.588 396.807 621.322 368.519 593.033C340.23 564.744 320.965 528.702 313.16 489.465C305.355 450.227 309.361 409.556 324.671 372.595C339.981 335.634 365.907 304.043 399.171 281.816C432.435 259.59 471.543 247.727 511.55 247.727H566.189V340.723Z" fill="url(#paint0_linear_212_350)"/>
</mask>
<g mask="url(#mask0_212_350)">
<g filter="url(#filter1_i_212_350)">
<path d="M566.189 340.723C566.189 370.899 541.727 395.362 511.55 395.362C500.743 395.362 490.179 398.567 481.193 404.571C472.208 410.575 465.205 419.109 461.069 429.093C456.934 439.077 455.852 450.063 457.96 460.662C460.068 471.261 465.272 480.997 472.913 488.639C480.555 496.28 490.291 501.484 500.89 503.593C511.489 505.701 522.475 504.619 532.459 500.483C542.443 496.348 550.978 489.345 556.981 480.359C562.985 471.374 566.189 460.81 566.189 450.003H566.179C566.179 409.996 578.042 370.888 600.269 337.624C622.495 304.36 654.086 278.434 691.047 263.124C728.008 247.814 768.679 243.808 807.917 251.613C847.155 259.418 883.197 278.683 911.485 306.972C939.774 335.26 959.04 371.303 966.845 410.541C974.649 449.778 970.644 490.449 955.334 527.41C940.024 564.371 914.098 595.963 880.834 618.189C847.57 640.416 808.461 652.279 768.455 652.279H706.525V566.572C706.525 532.37 734.252 504.643 768.455 504.643C779.262 504.643 789.826 501.438 798.812 495.435C807.797 489.431 814.8 480.897 818.936 470.913C823.071 460.929 824.153 449.942 822.045 439.343C819.937 428.744 814.732 419.008 807.091 411.366C799.449 403.725 789.713 398.521 779.114 396.413C768.515 394.305 757.529 395.387 747.545 399.522C737.561 403.658 729.027 410.661 723.023 419.646C717.02 428.632 713.814 439.196 713.814 450.003H713.826C713.826 490.009 701.962 529.117 679.736 562.381C657.51 595.645 625.918 621.572 588.957 636.882C551.996 652.191 511.325 656.197 472.088 648.393C432.85 640.588 396.807 621.322 368.519 593.033C340.23 564.744 320.965 528.702 313.16 489.465C305.355 450.227 309.361 409.556 324.671 372.595C339.981 335.634 365.907 304.043 399.171 281.816C432.435 259.59 471.543 247.727 511.55 247.727H566.189V340.723Z" fill="url(#paint1_linear_212_350)"/>
<path d="M566.189 340.723C566.189 370.899 541.727 395.362 511.55 395.362C500.743 395.362 490.179 398.567 481.193 404.571C472.208 410.575 465.205 419.109 461.069 429.093C456.934 439.077 455.852 450.063 457.96 460.662C460.068 471.261 465.272 480.997 472.913 488.639C480.555 496.28 490.291 501.484 500.89 503.593C511.489 505.701 522.475 504.619 532.459 500.483C542.443 496.348 550.978 489.345 556.981 480.359C562.985 471.374 566.189 460.81 566.189 450.003H566.179C566.179 409.996 578.042 370.888 600.269 337.624C622.495 304.36 654.086 278.434 691.047 263.124C728.008 247.814 768.679 243.808 807.917 251.613C847.155 259.418 883.197 278.683 911.485 306.972C939.774 335.26 959.04 371.303 966.845 410.541C974.649 449.778 970.644 490.449 955.334 527.41C940.024 564.371 914.098 595.963 880.834 618.189C847.57 640.416 808.461 652.279 768.455 652.279H706.525V566.572C706.525 532.37 734.252 504.643 768.455 504.643C779.262 504.643 789.826 501.438 798.812 495.435C807.797 489.431 814.8 480.897 818.936 470.913C823.071 460.929 824.153 449.942 822.045 439.343C819.937 428.744 814.732 419.008 807.091 411.366C799.449 403.725 789.713 398.521 779.114 396.413C768.515 394.305 757.529 395.387 747.545 399.522C737.561 403.658 729.027 410.661 723.023 419.646C717.02 428.632 713.814 439.196 713.814 450.003H713.826C713.826 490.009 701.962 529.117 679.736 562.381C657.51 595.645 625.918 621.572 588.957 636.882C551.996 652.191 511.325 656.197 472.088 648.393C432.85 640.588 396.807 621.322 368.519 593.033C340.23 564.744 320.965 528.702 313.16 489.465C305.355 450.227 309.361 409.556 324.671 372.595C339.981 335.634 365.907 304.043 399.171 281.816C432.435 259.59 471.543 247.727 511.55 247.727H566.189V340.723Z" fill="#1F2E7E" fill-opacity="0.2"/>
</g>
</g>
</g>
<defs>
<filter id="filter1_i_212_350" x="287.503" y="247.727" width="683.232" height="442.653" filterUnits="userSpaceOnUse" color-interpolation-filters="sRGB">
<feFlood flood-opacity="0" result="BackgroundImageFix"/>
<feBlend mode="normal" in="SourceGraphic" in2="BackgroundImageFix" result="shape"/>
<feColorMatrix in="SourceAlpha" type="matrix" values="0 0 0 0 0 0 0 0 0 0 0 0 0 0 0 0 0 0 127 0" result="hardAlpha"/>
<feOffset dx="-21.7706" dy="38.0986"/>
<feGaussianBlur stdDeviation="46.2626"/>
<feComposite in2="hardAlpha" operator="arithmetic" k2="-1" k3="1"/>
<feColorMatrix type="matrix" values="0 0 0 0 1 0 0 0 0 1 0 0 0 0 1 0 0 0 0.87 0"/>
<feBlend mode="lighten" in2="shape" result="effect1_innerShadow_212_350"/>
</filter>
<linearGradient id="paint0_linear_212_350" x1="785.248" y1="652.279" x2="737.615" y2="332.246" gradientUnits="userSpaceOnUse">
<stop offset="0.137931" stop-opacity="0"/>
<stop offset="1"/>
</linearGradient>
<linearGradient id="paint1_linear_212_350" x1="957.691" y1="762.842" x2="761.485" y2="702.089" gradientUnits="userSpaceOnUse">
<stop stop-color="#949494"/>
<stop offset="0.635171" stop-color="#181818"/>
<stop offset="1" stop-color="#1D1D1D"/>
</linearGradient>
<clipPath id="clip0_212_350">
<rect width="1280" height="832" fill="white"/>
</clipPath>
</defs>
</svg>
