<svg width="1280" height="832" viewBox="0 0 1280 832" fill="none" xmlns="http://www.w3.org/2000/svg">
<g clip-path="url(#clip0_212_300)">
<rect width="1280" height="832" fill="black"/>
<mask id="mask0_212_300" style="mask-type:alpha" maskUnits="userSpaceOnUse" x="505" y="187" width="426" height="535">
<path d="M793.251 310.182C783.077 306.406 775.527 298.084 772.719 287.606C752.548 212.325 672.667 169.003 597.687 194.709C535.17 216.189 496.923 280.819 508.476 345.996C511.014 360.981 515.885 374.749 522.741 387.098C528.528 397.665 529.297 410.464 524.216 421.283C503.912 465.736 498.899 517.619 513.745 568.614C545.802 679.428 662.341 744.847 773.874 714.371C886.786 683.525 953.731 567.168 923.437 454.108C905.039 385.445 855.142 333.794 793.251 310.182Z" fill="url(#paint0_linear_212_300)"/>
</mask>
<g mask="url(#mask0_212_300)">
<g filter="url(#filter1_ii_212_300)">
<path d="M793.251 310.182C783.077 306.406 775.527 298.084 772.719 287.606C752.548 212.325 672.667 169.003 597.687 194.709C535.17 216.189 496.923 280.819 508.476 345.996C511.014 360.981 515.885 374.749 522.741 387.098C528.528 397.665 529.297 410.464 524.216 421.283C503.912 465.736 498.899 517.619 513.745 568.614C545.802 679.428 662.341 744.847 773.874 714.371C886.786 683.525 953.731 567.168 923.437 454.108C905.039 385.445 855.142 333.794 793.251 310.182Z" fill="url(#paint1_radial_212_300)"/>
<path d="M793.251 310.182C783.077 306.406 775.527 298.084 772.719 287.606C752.548 212.325 672.667 169.003 597.687 194.709C535.17 216.189 496.923 280.819 508.476 345.996C511.014 360.981 515.885 374.749 522.741 387.098C528.528 397.665 529.297 410.464 524.216 421.283C503.912 465.736 498.899 517.619 513.745 568.614C545.802 679.428 662.341 744.847 773.874 714.371C886.786 683.525 953.731 567.168 923.437 454.108C905.039 385.445 855.142 333.794 793.251 310.182Z" fill="#1F2E7E" fill-opacity="0.2"/>
</g>
</g>
<mask id="mask1_212_300" style="mask-type:alpha" maskUnits="userSpaceOnUse" x="333" y="274" width="313" height="282">
<path d="M335.555 426.901C346.537 494.906 409.425 543.216 477.943 536.561C478.322 536.422 478.961 536.403 479.22 536.523C504.426 533.723 529.344 538.34 552.4 549.015C565.353 555.013 580.484 556.986 595.822 553.077C625.62 545.796 646.63 518.087 645.711 487.459C645.117 467.679 635.787 450.46 621.903 438.998C607.363 426.917 597.793 410.216 595.443 391.511C595.424 390.873 595.146 390.115 595.247 389.217C585.805 317.206 520.288 266.421 448.277 275.863C375.109 285.084 323.762 353.172 335.555 426.901Z" fill="url(#paint2_linear_212_300)"/>
</mask>
<g mask="url(#mask1_212_300)">
<g filter="url(#filter2_dii_212_300)">
<path d="M335.555 426.901C346.537 494.906 409.425 543.216 477.943 536.561C478.322 536.422 478.961 536.403 479.22 536.523C504.426 533.723 529.344 538.34 552.4 549.015C565.353 555.013 580.484 556.986 595.822 553.077C625.62 545.796 646.63 518.087 645.711 487.459C645.117 467.679 635.787 450.46 621.903 438.998C607.363 426.917 597.793 410.216 595.443 391.511C595.424 390.873 595.146 390.115 595.247 389.217C585.805 317.206 520.288 266.421 448.277 275.863C375.109 285.084 323.762 353.172 335.555 426.901Z" fill="url(#paint3_radial_212_300)"/>
<path d="M335.555 426.901C346.537 494.906 409.425 543.216 477.943 536.561C478.322 536.422 478.961 536.403 479.22 536.523C504.426 533.723 529.344 538.34 552.4 549.015C565.353 555.013 580.484 556.986 595.822 553.077C625.62 545.796 646.63 518.087 645.711 487.459C645.117 467.679 635.787 450.46 621.903 438.998C607.363 426.917 597.793 410.216 595.443 391.511C595.424 390.873 595.146 390.115 595.247 389.217C585.805 317.206 520.288 266.421 448.277 275.863C375.109 285.084 323.762 353.172 335.555 426.901Z" fill="#1F2E7E" fill-opacity="0.2"/>
</g>
</g>
<g filter="url(#filter3_ii_212_300)">
<path d="M871.087 331.945C863.614 317.015 844.235 307.747 848.349 288.756C848.81 285.186 850.056 281.647 851.878 278.556C853.685 275.336 856.18 272.421 859.267 270.081C862.355 267.741 865.796 266.137 869.445 265.157C873.094 264.177 876.712 263.982 880.282 264.443C901.038 273.279 920.909 296.795 922.418 320.151C921.973 323.849 920.839 327.244 918.905 330.48C917.098 333.699 914.603 336.615 911.516 338.955C908.428 341.295 904.987 342.899 901.338 343.878C897.817 344.842 894.055 344.925 890.484 344.464C886.898 343.875 883.215 342.517 879.947 340.327C876.679 338.136 873.587 335.273 871.087 331.945Z" fill="url(#paint4_radial_212_300)"/>
<path d="M871.087 331.945C863.614 317.015 844.235 307.747 848.349 288.756C848.81 285.186 850.056 281.647 851.878 278.556C853.685 275.336 856.18 272.421 859.267 270.081C862.355 267.741 865.796 266.137 869.445 265.157C873.094 264.177 876.712 263.982 880.282 264.443C901.038 273.279 920.909 296.795 922.418 320.151C921.973 323.849 920.839 327.244 918.905 330.48C917.098 333.699 914.603 336.615 911.516 338.955C908.428 341.295 904.987 342.899 901.338 343.878C897.817 344.842 894.055 344.925 890.484 344.464C886.898 343.875 883.215 342.517 879.947 340.327C876.679 338.136 873.587 335.273 871.087 331.945Z" fill="#1F2E7E" fill-opacity="0.2"/>
</g>
<g filter="url(#filter4_diif_212_300)">
<path d="M537.061 653.839C527.446 649.155 513.981 651.986 508.679 640.725C507.524 638.73 506.779 636.445 506.503 634.163C506.168 631.822 506.301 629.367 506.961 626.975C507.62 624.582 508.746 622.427 510.221 620.508C511.695 618.589 513.459 617.081 515.455 615.925C529.452 612.338 548.716 616.562 558.577 627.854C559.791 629.908 560.536 632.077 560.812 634.475C561.147 636.816 561.013 639.271 560.353 641.663C559.694 644.056 558.568 646.211 557.094 648.13C555.678 649.991 553.797 651.498 551.801 652.654C549.748 653.751 547.346 654.494 544.831 654.653C542.316 654.811 539.628 654.558 537.061 653.839Z" fill="url(#paint5_radial_212_300)"/>
<path d="M537.061 653.839C527.446 649.155 513.981 651.986 508.679 640.725C507.524 638.73 506.779 636.445 506.503 634.163C506.168 631.822 506.301 629.367 506.961 626.975C507.62 624.582 508.746 622.427 510.221 620.508C511.695 618.589 513.459 617.081 515.455 615.925C529.452 612.338 548.716 616.562 558.577 627.854C559.791 629.908 560.536 632.077 560.812 634.475C561.147 636.816 561.013 639.271 560.353 641.663C559.694 644.056 558.568 646.211 557.094 648.13C555.678 649.991 553.797 651.498 551.801 652.654C549.748 653.751 547.346 654.494 544.831 654.653C542.316 654.811 539.628 654.558 537.061 653.839Z" fill="#1F2E7E" fill-opacity="0.2"/>
</g>
<g filter="url(#filter5_dii_212_300)">
<path d="M777.025 599.8C818.391 599.8 851.925 566.266 851.925 524.9C851.925 483.534 818.391 450 777.025 450C735.659 450 702.125 483.534 702.125 524.9C702.125 566.266 735.659 599.8 777.025 599.8Z" fill="url(#paint6_radial_212_300)"/>
<path d="M777.025 599.8C818.391 599.8 851.925 566.266 851.925 524.9C851.925 483.534 818.391 450 777.025 450C735.659 450 702.125 483.534 702.125 524.9C702.125 566.266 735.659 599.8 777.025 599.8Z" fill="#1F2E7E" fill-opacity="0.2"/>
</g>
<g filter="url(#filter6_di_212_300)">
<path d="M478.588 240.082C489.634 240.082 498.59 231.127 498.59 220.08C498.59 209.033 489.634 200.078 478.588 200.078C467.541 200.078 458.586 209.033 458.586 220.08C458.586 231.127 467.541 240.082 478.588 240.082Z" fill="url(#paint7_radial_212_300)"/>
<path d="M478.588 240.082C489.634 240.082 498.59 231.127 498.59 220.08C498.59 209.033 489.634 200.078 478.588 200.078C467.541 200.078 458.586 209.033 458.586 220.08C458.586 231.127 467.541 240.082 478.588 240.082Z" fill="#1F2E7E" fill-opacity="0.2"/>
</g>
<g filter="url(#filter7_diif_212_300)">
<path d="M683.259 236.653C703.461 253.107 733.177 250.069 749.631 229.867C766.085 209.665 763.046 179.95 742.844 163.496C722.643 147.042 692.927 150.08 676.473 170.282C660.019 190.484 663.057 220.199 683.259 236.653Z" fill="url(#paint8_radial_212_300)"/>
<path d="M683.259 236.653C703.461 253.107 733.177 250.069 749.631 229.867C766.085 209.665 763.046 179.95 742.844 163.496C722.643 147.042 692.927 150.08 676.473 170.282C660.019 190.484 663.057 220.199 683.259 236.653Z" fill="#1F2E7E" fill-opacity="0.2"/>
</g>
</g>
<defs>
<filter id="filter1_ii_212_300" x="486.812" y="187.273" width="470.256" height="566.693" filterUnits="userSpaceOnUse" color-interpolation-filters="sRGB">
<feFlood flood-opacity="0" result="BackgroundImageFix"/>
<feBlend mode="normal" in="SourceGraphic" in2="BackgroundImageFix" result="shape"/>
<feColorMatrix in="SourceAlpha" type="matrix" values="0 0 0 0 0 0 0 0 0 0 0 0 0 0 0 0 0 0 127 0" result="hardAlpha"/>
<feOffset dx="-18.3516" dy="32.1153"/>
<feGaussianBlur stdDeviation="38.9971"/>
<feComposite in2="hardAlpha" operator="arithmetic" k2="-1" k3="1"/>
<feColorMatrix type="matrix" values="0 0 0 0 1 0 0 0 0 1 0 0 0 0 1 0 0 0 0.87 0"/>
<feBlend mode="lighten" in2="shape" result="effect1_innerShadow_212_300"/>
<feColorMatrix in="SourceAlpha" type="matrix" values="0 0 0 0 0 0 0 0 0 0 0 0 0 0 0 0 0 0 127 0" result="hardAlpha"/>
<feOffset dx="26.35" dy="15.3705"/>
<feGaussianBlur stdDeviation="15.3705"/>
<feComposite in2="hardAlpha" operator="arithmetic" k2="-1" k3="1"/>
<feColorMatrix type="matrix" values="0 0 0 0 0.168627 0 0 0 0 0.180392 0 0 0 0 0.239216 0 0 0 0.9 0"/>
<feBlend mode="multiply" in2="effect1_innerShadow_212_300" result="effect2_innerShadow_212_300"/>
</filter>
<filter id="filter2_dii_212_300" x="315.516" y="274.734" width="356.576" height="324.367" filterUnits="userSpaceOnUse" color-interpolation-filters="sRGB">
<feFlood flood-opacity="0" result="BackgroundImageFix"/>
<feColorMatrix in="SourceAlpha" type="matrix" values="0 0 0 0 0 0 0 0 0 0 0 0 0 0 0 0 0 0 127 0" result="hardAlpha"/>
<feOffset dy="36"/>
<feGaussianBlur stdDeviation="4"/>
<feComposite in2="hardAlpha" operator="out"/>
<feColorMatrix type="matrix" values="0 0 0 0 0 0 0 0 0 0 0 0 0 0 0 0 0 0 0.16 0"/>
<feBlend mode="multiply" in2="BackgroundImageFix" result="effect1_dropShadow_212_300"/>
<feBlend mode="normal" in="SourceGraphic" in2="effect1_dropShadow_212_300" result="shape"/>
<feColorMatrix in="SourceAlpha" type="matrix" values="0 0 0 0 0 0 0 0 0 0 0 0 0 0 0 0 0 0 127 0" result="hardAlpha"/>
<feOffset dx="-18.3516" dy="32.1153"/>
<feGaussianBlur stdDeviation="38.9971"/>
<feComposite in2="hardAlpha" operator="arithmetic" k2="-1" k3="1"/>
<feColorMatrix type="matrix" values="0 0 0 0 1 0 0 0 0 1 0 0 0 0 1 0 0 0 0.87 0"/>
<feBlend mode="lighten" in2="shape" result="effect2_innerShadow_212_300"/>
<feColorMatrix in="SourceAlpha" type="matrix" values="0 0 0 0 0 0 0 0 0 0 0 0 0 0 0 0 0 0 127 0" result="hardAlpha"/>
<feOffset dx="26.3494" dy="15.3705"/>
<feGaussianBlur stdDeviation="15.3705"/>
<feComposite in2="hardAlpha" operator="arithmetic" k2="-1" k3="1"/>
<feColorMatrix type="matrix" values="0 0 0 0 0.168627 0 0 0 0 0.180392 0 0 0 0 0.239216 0 0 0 0.9 0"/>
<feBlend mode="multiply" in2="effect2_innerShadow_212_300" result="effect3_innerShadow_212_300"/>
</filter>
<filter id="filter3_ii_212_300" x="824.095" y="264.203" width="132.328" height="121.982" filterUnits="userSpaceOnUse" color-interpolation-filters="sRGB">
<feFlood flood-opacity="0" result="BackgroundImageFix"/>
<feBlend mode="normal" in="SourceGraphic" in2="BackgroundImageFix" result="shape"/>
<feColorMatrix in="SourceAlpha" type="matrix" values="0 0 0 0 0 0 0 0 0 0 0 0 0 0 0 0 0 0 127 0" result="hardAlpha"/>
<feOffset dx="-23.6862" dy="41.4509"/>
<feGaussianBlur stdDeviation="50.3332"/>
<feComposite in2="hardAlpha" operator="arithmetic" k2="-1" k3="1"/>
<feColorMatrix type="matrix" values="0 0 0 0 1 0 0 0 0 1 0 0 0 0 1 0 0 0 0.87 0"/>
<feBlend mode="lighten" in2="shape" result="effect1_innerShadow_212_300"/>
<feColorMatrix in="SourceAlpha" type="matrix" values="0 0 0 0 0 0 0 0 0 0 0 0 0 0 0 0 0 0 127 0" result="hardAlpha"/>
<feOffset dx="34.0089" dy="19.8385"/>
<feGaussianBlur stdDeviation="19.8385"/>
<feComposite in2="hardAlpha" operator="arithmetic" k2="-1" k3="1"/>
<feColorMatrix type="matrix" values="0 0 0 0 0.168627 0 0 0 0 0.180392 0 0 0 0 0.239216 0 0 0 0.9 0"/>
<feBlend mode="multiply" in2="effect1_innerShadow_212_300" result="effect2_innerShadow_212_300"/>
</filter>
<filter id="filter4_diif_212_300" x="487.977" y="602.09" width="99.3651" height="96.6056" filterUnits="userSpaceOnUse" color-interpolation-filters="sRGB">
<feFlood flood-opacity="0" result="BackgroundImageFix"/>
<feColorMatrix in="SourceAlpha" type="matrix" values="0 0 0 0 0 0 0 0 0 0 0 0 0 0 0 0 0 0 127 0" result="hardAlpha"/>
<feOffset dy="36"/>
<feGaussianBlur stdDeviation="4"/>
<feComposite in2="hardAlpha" operator="out"/>
<feColorMatrix type="matrix" values="0 0 0 0 0 0 0 0 0 0 0 0 0 0 0 0 0 0 0.16 0"/>
<feBlend mode="multiply" in2="BackgroundImageFix" result="effect1_dropShadow_212_300"/>
<feBlend mode="normal" in="SourceGraphic" in2="effect1_dropShadow_212_300" result="shape"/>
<feColorMatrix in="SourceAlpha" type="matrix" values="0 0 0 0 0 0 0 0 0 0 0 0 0 0 0 0 0 0 127 0" result="hardAlpha"/>
<feOffset dx="-18.3516" dy="32.1153"/>
<feGaussianBlur stdDeviation="38.9971"/>
<feComposite in2="hardAlpha" operator="arithmetic" k2="-1" k3="1"/>
<feColorMatrix type="matrix" values="0 0 0 0 1 0 0 0 0 1 0 0 0 0 1 0 0 0 0.87 0"/>
<feBlend mode="lighten" in2="shape" result="effect2_innerShadow_212_300"/>
<feColorMatrix in="SourceAlpha" type="matrix" values="0 0 0 0 0 0 0 0 0 0 0 0 0 0 0 0 0 0 127 0" result="hardAlpha"/>
<feOffset dx="26.3494" dy="15.3705"/>
<feGaussianBlur stdDeviation="15.3705"/>
<feComposite in2="hardAlpha" operator="arithmetic" k2="-1" k3="1"/>
<feColorMatrix type="matrix" values="0 0 0 0 0.168627 0 0 0 0 0.180392 0 0 0 0 0.239216 0 0 0 0.9 0"/>
<feBlend mode="multiply" in2="effect2_innerShadow_212_300" result="effect3_innerShadow_212_300"/>
<feGaussianBlur stdDeviation="6.295" result="effect4_foregroundBlur_212_300"/>
</filter>
<filter id="filter5_dii_212_300" x="683.773" y="450" width="194.498" height="193.797" filterUnits="userSpaceOnUse" color-interpolation-filters="sRGB">
<feFlood flood-opacity="0" result="BackgroundImageFix"/>
<feColorMatrix in="SourceAlpha" type="matrix" values="0 0 0 0 0 0 0 0 0 0 0 0 0 0 0 0 0 0 127 0" result="hardAlpha"/>
<feOffset dy="36"/>
<feGaussianBlur stdDeviation="4"/>
<feComposite in2="hardAlpha" operator="out"/>
<feColorMatrix type="matrix" values="0 0 0 0 0 0 0 0 0 0 0 0 0 0 0 0 0 0 0.16 0"/>
<feBlend mode="multiply" in2="BackgroundImageFix" result="effect1_dropShadow_212_300"/>
<feBlend mode="normal" in="SourceGraphic" in2="effect1_dropShadow_212_300" result="shape"/>
<feColorMatrix in="SourceAlpha" type="matrix" values="0 0 0 0 0 0 0 0 0 0 0 0 0 0 0 0 0 0 127 0" result="hardAlpha"/>
<feOffset dx="-18.3516" dy="32.1153"/>
<feGaussianBlur stdDeviation="38.9971"/>
<feComposite in2="hardAlpha" operator="arithmetic" k2="-1" k3="1"/>
<feColorMatrix type="matrix" values="0 0 0 0 1 0 0 0 0 1 0 0 0 0 1 0 0 0 0.87 0"/>
<feBlend mode="lighten" in2="shape" result="effect2_innerShadow_212_300"/>
<feColorMatrix in="SourceAlpha" type="matrix" values="0 0 0 0 0 0 0 0 0 0 0 0 0 0 0 0 0 0 127 0" result="hardAlpha"/>
<feOffset dx="26.3494" dy="15.3705"/>
<feGaussianBlur stdDeviation="15.3705"/>
<feComposite in2="hardAlpha" operator="arithmetic" k2="-1" k3="1"/>
<feColorMatrix type="matrix" values="0 0 0 0 0.168627 0 0 0 0 0.180392 0 0 0 0 0.239216 0 0 0 0.9 0"/>
<feBlend mode="multiply" in2="effect2_innerShadow_212_300" result="effect3_innerShadow_212_300"/>
</filter>
<filter id="filter6_di_212_300" x="453.685" y="200.078" width="47.0371" height="51.7501" filterUnits="userSpaceOnUse" color-interpolation-filters="sRGB">
<feFlood flood-opacity="0" result="BackgroundImageFix"/>
<feColorMatrix in="SourceAlpha" type="matrix" values="0 0 0 0 0 0 0 0 0 0 0 0 0 0 0 0 0 0 127 0" result="hardAlpha"/>
<feOffset dy="9.6137"/>
<feGaussianBlur stdDeviation="1.06819"/>
<feComposite in2="hardAlpha" operator="out"/>
<feColorMatrix type="matrix" values="0 0 0 0 0 0 0 0 0 0 0 0 0 0 0 0 0 0 0.16 0"/>
<feBlend mode="multiply" in2="BackgroundImageFix" result="effect1_dropShadow_212_300"/>
<feBlend mode="normal" in="SourceGraphic" in2="effect1_dropShadow_212_300" result="shape"/>
<feColorMatrix in="SourceAlpha" type="matrix" values="0 0 0 0 0 0 0 0 0 0 0 0 0 0 0 0 0 0 127 0" result="hardAlpha"/>
<feOffset dx="-4.90074" dy="8.5763"/>
<feGaussianBlur stdDeviation="10.4141"/>
<feComposite in2="hardAlpha" operator="arithmetic" k2="-1" k3="1"/>
<feColorMatrix type="matrix" values="0 0 0 0 1 0 0 0 0 1 0 0 0 0 1 0 0 0 0.87 0"/>
<feBlend mode="lighten" in2="shape" result="effect2_innerShadow_212_300"/>
</filter>
<filter id="filter7_diif_212_300" x="647.523" y="140.308" width="139.053" height="150.942" filterUnits="userSpaceOnUse" color-interpolation-filters="sRGB">
<feFlood flood-opacity="0" result="BackgroundImageFix"/>
<feColorMatrix in="SourceAlpha" type="matrix" values="0 0 0 0 0 0 0 0 0 0 0 0 0 0 0 0 0 0 127 0" result="hardAlpha"/>
<feOffset dy="36"/>
<feGaussianBlur stdDeviation="4"/>
<feComposite in2="hardAlpha" operator="out"/>
<feColorMatrix type="matrix" values="0 0 0 0 0 0 0 0 0 0 0 0 0 0 0 0 0 0 0.16 0"/>
<feBlend mode="multiply" in2="BackgroundImageFix" result="effect1_dropShadow_212_300"/>
<feBlend mode="normal" in="SourceGraphic" in2="effect1_dropShadow_212_300" result="shape"/>
<feColorMatrix in="SourceAlpha" type="matrix" values="0 0 0 0 0 0 0 0 0 0 0 0 0 0 0 0 0 0 127 0" result="hardAlpha"/>
<feOffset dx="-18.3516" dy="32.1153"/>
<feGaussianBlur stdDeviation="38.9971"/>
<feComposite in2="hardAlpha" operator="arithmetic" k2="-1" k3="1"/>
<feColorMatrix type="matrix" values="0 0 0 0 1 0 0 0 0 1 0 0 0 0 1 0 0 0 0.87 0"/>
<feBlend mode="lighten" in2="shape" result="effect2_innerShadow_212_300"/>
<feColorMatrix in="SourceAlpha" type="matrix" values="0 0 0 0 0 0 0 0 0 0 0 0 0 0 0 0 0 0 127 0" result="hardAlpha"/>
<feOffset dx="26.3494" dy="15.3705"/>
<feGaussianBlur stdDeviation="15.3705"/>
<feComposite in2="hardAlpha" operator="arithmetic" k2="-1" k3="1"/>
<feColorMatrix type="matrix" values="0 0 0 0 0.168627 0 0 0 0 0.180392 0 0 0 0 0.239216 0 0 0 0.9 0"/>
<feBlend mode="multiply" in2="effect2_innerShadow_212_300" result="effect3_innerShadow_212_300"/>
<feGaussianBlur stdDeviation="6.295" result="effect4_foregroundBlur_212_300"/>
</filter>
<linearGradient id="paint0_linear_212_300" x1="785.374" y1="760.695" x2="669.499" y2="387.32" gradientUnits="userSpaceOnUse">
<stop offset="0.515679" stop-opacity="0"/>
<stop offset="1"/>
</linearGradient>
<radialGradient id="paint1_radial_212_300" cx="0" cy="0" r="1" gradientTransform="matrix(57.6324 186.582 -272.436 454.952 553.437 159.932)" gradientUnits="userSpaceOnUse">
<stop stop-color="#949494"/>
<stop offset="0.635171" stop-color="#181818"/>
<stop offset="1" stop-color="#1D1D1D"/>
</radialGradient>
<linearGradient id="paint2_linear_212_300" x1="298.271" y1="251.461" x2="545.144" y2="412.355" gradientUnits="userSpaceOnUse">
<stop offset="0.119214" stop-opacity="0"/>
<stop offset="1"/>
</linearGradient>
<radialGradient id="paint3_radial_212_300" cx="0" cy="0" r="1" gradientTransform="matrix(-33.9658 87.233 -347.423 33.791 513.531 260.107)" gradientUnits="userSpaceOnUse">
<stop stop-color="#949494"/>
<stop offset="0.635171" stop-color="#181818"/>
<stop offset="1" stop-color="#1D1D1D"/>
</radialGradient>
<radialGradient id="paint4_radial_212_300" cx="0" cy="0" r="1" gradientTransform="matrix(-24.9205 4.58011 -56.6874 -67.3891 924.074 286.222)" gradientUnits="userSpaceOnUse">
<stop stop-color="#949494"/>
<stop offset="0.635171" stop-color="#181818"/>
<stop offset="1" stop-color="#1D1D1D"/>
</radialGradient>
<radialGradient id="paint5_radial_212_300" cx="0" cy="0" r="1" gradientTransform="matrix(-10.8921 12.0328 -55.0721 -12.2043 546.209 609.951)" gradientUnits="userSpaceOnUse">
<stop stop-color="#949494"/>
<stop offset="0.635171" stop-color="#181818"/>
<stop offset="1" stop-color="#1D1D1D"/>
</radialGradient>
<radialGradient id="paint6_radial_212_300" cx="0" cy="0" r="1" gradientTransform="matrix(2.59784 53.3543 -134.125 100.873 752.889 437.774)" gradientUnits="userSpaceOnUse">
<stop stop-color="#949494"/>
<stop offset="0.635171" stop-color="#181818"/>
<stop offset="1" stop-color="#1D1D1D"/>
</radialGradient>
<radialGradient id="paint7_radial_212_300" cx="0" cy="0" r="1" gradientTransform="matrix(0.693746 14.2481 -35.8176 26.9379 472.142 196.813)" gradientUnits="userSpaceOnUse">
<stop stop-color="#949494"/>
<stop offset="0.635171" stop-color="#181818"/>
<stop offset="1" stop-color="#1D1D1D"/>
</radialGradient>
<radialGradient id="paint8_radial_212_300" cx="0" cy="0" r="1" gradientTransform="matrix(-19.9537 27.0899 -105.626 -4.08676 735.92 147.924)" gradientUnits="userSpaceOnUse">
<stop stop-color="#949494"/>
<stop offset="0.635171" stop-color="#181818"/>
<stop offset="1" stop-color="#1D1D1D"/>
</radialGradient>
<clipPath id="clip0_212_300">
<rect width="1280" height="832" fill="white"/>
</clipPath>
</defs>
</svg>
