<svg width="1280" height="832" viewBox="0 0 1280 832" fill="none" xmlns="http://www.w3.org/2000/svg">
<g clip-path="url(#clip0_212_267)">
<rect width="1280" height="832" fill="black"/>
<mask id="mask0_212_267" style="mask-type:alpha" maskUnits="userSpaceOnUse" x="258" y="68" width="764" height="764">
<rect x="258" y="68" width="764" height="764" fill="url(#paint0_linear_212_267)"/>
</mask>
<g mask="url(#mask0_212_267)">
<g opacity="0.5" filter="url(#filter1_i_212_267)">
<circle cx="639.996" cy="449.996" r="320.988" fill="#1F2E7E" fill-opacity="0.2"/>
</g>
<g filter="url(#filter2_i_212_267)">
<path d="M657.047 800.389C657.694 810.244 649.875 818.594 639.998 818.594C630.122 818.594 622.302 810.244 622.949 800.389L633.778 635.412C633.993 632.134 636.714 629.586 639.998 629.586C643.283 629.586 646.004 632.134 646.219 635.412L657.047 800.389Z" fill="url(#paint1_linear_212_267)"/>
<path d="M657.047 800.389C657.694 810.244 649.875 818.594 639.998 818.594C630.122 818.594 622.302 810.244 622.949 800.389L633.778 635.412C633.993 632.134 636.714 629.586 639.998 629.586C643.283 629.586 646.004 632.134 646.219 635.412L657.047 800.389Z" fill="#1F2E7E" fill-opacity="0.2"/>
</g>
<g filter="url(#filter3_i_212_267)">
<path d="M622.945 99.611C622.298 89.7557 630.117 81.4062 639.994 81.4062C649.871 81.4062 657.69 89.7557 657.043 99.6111L646.214 264.588C645.999 267.866 643.278 270.414 639.994 270.414C636.71 270.414 633.989 267.866 633.774 264.588L622.945 99.611Z" fill="url(#paint2_linear_212_267)"/>
<path d="M622.945 99.611C622.298 89.7557 630.117 81.4062 639.994 81.4062C649.871 81.4062 657.69 89.7557 657.043 99.6111L646.214 264.588C645.999 267.866 643.278 270.414 639.994 270.414C636.71 270.414 633.989 267.866 633.774 264.588L622.945 99.611Z" fill="#1F2E7E" fill-opacity="0.2"/>
</g>
<g filter="url(#filter4_i_212_267)">
<path d="M289.611 467.047C279.756 467.694 271.406 459.875 271.406 449.998C271.406 440.122 279.756 432.302 289.611 432.949L454.588 443.778C457.866 443.993 460.414 446.714 460.414 449.998C460.414 453.283 457.866 456.004 454.588 456.219L289.611 467.047Z" fill="url(#paint3_linear_212_267)"/>
<path d="M289.611 467.047C279.756 467.694 271.406 459.875 271.406 449.998C271.406 440.122 279.756 432.302 289.611 432.949L454.588 443.778C457.866 443.993 460.414 446.714 460.414 449.998C460.414 453.283 457.866 456.004 454.588 456.219L289.611 467.047Z" fill="#1F2E7E" fill-opacity="0.2"/>
</g>
<g filter="url(#filter5_i_212_267)">
<path d="M990.389 432.945C1000.24 432.298 1008.59 440.117 1008.59 449.994C1008.59 459.871 1000.24 467.69 990.389 467.043L825.412 456.214C822.134 455.999 819.586 453.278 819.586 449.994C819.586 446.71 822.134 443.989 825.412 443.774L990.389 432.945Z" fill="url(#paint4_linear_212_267)"/>
<path d="M990.389 432.945C1000.24 432.298 1008.59 440.117 1008.59 449.994C1008.59 459.871 1000.24 467.69 990.389 467.043L825.412 456.214C822.134 455.999 819.586 453.278 819.586 449.994C819.586 446.71 822.134 443.989 825.412 443.774L990.389 432.945Z" fill="#1F2E7E" fill-opacity="0.2"/>
</g>
<g filter="url(#filter6_i_212_267)">
<path d="M616.542 217.417C624.6 195.641 655.399 195.641 663.457 217.417L681.358 265.792C705.847 331.973 758.026 384.152 824.207 408.642L872.583 426.542C894.359 434.6 894.359 465.399 872.583 473.457L824.207 491.358C758.027 515.847 705.847 568.026 681.358 634.207L663.457 682.583C655.4 704.359 624.6 704.359 616.542 682.583L598.642 634.207C574.152 568.027 521.973 515.847 455.792 491.358L407.417 473.457C385.641 465.4 385.641 434.6 407.417 426.542L455.792 408.642C521.973 384.152 574.152 331.973 598.642 265.792L616.542 217.417Z" fill="url(#paint5_linear_212_267)"/>
<path d="M616.542 217.417C624.6 195.641 655.399 195.641 663.457 217.417L681.358 265.792C705.847 331.973 758.026 384.152 824.207 408.642L872.583 426.542C894.359 434.6 894.359 465.399 872.583 473.457L824.207 491.358C758.027 515.847 705.847 568.026 681.358 634.207L663.457 682.583C655.4 704.359 624.6 704.359 616.542 682.583L598.642 634.207C574.152 568.027 521.973 515.847 455.792 491.358L407.417 473.457C385.641 465.4 385.641 434.6 407.417 426.542L455.792 408.642C521.973 384.152 574.152 331.973 598.642 265.792L616.542 217.417Z" fill="#1F2E7E" fill-opacity="0.2"/>
</g>
<g filter="url(#filter7_i_212_267)">
<rect x="372.82" y="639.672" width="112.554" height="112.554" rx="25.0121" transform="rotate(-45 372.82 639.672)" fill="url(#paint6_linear_212_267)"/>
<rect x="372.82" y="639.672" width="112.554" height="112.554" rx="25.0121" transform="rotate(-45 372.82 639.672)" fill="#1F2E7E" fill-opacity="0.2"/>
</g>
<g filter="url(#filter8_i_212_267)">
<rect x="739.664" y="272.828" width="112.554" height="112.554" rx="25.0121" transform="rotate(-45 739.664 272.828)" fill="url(#paint7_linear_212_267)"/>
<rect x="739.664" y="272.828" width="112.554" height="112.554" rx="25.0121" transform="rotate(-45 739.664 272.828)" fill="#1F2E7E" fill-opacity="0.2"/>
</g>
<line x1="370.508" y1="179.256" x2="912.437" y2="717.781" stroke="url(#paint8_linear_212_267)" stroke-width="4.16868"/>
<line x1="368.409" y1="718.643" x2="908.639" y2="178.414" stroke="url(#paint9_linear_212_267)" stroke-width="4.16868"/>
<line x1="637.916" y1="832" x2="637.916" y2="67.9999" stroke="url(#paint10_linear_212_267)" stroke-width="4.16868"/>
<line x1="1022" y1="445.834" x2="258" y2="445.834" stroke="url(#paint11_linear_212_267)" stroke-width="4.16868"/>
<g filter="url(#filter9_i_212_267)">
<circle cx="640.003" cy="450.003" r="87.5423" fill="url(#paint12_linear_212_267)"/>
<circle cx="640.003" cy="450.003" r="87.5423" fill="#1F2E7E" fill-opacity="0.2"/>
</g>
<g filter="url(#filter10_i_212_267)">
<circle cx="408.114" cy="320.247" r="42.208" fill="url(#paint13_linear_212_267)"/>
<circle cx="408.114" cy="320.247" r="42.208" fill="#1F2E7E" fill-opacity="0.2"/>
</g>
<g filter="url(#filter11_i_212_267)">
<circle cx="887.022" cy="583.178" r="23.092" fill="url(#paint14_linear_212_267)"/>
<circle cx="887.022" cy="583.178" r="23.092" fill="#1F2E7E" fill-opacity="0.2"/>
</g>
</g>
</g>
<defs>
<filter id="filter1_i_212_267" x="319.008" y="129.008" width="641.977" height="677.251" filterUnits="userSpaceOnUse" color-interpolation-filters="sRGB">
<feFlood flood-opacity="0" result="BackgroundImageFix"/>
<feBlend mode="normal" in="SourceGraphic" in2="BackgroundImageFix" result="shape"/>
<feColorMatrix in="SourceAlpha" type="matrix" values="0 0 0 0 0 0 0 0 0 0 0 0 0 0 0 0 0 0 127 0" result="hardAlpha"/>
<feOffset dy="35.2748"/>
<feGaussianBlur stdDeviation="43.9155"/>
<feComposite in2="hardAlpha" operator="arithmetic" k2="-1" k3="1"/>
<feColorMatrix type="matrix" values="0 0 0 0 1 0 0 0 0 1 0 0 0 0 1 0 0 0 0.8 0"/>
<feBlend mode="lighten" in2="shape" result="effect1_innerShadow_212_267"/>
</filter>
<filter id="filter2_i_212_267" x="622.914" y="629.586" width="34.1719" height="197.476" filterUnits="userSpaceOnUse" color-interpolation-filters="sRGB">
<feFlood flood-opacity="0" result="BackgroundImageFix"/>
<feBlend mode="normal" in="SourceGraphic" in2="BackgroundImageFix" result="shape"/>
<feColorMatrix in="SourceAlpha" type="matrix" values="0 0 0 0 0 0 0 0 0 0 0 0 0 0 0 0 0 0 127 0" result="hardAlpha"/>
<feOffset dy="8.46814"/>
<feGaussianBlur stdDeviation="6.87986"/>
<feComposite in2="hardAlpha" operator="arithmetic" k2="-1" k3="1"/>
<feColorMatrix type="matrix" values="0 0 0 0 1 0 0 0 0 1 0 0 0 0 1 0 0 0 0.8 0"/>
<feBlend mode="lighten" in2="shape" result="effect1_innerShadow_212_267"/>
</filter>
<filter id="filter3_i_212_267" x="622.906" y="81.4062" width="34.1719" height="197.476" filterUnits="userSpaceOnUse" color-interpolation-filters="sRGB">
<feFlood flood-opacity="0" result="BackgroundImageFix"/>
<feBlend mode="normal" in="SourceGraphic" in2="BackgroundImageFix" result="shape"/>
<feColorMatrix in="SourceAlpha" type="matrix" values="0 0 0 0 0 0 0 0 0 0 0 0 0 0 0 0 0 0 127 0" result="hardAlpha"/>
<feOffset dy="8.46814"/>
<feGaussianBlur stdDeviation="6.87986"/>
<feComposite in2="hardAlpha" operator="arithmetic" k2="-1" k3="1"/>
<feColorMatrix type="matrix" values="0 0 0 0 1 0 0 0 0 1 0 0 0 0 1 0 0 0 0.8 0"/>
<feBlend mode="lighten" in2="shape" result="effect1_innerShadow_212_267"/>
</filter>
<filter id="filter4_i_212_267" x="271.406" y="432.914" width="189.008" height="42.64" filterUnits="userSpaceOnUse" color-interpolation-filters="sRGB">
<feFlood flood-opacity="0" result="BackgroundImageFix"/>
<feBlend mode="normal" in="SourceGraphic" in2="BackgroundImageFix" result="shape"/>
<feColorMatrix in="SourceAlpha" type="matrix" values="0 0 0 0 0 0 0 0 0 0 0 0 0 0 0 0 0 0 127 0" result="hardAlpha"/>
<feOffset dy="8.46814"/>
<feGaussianBlur stdDeviation="6.87986"/>
<feComposite in2="hardAlpha" operator="arithmetic" k2="-1" k3="1"/>
<feColorMatrix type="matrix" values="0 0 0 0 1 0 0 0 0 1 0 0 0 0 1 0 0 0 0.8 0"/>
<feBlend mode="lighten" in2="shape" result="effect1_innerShadow_212_267"/>
</filter>
<filter id="filter5_i_212_267" x="819.586" y="432.906" width="189.008" height="42.64" filterUnits="userSpaceOnUse" color-interpolation-filters="sRGB">
<feFlood flood-opacity="0" result="BackgroundImageFix"/>
<feBlend mode="normal" in="SourceGraphic" in2="BackgroundImageFix" result="shape"/>
<feColorMatrix in="SourceAlpha" type="matrix" values="0 0 0 0 0 0 0 0 0 0 0 0 0 0 0 0 0 0 127 0" result="hardAlpha"/>
<feOffset dy="8.46814"/>
<feGaussianBlur stdDeviation="6.87986"/>
<feComposite in2="hardAlpha" operator="arithmetic" k2="-1" k3="1"/>
<feColorMatrix type="matrix" values="0 0 0 0 1 0 0 0 0 1 0 0 0 0 1 0 0 0 0.8 0"/>
<feBlend mode="lighten" in2="shape" result="effect1_innerShadow_212_267"/>
</filter>
<filter id="filter6_i_212_267" x="391.086" y="201.086" width="497.828" height="522.015" filterUnits="userSpaceOnUse" color-interpolation-filters="sRGB">
<feFlood flood-opacity="0" result="BackgroundImageFix"/>
<feBlend mode="normal" in="SourceGraphic" in2="BackgroundImageFix" result="shape"/>
<feColorMatrix in="SourceAlpha" type="matrix" values="0 0 0 0 0 0 0 0 0 0 0 0 0 0 0 0 0 0 127 0" result="hardAlpha"/>
<feOffset dy="24.1867"/>
<feGaussianBlur stdDeviation="19.6503"/>
<feComposite in2="hardAlpha" operator="arithmetic" k2="-1" k3="1"/>
<feColorMatrix type="matrix" values="0 0 0 0 1 0 0 0 0 1 0 0 0 0 1 0 0 0 0.8 0"/>
<feBlend mode="lighten" in2="shape" result="effect1_innerShadow_212_267"/>
</filter>
<filter id="filter7_i_212_267" x="383.18" y="570.445" width="138.453" height="162.64" filterUnits="userSpaceOnUse" color-interpolation-filters="sRGB">
<feFlood flood-opacity="0" result="BackgroundImageFix"/>
<feBlend mode="normal" in="SourceGraphic" in2="BackgroundImageFix" result="shape"/>
<feColorMatrix in="SourceAlpha" type="matrix" values="0 0 0 0 0 0 0 0 0 0 0 0 0 0 0 0 0 0 127 0" result="hardAlpha"/>
<feOffset dy="24.1867"/>
<feGaussianBlur stdDeviation="19.6503"/>
<feComposite in2="hardAlpha" operator="arithmetic" k2="-1" k3="1"/>
<feColorMatrix type="matrix" values="0 0 0 0 1 0 0 0 0 1 0 0 0 0 1 0 0 0 0.8 0"/>
<feBlend mode="lighten" in2="shape" result="effect1_innerShadow_212_267"/>
</filter>
<filter id="filter8_i_212_267" x="750.023" y="203.602" width="138.453" height="162.64" filterUnits="userSpaceOnUse" color-interpolation-filters="sRGB">
<feFlood flood-opacity="0" result="BackgroundImageFix"/>
<feBlend mode="normal" in="SourceGraphic" in2="BackgroundImageFix" result="shape"/>
<feColorMatrix in="SourceAlpha" type="matrix" values="0 0 0 0 0 0 0 0 0 0 0 0 0 0 0 0 0 0 127 0" result="hardAlpha"/>
<feOffset dy="24.1867"/>
<feGaussianBlur stdDeviation="19.6503"/>
<feComposite in2="hardAlpha" operator="arithmetic" k2="-1" k3="1"/>
<feColorMatrix type="matrix" values="0 0 0 0 1 0 0 0 0 1 0 0 0 0 1 0 0 0 0.8 0"/>
<feBlend mode="lighten" in2="shape" result="effect1_innerShadow_212_267"/>
</filter>
<filter id="filter9_i_212_267" x="552.461" y="362.461" width="175.086" height="199.273" filterUnits="userSpaceOnUse" color-interpolation-filters="sRGB">
<feFlood flood-opacity="0" result="BackgroundImageFix"/>
<feBlend mode="normal" in="SourceGraphic" in2="BackgroundImageFix" result="shape"/>
<feColorMatrix in="SourceAlpha" type="matrix" values="0 0 0 0 0 0 0 0 0 0 0 0 0 0 0 0 0 0 127 0" result="hardAlpha"/>
<feOffset dy="24.1867"/>
<feGaussianBlur stdDeviation="19.6503"/>
<feComposite in2="hardAlpha" operator="arithmetic" k2="-1" k3="1"/>
<feColorMatrix type="matrix" values="0 0 0 0 1 0 0 0 0 1 0 0 0 0 1 0 0 0 0.8 0"/>
<feBlend mode="lighten" in2="shape" result="effect1_innerShadow_212_267"/>
</filter>
<filter id="filter10_i_212_267" x="365.906" y="278.039" width="84.4141" height="108.601" filterUnits="userSpaceOnUse" color-interpolation-filters="sRGB">
<feFlood flood-opacity="0" result="BackgroundImageFix"/>
<feBlend mode="normal" in="SourceGraphic" in2="BackgroundImageFix" result="shape"/>
<feColorMatrix in="SourceAlpha" type="matrix" values="0 0 0 0 0 0 0 0 0 0 0 0 0 0 0 0 0 0 127 0" result="hardAlpha"/>
<feOffset dy="24.1867"/>
<feGaussianBlur stdDeviation="19.6503"/>
<feComposite in2="hardAlpha" operator="arithmetic" k2="-1" k3="1"/>
<feColorMatrix type="matrix" values="0 0 0 0 1 0 0 0 0 1 0 0 0 0 1 0 0 0 0.8 0"/>
<feBlend mode="lighten" in2="shape" result="effect1_innerShadow_212_267"/>
</filter>
<filter id="filter11_i_212_267" x="863.93" y="560.086" width="46.1875" height="59.42" filterUnits="userSpaceOnUse" color-interpolation-filters="sRGB">
<feFlood flood-opacity="0" result="BackgroundImageFix"/>
<feBlend mode="normal" in="SourceGraphic" in2="BackgroundImageFix" result="shape"/>
<feColorMatrix in="SourceAlpha" type="matrix" values="0 0 0 0 0 0 0 0 0 0 0 0 0 0 0 0 0 0 127 0" result="hardAlpha"/>
<feOffset dy="13.2325"/>
<feGaussianBlur stdDeviation="10.7506"/>
<feComposite in2="hardAlpha" operator="arithmetic" k2="-1" k3="1"/>
<feColorMatrix type="matrix" values="0 0 0 0 1 0 0 0 0 1 0 0 0 0 1 0 0 0 0.8 0"/>
<feBlend mode="lighten" in2="shape" result="effect1_innerShadow_212_267"/>
</filter>
<linearGradient id="paint0_linear_212_267" x1="807.763" y1="68" x2="983.293" y2="789.283" gradientUnits="userSpaceOnUse">
<stop/>
<stop offset="1" stop-opacity="0"/>
</linearGradient>
<linearGradient id="paint1_linear_212_267" x1="646.517" y1="900.732" x2="584.467" y2="882.955" gradientUnits="userSpaceOnUse">
<stop stop-color="#949494"/>
<stop offset="0.635171" stop-color="#181818"/>
<stop offset="1" stop-color="#1D1D1D"/>
</linearGradient>
<linearGradient id="paint2_linear_212_267" x1="633.475" y1="-0.731921" x2="695.525" y2="17.0449" gradientUnits="userSpaceOnUse">
<stop stop-color="#949494"/>
<stop offset="0.635171" stop-color="#181818"/>
<stop offset="1" stop-color="#1D1D1D"/>
</linearGradient>
<linearGradient id="paint3_linear_212_267" x1="189.268" y1="456.517" x2="207.045" y2="394.467" gradientUnits="userSpaceOnUse">
<stop stop-color="#949494"/>
<stop offset="0.635171" stop-color="#181818"/>
<stop offset="1" stop-color="#1D1D1D"/>
</linearGradient>
<linearGradient id="paint4_linear_212_267" x1="1090.73" y1="443.475" x2="1072.96" y2="505.525" gradientUnits="userSpaceOnUse">
<stop stop-color="#949494"/>
<stop offset="0.635171" stop-color="#181818"/>
<stop offset="1" stop-color="#1D1D1D"/>
</linearGradient>
<linearGradient id="paint5_linear_212_267" x1="534.242" y1="-103.225" x2="874.391" y2="401.566" gradientUnits="userSpaceOnUse">
<stop stop-color="#949494"/>
<stop offset="0.635171" stop-color="#181818"/>
<stop offset="1" stop-color="#1D1D1D"/>
</linearGradient>
<linearGradient id="paint6_linear_212_267" x1="408.989" y1="590.758" x2="473.665" y2="686.74" gradientUnits="userSpaceOnUse">
<stop stop-color="#949494"/>
<stop offset="0.635171" stop-color="#181818"/>
<stop offset="1" stop-color="#1D1D1D"/>
</linearGradient>
<linearGradient id="paint7_linear_212_267" x1="775.832" y1="223.915" x2="840.509" y2="319.896" gradientUnits="userSpaceOnUse">
<stop stop-color="#949494"/>
<stop offset="0.635171" stop-color="#181818"/>
<stop offset="1" stop-color="#1D1D1D"/>
</linearGradient>
<linearGradient id="paint8_linear_212_267" x1="386.7" y1="197.899" x2="385.495" y2="199.122" gradientUnits="userSpaceOnUse">
<stop stop-color="#949494"/>
<stop offset="0.635171" stop-color="#181818"/>
<stop offset="1" stop-color="#1D1D1D"/>
</linearGradient>
<linearGradient id="paint9_linear_212_267" x1="387.103" y1="702.51" x2="388.322" y2="703.719" gradientUnits="userSpaceOnUse">
<stop stop-color="#949494"/>
<stop offset="0.635171" stop-color="#181818"/>
<stop offset="1" stop-color="#1D1D1D"/>
</linearGradient>
<linearGradient id="paint10_linear_212_267" x1="639.727" y1="807.373" x2="641.443" y2="807.366" gradientUnits="userSpaceOnUse">
<stop stop-color="#949494"/>
<stop offset="0.635171" stop-color="#181818"/>
<stop offset="1" stop-color="#1D1D1D"/>
</linearGradient>
<linearGradient id="paint11_linear_212_267" x1="997.373" y1="444.023" x2="997.366" y2="442.307" gradientUnits="userSpaceOnUse">
<stop stop-color="#949494"/>
<stop offset="0.635171" stop-color="#181818"/>
<stop offset="1" stop-color="#1D1D1D"/>
</linearGradient>
<linearGradient id="paint12_linear_212_267" x1="608.723" y1="286.373" x2="709.33" y2="435.678" gradientUnits="userSpaceOnUse">
<stop stop-color="#949494"/>
<stop offset="0.635171" stop-color="#181818"/>
<stop offset="1" stop-color="#1D1D1D"/>
</linearGradient>
<linearGradient id="paint13_linear_212_267" x1="393.033" y1="241.354" x2="441.54" y2="313.34" gradientUnits="userSpaceOnUse">
<stop stop-color="#949494"/>
<stop offset="0.635171" stop-color="#181818"/>
<stop offset="1" stop-color="#1D1D1D"/>
</linearGradient>
<linearGradient id="paint14_linear_212_267" x1="878.77" y1="540.016" x2="905.309" y2="579.399" gradientUnits="userSpaceOnUse">
<stop stop-color="#949494"/>
<stop offset="0.635171" stop-color="#181818"/>
<stop offset="1" stop-color="#1D1D1D"/>
</linearGradient>
<clipPath id="clip0_212_267">
<rect width="1280" height="832" fill="white"/>
</clipPath>
</defs>
</svg>
