<svg width="1280" height="832" viewBox="0 0 1280 832" fill="none" xmlns="http://www.w3.org/2000/svg">
<g clip-path="url(#clip0_212_249)">
<rect width="1280" height="832" fill="black"/>
<mask id="mask0_212_249" style="mask-type:alpha" maskUnits="userSpaceOnUse" x="388" y="60" width="504" height="780">
<path d="M640 207.572C555.431 207.572 486.6 141.356 486.6 60L388 60C388 193.709 501.011 302.427 640 302.427C724.569 302.427 793.4 368.644 793.4 450C793.4 531.356 724.569 597.572 640 597.572C501.011 597.39 388 706.108 388 839.817H486.6C486.6 758.461 555.431 692.245 640 692.245C778.989 692.245 892 583.527 892 449.818C892 316.108 778.799 207.572 640 207.572Z" fill="url(#paint0_linear_212_249)"/>
</mask>
<g mask="url(#mask0_212_249)">
<g filter="url(#filter1_ii_212_249)">
<path d="M640 207.572C555.431 207.572 486.6 141.356 486.6 60L388 60C388 193.709 501.011 302.427 640 302.427C724.569 302.427 793.4 368.644 793.4 450C793.4 531.356 724.569 597.572 640 597.572C501.011 597.39 388 706.108 388 839.817H486.6C486.6 758.461 555.431 692.245 640 692.245C778.989 692.245 892 583.527 892 449.818C892 316.108 778.799 207.572 640 207.572Z" fill="url(#paint1_radial_212_249)"/>
<path d="M640 207.572C555.431 207.572 486.6 141.356 486.6 60L388 60C388 193.709 501.011 302.427 640 302.427C724.569 302.427 793.4 368.644 793.4 450C793.4 531.356 724.569 597.572 640 597.572C501.011 597.39 388 706.108 388 839.817H486.6C486.6 758.461 555.431 692.245 640 692.245C778.989 692.245 892 583.527 892 449.818C892 316.108 778.799 207.572 640 207.572Z" fill="#1F2E7E" fill-opacity="0.2"/>
</g>
</g>
<mask id="mask1_212_249" style="mask-type:alpha" maskUnits="userSpaceOnUse" x="388" y="60" width="504" height="780">
<path d="M640 207.572C724.569 207.572 793.4 141.356 793.4 60L892 60C892 193.709 778.989 302.427 640 302.427C555.431 302.427 486.6 368.644 486.6 450C486.6 531.356 555.431 597.572 640 597.572C778.989 597.572 892 706.291 892 840H793.4C793.4 758.643 724.569 692.427 640 692.427C501.011 692.245 388 583.527 388 449.818C388 316.108 501.011 207.572 640 207.572Z" fill="url(#paint2_linear_212_249)"/>
</mask>
<g mask="url(#mask1_212_249)">
<g filter="url(#filter2_ii_212_249)">
<path d="M640 207.572C724.569 207.572 793.4 141.356 793.4 60L892 60C892 193.709 778.989 302.427 640 302.427C555.431 302.427 486.6 368.644 486.6 450C486.6 531.356 555.431 597.572 640 597.572C778.989 597.572 892 706.291 892 840H793.4C793.4 758.643 724.569 692.427 640 692.427C501.011 692.245 388 583.527 388 449.818C388 316.108 501.011 207.572 640 207.572Z" fill="url(#paint3_radial_212_249)"/>
<path d="M640 207.572C724.569 207.572 793.4 141.356 793.4 60L892 60C892 193.709 778.989 302.427 640 302.427C555.431 302.427 486.6 368.644 486.6 450C486.6 531.356 555.431 597.572 640 597.572C778.989 597.572 892 706.291 892 840H793.4C793.4 758.643 724.569 692.427 640 692.427C501.011 692.245 388 583.527 388 449.818C388 316.108 501.011 207.572 640 207.572Z" fill="#1F2E7E" fill-opacity="0.2"/>
</g>
</g>
</g>
<defs>
<filter id="filter1_ii_212_249" x="369.648" y="60" width="548.701" height="811.936" filterUnits="userSpaceOnUse" color-interpolation-filters="sRGB">
<feFlood flood-opacity="0" result="BackgroundImageFix"/>
<feBlend mode="normal" in="SourceGraphic" in2="BackgroundImageFix" result="shape"/>
<feColorMatrix in="SourceAlpha" type="matrix" values="0 0 0 0 0 0 0 0 0 0 0 0 0 0 0 0 0 0 127 0" result="hardAlpha"/>
<feOffset dx="-18.3516" dy="32.1153"/>
<feGaussianBlur stdDeviation="38.9971"/>
<feComposite in2="hardAlpha" operator="arithmetic" k2="-1" k3="1"/>
<feColorMatrix type="matrix" values="0 0 0 0 1 0 0 0 0 1 0 0 0 0 1 0 0 0 0.87 0"/>
<feBlend mode="lighten" in2="shape" result="effect1_innerShadow_212_249"/>
<feColorMatrix in="SourceAlpha" type="matrix" values="0 0 0 0 0 0 0 0 0 0 0 0 0 0 0 0 0 0 127 0" result="hardAlpha"/>
<feOffset dx="26.3494" dy="15.3705"/>
<feGaussianBlur stdDeviation="15.3705"/>
<feComposite in2="hardAlpha" operator="arithmetic" k2="-1" k3="1"/>
<feColorMatrix type="matrix" values="0 0 0 0 0.168627 0 0 0 0 0.180392 0 0 0 0 0.239216 0 0 0 0.9 0"/>
<feBlend mode="multiply" in2="effect1_innerShadow_212_249" result="effect2_innerShadow_212_249"/>
</filter>
<filter id="filter2_ii_212_249" x="369.648" y="60" width="548.701" height="812.115" filterUnits="userSpaceOnUse" color-interpolation-filters="sRGB">
<feFlood flood-opacity="0" result="BackgroundImageFix"/>
<feBlend mode="normal" in="SourceGraphic" in2="BackgroundImageFix" result="shape"/>
<feColorMatrix in="SourceAlpha" type="matrix" values="0 0 0 0 0 0 0 0 0 0 0 0 0 0 0 0 0 0 127 0" result="hardAlpha"/>
<feOffset dx="-18.3516" dy="32.1153"/>
<feGaussianBlur stdDeviation="38.9971"/>
<feComposite in2="hardAlpha" operator="arithmetic" k2="-1" k3="1"/>
<feColorMatrix type="matrix" values="0 0 0 0 1 0 0 0 0 1 0 0 0 0 1 0 0 0 0.87 0"/>
<feBlend mode="lighten" in2="shape" result="effect1_innerShadow_212_249"/>
<feColorMatrix in="SourceAlpha" type="matrix" values="0 0 0 0 0 0 0 0 0 0 0 0 0 0 0 0 0 0 127 0" result="hardAlpha"/>
<feOffset dx="26.3494" dy="15.3705"/>
<feGaussianBlur stdDeviation="15.3705"/>
<feComposite in2="hardAlpha" operator="arithmetic" k2="-1" k3="1"/>
<feColorMatrix type="matrix" values="0 0 0 0 0.168627 0 0 0 0 0.180392 0 0 0 0 0.239216 0 0 0 0.9 0"/>
<feBlend mode="multiply" in2="effect1_innerShadow_212_249" result="effect2_innerShadow_212_249"/>
</filter>
<linearGradient id="paint0_linear_212_249" x1="948.448" y1="796.519" x2="810.429" y2="429.97" gradientUnits="userSpaceOnUse">
<stop offset="0.416991" stop-opacity="0"/>
<stop offset="1"/>
</linearGradient>
<radialGradient id="paint1_radial_212_249" cx="0" cy="0" r="1" gradientTransform="matrix(8.83875 295.167 -480.356 556.242 558.795 -3.64558)" gradientUnits="userSpaceOnUse">
<stop stop-color="#949494"/>
<stop offset="0.635171" stop-color="#181818"/>
<stop offset="1" stop-color="#1D1D1D"/>
</radialGradient>
<linearGradient id="paint2_linear_212_249" x1="558" y1="6.00001" x2="825.829" y2="717.129" gradientUnits="userSpaceOnUse">
<stop offset="0.137931" stop-opacity="0"/>
<stop offset="1"/>
</linearGradient>
<radialGradient id="paint3_radial_212_249" cx="0" cy="0" r="1" gradientTransform="matrix(8.83875 295.236 -480.356 556.372 558.795 -3.66046)" gradientUnits="userSpaceOnUse">
<stop stop-color="#949494"/>
<stop offset="0.635171" stop-color="#181818"/>
<stop offset="1" stop-color="#1D1D1D"/>
</radialGradient>
<clipPath id="clip0_212_249">
<rect width="1280" height="832" fill="white"/>
</clipPath>
</defs>
</svg>
