<svg width="1280" height="832" viewBox="0 0 1280 832" fill="none" xmlns="http://www.w3.org/2000/svg">
<g clip-path="url(#clip0_211_6)">
<rect width="1280" height="832" fill="black"/>
<g filter="url(#filter1_ii_211_6)">
<path d="M825.026 364.706C843.867 332.072 885.595 320.891 918.229 339.732C950.863 358.573 962.044 400.301 943.203 432.935L761.683 747.337C742.842 779.97 701.113 791.152 668.48 772.31C635.846 753.469 624.665 711.741 643.506 679.107L825.026 364.706Z" fill="url(#paint0_radial_211_6)"/>
<path d="M825.026 364.706C843.867 332.072 885.595 320.891 918.229 339.732C950.863 358.573 962.044 400.301 943.203 432.935L761.683 747.337C742.842 779.97 701.113 791.152 668.48 772.31C635.846 753.469 624.665 711.741 643.506 679.107L825.026 364.706Z" fill="#1F2E7E" fill-opacity="0.2"/>
</g>
<g filter="url(#filter2_ii_211_6)">
<path d="M870.189 320.604C906.587 310.852 944 332.452 953.753 368.85C963.506 405.248 941.905 442.661 905.507 452.413L412.72 584.455C376.322 594.208 338.91 572.608 329.157 536.21C319.404 499.812 341.004 462.399 377.402 452.646L870.189 320.604Z" fill="url(#paint1_radial_211_6)"/>
<path d="M870.189 320.604C906.587 310.852 944 332.452 953.753 368.85C963.506 405.248 941.905 442.661 905.507 452.413L412.72 584.455C376.322 594.208 338.91 572.608 329.157 536.21C319.404 499.812 341.004 462.399 377.402 452.646L870.189 320.604Z" fill="#1F2E7E" fill-opacity="0.2"/>
</g>
<mask id="mask0_211_6" style="mask-type:alpha" maskUnits="userSpaceOnUse" x="302" y="68" width="394" height="545">
<path d="M302.922 544.195L421.099 612.425L695.801 136.626L577.624 68.3967L302.922 544.195Z" fill="url(#paint2_linear_211_6)"/>
</mask>
<g mask="url(#mask0_211_6)">
<g filter="url(#filter3_ii_211_6)">
<path d="M337.037 485.107C318.196 517.741 329.377 559.469 362.01 578.31C394.644 597.151 436.372 585.97 455.213 553.336L661.686 195.714C680.527 163.081 669.346 121.352 636.713 102.511C604.079 83.6703 562.351 94.8514 543.51 127.485L337.037 485.107Z" fill="url(#paint3_radial_211_6)"/>
<path d="M337.037 485.107C318.196 517.741 329.377 559.469 362.01 578.31C394.644 597.151 436.372 585.97 455.213 553.336L661.686 195.714C680.527 163.081 669.346 121.352 636.713 102.511C604.079 83.6703 562.351 94.8514 543.51 127.485L337.037 485.107Z" fill="#1F2E7E" fill-opacity="0.2"/>
</g>
</g>
</g>
<defs>
<filter id="filter1_ii_211_6" x="616.695" y="330.578" width="361.009" height="481.783" filterUnits="userSpaceOnUse" color-interpolation-filters="sRGB">
<feFlood flood-opacity="0" result="BackgroundImageFix"/>
<feBlend mode="normal" in="SourceGraphic" in2="BackgroundImageFix" result="shape"/>
<feColorMatrix in="SourceAlpha" type="matrix" values="0 0 0 0 0 0 0 0 0 0 0 0 0 0 0 0 0 0 127 0" result="hardAlpha"/>
<feOffset dx="-17.657" dy="30.8998"/>
<feGaussianBlur stdDeviation="37.5212"/>
<feComposite in2="hardAlpha" operator="arithmetic" k2="-1" k3="1"/>
<feColorMatrix type="matrix" values="0 0 0 0 1 0 0 0 0 1 0 0 0 0 1 0 0 0 0.87 0"/>
<feBlend mode="lighten" in2="shape" result="effect1_innerShadow_211_6"/>
<feColorMatrix in="SourceAlpha" type="matrix" values="0 0 0 0 0 0 0 0 0 0 0 0 0 0 0 0 0 0 127 0" result="hardAlpha"/>
<feOffset dx="25.3522" dy="14.7888"/>
<feGaussianBlur stdDeviation="14.7888"/>
<feComposite in2="hardAlpha" operator="arithmetic" k2="-1" k3="1"/>
<feColorMatrix type="matrix" values="0 0 0 0 0.168627 0 0 0 0 0.180392 0 0 0 0 0.239216 0 0 0 0.9 0"/>
<feBlend mode="multiply" in2="effect1_innerShadow_211_6" result="effect2_innerShadow_211_6"/>
</filter>
<filter id="filter2_ii_211_6" x="309.155" y="318.266" width="672.29" height="299.431" filterUnits="userSpaceOnUse" color-interpolation-filters="sRGB">
<feFlood flood-opacity="0" result="BackgroundImageFix"/>
<feBlend mode="normal" in="SourceGraphic" in2="BackgroundImageFix" result="shape"/>
<feColorMatrix in="SourceAlpha" type="matrix" values="0 0 0 0 0 0 0 0 0 0 0 0 0 0 0 0 0 0 127 0" result="hardAlpha"/>
<feOffset dx="-17.657" dy="30.8998"/>
<feGaussianBlur stdDeviation="37.5212"/>
<feComposite in2="hardAlpha" operator="arithmetic" k2="-1" k3="1"/>
<feColorMatrix type="matrix" values="0 0 0 0 1 0 0 0 0 1 0 0 0 0 1 0 0 0 0.87 0"/>
<feBlend mode="lighten" in2="shape" result="effect1_innerShadow_211_6"/>
<feColorMatrix in="SourceAlpha" type="matrix" values="0 0 0 0 0 0 0 0 0 0 0 0 0 0 0 0 0 0 127 0" result="hardAlpha"/>
<feOffset dx="25.3522" dy="14.7888"/>
<feGaussianBlur stdDeviation="14.7888"/>
<feComposite in2="hardAlpha" operator="arithmetic" k2="-1" k3="1"/>
<feColorMatrix type="matrix" values="0 0 0 0 0.168627 0 0 0 0 0.180392 0 0 0 0 0.239216 0 0 0 0.9 0"/>
<feBlend mode="multiply" in2="effect1_innerShadow_211_6" result="effect2_innerShadow_211_6"/>
</filter>
<filter id="filter3_ii_211_6" x="310.226" y="93.3594" width="385.962" height="525.001" filterUnits="userSpaceOnUse" color-interpolation-filters="sRGB">
<feFlood flood-opacity="0" result="BackgroundImageFix"/>
<feBlend mode="normal" in="SourceGraphic" in2="BackgroundImageFix" result="shape"/>
<feColorMatrix in="SourceAlpha" type="matrix" values="0 0 0 0 0 0 0 0 0 0 0 0 0 0 0 0 0 0 127 0" result="hardAlpha"/>
<feOffset dx="-17.657" dy="30.8998"/>
<feGaussianBlur stdDeviation="37.5212"/>
<feComposite in2="hardAlpha" operator="arithmetic" k2="-1" k3="1"/>
<feColorMatrix type="matrix" values="0 0 0 0 1 0 0 0 0 1 0 0 0 0 1 0 0 0 0.87 0"/>
<feBlend mode="lighten" in2="shape" result="effect1_innerShadow_211_6"/>
<feColorMatrix in="SourceAlpha" type="matrix" values="0 0 0 0 0 0 0 0 0 0 0 0 0 0 0 0 0 0 127 0" result="hardAlpha"/>
<feOffset dx="25.3522" dy="14.7888"/>
<feGaussianBlur stdDeviation="14.7888"/>
<feComposite in2="hardAlpha" operator="arithmetic" k2="-1" k3="1"/>
<feColorMatrix type="matrix" values="0 0 0 0 0.168627 0 0 0 0 0.180392 0 0 0 0 0.239216 0 0 0 0.9 0"/>
<feBlend mode="multiply" in2="effect1_innerShadow_211_6" result="effect2_innerShadow_211_6"/>
</filter>
<radialGradient id="paint0_radial_211_6" cx="0" cy="0" r="1" gradientTransform="matrix(-87.4874 154.918 -243.859 247.597 908.168 286.85)" gradientUnits="userSpaceOnUse">
<stop stop-color="#949494"/>
<stop offset="0.635171" stop-color="#181818"/>
<stop offset="1" stop-color="#1D1D1D"/>
</radialGradient>
<radialGradient id="paint1_radial_211_6" cx="0" cy="0" r="1" gradientTransform="matrix(-222.024 61.2436 -443.212 28.2857 995.631 321.235)" gradientUnits="userSpaceOnUse">
<stop stop-color="#949494"/>
<stop offset="0.635171" stop-color="#181818"/>
<stop offset="1" stop-color="#1D1D1D"/>
</radialGradient>
<linearGradient id="paint2_linear_211_6" x1="264.005" y1="706.001" x2="181.838" y2="604.965" gradientUnits="userSpaceOnUse">
<stop offset="0.132716" stop-opacity="0"/>
<stop offset="0.486392"/>
</linearGradient>
<radialGradient id="paint3_radial_211_6" cx="0" cy="0" r="1" gradientTransform="matrix(99.3067 -168.619 109.299 -364.091 309.146 599.566)" gradientUnits="userSpaceOnUse">
<stop stop-color="#949494"/>
<stop offset="0.635171" stop-color="#181818"/>
<stop offset="1" stop-color="#1D1D1D"/>
</radialGradient>
<clipPath id="clip0_211_6">
<rect width="1280" height="832" fill="white"/>
</clipPath>
</defs>
</svg>
