<svg width="957" height="91" viewBox="0 0 957 91" fill="none" xmlns="http://www.w3.org/2000/svg">
<mask id="path-1-outside-1_144_5" maskUnits="userSpaceOnUse" x="0" y="0" width="957" height="91" fill="black">
<rect fill="white" width="957" height="91"/>
<path d="M69.48 90L65.768 77.584H34.92L31.208 90H2.28L34.408 1.936H67.304L99.432 90H69.48ZM40.808 57.872H59.88L50.664 26.512H50.152L40.808 57.872ZM110.097 1.936H186.257V23.056H138.385V35.216H179.345V55.44H138.385V68.88H187.153V90H110.097V1.936ZM253.16 24.464V90H224.872V24.464H195.944V1.936H281.96V24.464H253.16ZM354.239 90V56.592H323.135V90H294.847V1.936H323.135V34.064H354.239V1.936H382.527V90H354.239ZM401.472 1.936H477.632V23.056H429.76V35.216H470.72V55.44H429.76V68.88H478.528V90H401.472V1.936ZM577.431 28.944C577.431 34.32 575.98 39.184 573.079 43.536C570.178 47.888 565.954 51.088 560.407 53.136L579.991 90H548.247L532.631 57.872H522.135V90H493.847V1.936H547.735C554.05 1.936 559.426 3.17333 563.863 5.64799C568.386 8.03733 571.756 11.3227 573.975 15.504C576.279 19.6 577.431 24.08 577.431 28.944ZM548.631 30.096C548.631 27.792 547.863 25.872 546.327 24.336C544.791 22.8 542.914 22.032 540.695 22.032H522.135V38.288H540.695C542.914 38.288 544.791 37.52 546.327 35.984C547.863 34.3627 548.631 32.4 548.631 30.096ZM669.12 90V58.256C669.12 54.3307 669.248 50.32 669.504 46.224C669.845 42.0427 670.187 38.544 670.528 35.728C670.869 32.912 671.083 31.12 671.168 30.352H670.656L654.4 90H632.256L615.872 30.48H615.36C615.445 31.248 615.659 33.04 616 35.856C616.427 38.5867 616.811 42.0427 617.152 46.224C617.493 50.32 617.664 54.3307 617.664 58.256V90H591.68V1.936H631.616L644.928 52.752H645.44L658.624 1.936H697.152V90H669.12ZM715.627 90V1.936H743.915V90H715.627ZM827.073 90L790.081 47.248V90H764.097V1.936H788.801L825.793 45.328V1.936H851.777V90H827.073ZM908.866 1.936C939.671 1.936 955.074 16.6133 955.074 45.968C955.074 75.3227 939.671 90 908.866 90H870.722V1.936H908.866ZM899.01 68.88H908.354C920.215 68.88 926.146 62.5227 926.146 49.808V42.128C926.146 29.4133 920.215 23.056 908.354 23.056H899.01V68.88Z"/>
</mask>
<path d="M69.48 90L65.768 77.584H34.92L31.208 90H2.28L34.408 1.936H67.304L99.432 90H69.48ZM40.808 57.872H59.88L50.664 26.512H50.152L40.808 57.872ZM110.097 1.936H186.257V23.056H138.385V35.216H179.345V55.44H138.385V68.88H187.153V90H110.097V1.936ZM253.16 24.464V90H224.872V24.464H195.944V1.936H281.96V24.464H253.16ZM354.239 90V56.592H323.135V90H294.847V1.936H323.135V34.064H354.239V1.936H382.527V90H354.239ZM401.472 1.936H477.632V23.056H429.76V35.216H470.72V55.44H429.76V68.88H478.528V90H401.472V1.936ZM577.431 28.944C577.431 34.32 575.98 39.184 573.079 43.536C570.178 47.888 565.954 51.088 560.407 53.136L579.991 90H548.247L532.631 57.872H522.135V90H493.847V1.936H547.735C554.05 1.936 559.426 3.17333 563.863 5.64799C568.386 8.03733 571.756 11.3227 573.975 15.504C576.279 19.6 577.431 24.08 577.431 28.944ZM548.631 30.096C548.631 27.792 547.863 25.872 546.327 24.336C544.791 22.8 542.914 22.032 540.695 22.032H522.135V38.288H540.695C542.914 38.288 544.791 37.52 546.327 35.984C547.863 34.3627 548.631 32.4 548.631 30.096ZM669.12 90V58.256C669.12 54.3307 669.248 50.32 669.504 46.224C669.845 42.0427 670.187 38.544 670.528 35.728C670.869 32.912 671.083 31.12 671.168 30.352H670.656L654.4 90H632.256L615.872 30.48H615.36C615.445 31.248 615.659 33.04 616 35.856C616.427 38.5867 616.811 42.0427 617.152 46.224C617.493 50.32 617.664 54.3307 617.664 58.256V90H591.68V1.936H631.616L644.928 52.752H645.44L658.624 1.936H697.152V90H669.12ZM715.627 90V1.936H743.915V90H715.627ZM827.073 90L790.081 47.248V90H764.097V1.936H788.801L825.793 45.328V1.936H851.777V90H827.073ZM908.866 1.936C939.671 1.936 955.074 16.6133 955.074 45.968C955.074 75.3227 939.671 90 908.866 90H870.722V1.936H908.866ZM899.01 68.88H908.354C920.215 68.88 926.146 62.5227 926.146 49.808V42.128C926.146 29.4133 920.215 23.056 908.354 23.056H899.01V68.88Z" fill="url(#paint0_linear_144_5)"/>
<path d="M69.48 90L68.5219 90.2864L68.7352 91H69.48V90ZM65.768 77.584L66.7261 77.2976L66.5128 76.584H65.768V77.584ZM34.92 77.584V76.584H34.1752L33.9619 77.2976L34.92 77.584ZM31.208 90V91H31.9528L32.1661 90.2864L31.208 90ZM2.28 90L1.34057 89.6573L0.850704 91H2.28V90ZM34.408 1.936V0.935997H33.7084L33.4686 1.59327L34.408 1.936ZM67.304 1.936L68.2434 1.59327L68.0036 0.935997H67.304V1.936ZM99.432 90V91H100.861L100.371 89.6573L99.432 90ZM40.808 57.872L39.8496 57.5864L39.4666 58.872H40.808V57.872ZM59.88 57.872V58.872H61.2162L60.8394 57.59L59.88 57.872ZM50.664 26.512L51.6234 26.23L51.4124 25.512H50.664V26.512ZM50.152 26.512V25.512H49.4065L49.1936 26.2264L50.152 26.512ZM69.48 90L70.4381 89.7136L66.7261 77.2976L65.768 77.584L64.8099 77.8704L68.5219 90.2864L69.48 90ZM65.768 77.584V76.584H34.92V77.584V78.584H65.768V77.584ZM34.92 77.584L33.9619 77.2976L30.2499 89.7136L31.208 90L32.1661 90.2864L35.8781 77.8704L34.92 77.584ZM31.208 90V89H2.28V90V91H31.208V90ZM2.28 90L3.21943 90.3427L35.3474 2.27873L34.408 1.936L33.4686 1.59327L1.34057 89.6573L2.28 90ZM34.408 1.936V2.936H67.304V1.936V0.935997H34.408V1.936ZM67.304 1.936L66.3646 2.27873L98.4926 90.3427L99.432 90L100.371 89.6573L68.2434 1.59327L67.304 1.936ZM99.432 90V89H69.48V90V91H99.432V90ZM40.808 57.872V58.872H59.88V57.872V56.872H40.808V57.872ZM59.88 57.872L60.8394 57.59L51.6234 26.23L50.664 26.512L49.7046 26.794L58.9206 58.154L59.88 57.872ZM50.664 26.512V25.512H50.152V26.512V27.512H50.664V26.512ZM50.152 26.512L49.1936 26.2264L39.8496 57.5864L40.808 57.872L41.7664 58.1576L51.1104 26.7976L50.152 26.512ZM110.097 1.936V0.935997H109.097V1.936H110.097ZM186.257 1.936H187.257V0.935997H186.257V1.936ZM186.257 23.056V24.056H187.257V23.056H186.257ZM138.385 23.056V22.056H137.385V23.056H138.385ZM138.385 35.216H137.385V36.216H138.385V35.216ZM179.345 35.216H180.345V34.216H179.345V35.216ZM179.345 55.44V56.44H180.345V55.44H179.345ZM138.385 55.44V54.44H137.385V55.44H138.385ZM138.385 68.88H137.385V69.88H138.385V68.88ZM187.153 68.88H188.153V67.88H187.153V68.88ZM187.153 90V91H188.153V90H187.153ZM110.097 90H109.097V91H110.097V90ZM110.097 1.936V2.936H186.257V1.936V0.935997H110.097V1.936ZM186.257 1.936H185.257V23.056H186.257H187.257V1.936H186.257ZM186.257 23.056V22.056H138.385V23.056V24.056H186.257V23.056ZM138.385 23.056H137.385V35.216H138.385H139.385V23.056H138.385ZM138.385 35.216V36.216H179.345V35.216V34.216H138.385V35.216ZM179.345 35.216H178.345V55.44H179.345H180.345V35.216H179.345ZM179.345 55.44V54.44H138.385V55.44V56.44H179.345V55.44ZM138.385 55.44H137.385V68.88H138.385H139.385V55.44H138.385ZM138.385 68.88V69.88H187.153V68.88V67.88H138.385V68.88ZM187.153 68.88H186.153V90H187.153H188.153V68.88H187.153ZM187.153 90V89H110.097V90V91H187.153V90ZM110.097 90H111.097V1.936H110.097H109.097V90H110.097ZM253.16 24.464V23.464H252.16V24.464H253.16ZM253.16 90V91H254.16V90H253.16ZM224.872 90H223.872V91H224.872V90ZM224.872 24.464H225.872V23.464H224.872V24.464ZM195.944 24.464H194.944V25.464H195.944V24.464ZM195.944 1.936V0.935997H194.944V1.936H195.944ZM281.96 1.936H282.96V0.935997H281.96V1.936ZM281.96 24.464V25.464H282.96V24.464H281.96ZM253.16 24.464H252.16V90H253.16H254.16V24.464H253.16ZM253.16 90V89H224.872V90V91H253.16V90ZM224.872 90H225.872V24.464H224.872H223.872V90H224.872ZM224.872 24.464V23.464H195.944V24.464V25.464H224.872V24.464ZM195.944 24.464H196.944V1.936H195.944H194.944V24.464H195.944ZM195.944 1.936V2.936H281.96V1.936V0.935997H195.944V1.936ZM281.96 1.936H280.96V24.464H281.96H282.96V1.936H281.96ZM281.96 24.464V23.464H253.16V24.464V25.464H281.96V24.464ZM354.239 90H353.239V91H354.239V90ZM354.239 56.592H355.239V55.592H354.239V56.592ZM323.135 56.592V55.592H322.135V56.592H323.135ZM323.135 90V91H324.135V90H323.135ZM294.847 90H293.847V91H294.847V90ZM294.847 1.936V0.935997H293.847V1.936H294.847ZM323.135 1.936H324.135V0.935997H323.135V1.936ZM323.135 34.064H322.135V35.064H323.135V34.064ZM354.239 34.064V35.064H355.239V34.064H354.239ZM354.239 1.936V0.935997H353.239V1.936H354.239ZM382.527 1.936H383.527V0.935997H382.527V1.936ZM382.527 90V91H383.527V90H382.527ZM354.239 90H355.239V56.592H354.239H353.239V90H354.239ZM354.239 56.592V55.592H323.135V56.592V57.592H354.239V56.592ZM323.135 56.592H322.135V90H323.135H324.135V56.592H323.135ZM323.135 90V89H294.847V90V91H323.135V90ZM294.847 90H295.847V1.936H294.847H293.847V90H294.847ZM294.847 1.936V2.936H323.135V1.936V0.935997H294.847V1.936ZM323.135 1.936H322.135V34.064H323.135H324.135V1.936H323.135ZM323.135 34.064V35.064H354.239V34.064V33.064H323.135V34.064ZM354.239 34.064H355.239V1.936H354.239H353.239V34.064H354.239ZM354.239 1.936V2.936H382.527V1.936V0.935997H354.239V1.936ZM382.527 1.936H381.527V90H382.527H383.527V1.936H382.527ZM382.527 90V89H354.239V90V91H382.527V90ZM401.472 1.936V0.935997H400.472V1.936H401.472ZM477.632 1.936H478.632V0.935997H477.632V1.936ZM477.632 23.056V24.056H478.632V23.056H477.632ZM429.76 23.056V22.056H428.76V23.056H429.76ZM429.76 35.216H428.76V36.216H429.76V35.216ZM470.72 35.216H471.72V34.216H470.72V35.216ZM470.72 55.44V56.44H471.72V55.44H470.72ZM429.76 55.44V54.44H428.76V55.44H429.76ZM429.76 68.88H428.76V69.88H429.76V68.88ZM478.528 68.88H479.528V67.88H478.528V68.88ZM478.528 90V91H479.528V90H478.528ZM401.472 90H400.472V91H401.472V90ZM401.472 1.936V2.936H477.632V1.936V0.935997H401.472V1.936ZM477.632 1.936H476.632V23.056H477.632H478.632V1.936H477.632ZM477.632 23.056V22.056H429.76V23.056V24.056H477.632V23.056ZM429.76 23.056H428.76V35.216H429.76H430.76V23.056H429.76ZM429.76 35.216V36.216H470.72V35.216V34.216H429.76V35.216ZM470.72 35.216H469.72V55.44H470.72H471.72V35.216H470.72ZM470.72 55.44V54.44H429.76V55.44V56.44H470.72V55.44ZM429.76 55.44H428.76V68.88H429.76H430.76V55.44H429.76ZM429.76 68.88V69.88H478.528V68.88V67.88H429.76V68.88ZM478.528 68.88H477.528V90H478.528H479.528V68.88H478.528ZM478.528 90V89H401.472V90V91H478.528V90ZM401.472 90H402.472V1.936H401.472H400.472V90H401.472ZM573.079 43.536L572.247 42.9813L572.247 42.9813L573.079 43.536ZM560.407 53.136L560.061 52.1979L558.987 52.5944L559.524 53.6052L560.407 53.136ZM579.991 90V91H581.655L580.874 89.5308L579.991 90ZM548.247 90L547.348 90.4372L547.621 91H548.247V90ZM532.631 57.872L533.53 57.4348L533.257 56.872H532.631V57.872ZM522.135 57.872V56.872H521.135V57.872H522.135ZM522.135 90V91H523.135V90H522.135ZM493.847 90H492.847V91H493.847V90ZM493.847 1.936V0.935997H492.847V1.936H493.847ZM563.863 5.64799L563.376 6.52136L563.386 6.52689L563.396 6.53219L563.863 5.64799ZM573.975 15.504L573.092 15.9727L573.097 15.9836L573.103 15.9943L573.975 15.504ZM546.327 24.336L545.62 25.0431L545.62 25.0431L546.327 24.336ZM522.135 22.032V21.032H521.135V22.032H522.135ZM522.135 38.288H521.135V39.288H522.135V38.288ZM546.327 35.984L547.034 36.6911L547.044 36.6816L547.053 36.6717L546.327 35.984ZM577.431 28.944H576.431C576.431 34.1284 575.036 38.7983 572.247 42.9813L573.079 43.536L573.911 44.0907C576.925 39.5696 578.431 34.5116 578.431 28.944H577.431ZM573.079 43.536L572.247 42.9813C569.478 47.1348 565.436 50.2132 560.061 52.1979L560.407 53.136L560.753 54.0741C566.471 51.9628 570.877 48.6412 573.911 44.0907L573.079 43.536ZM560.407 53.136L559.524 53.6052L579.108 90.4692L579.991 90L580.874 89.5308L561.29 52.6668L560.407 53.136ZM579.991 90V89H548.247V90V91H579.991V90ZM548.247 90L549.146 89.5628L533.53 57.4348L532.631 57.872L531.732 58.3092L547.348 90.4372L548.247 90ZM532.631 57.872V56.872H522.135V57.872V58.872H532.631V57.872ZM522.135 57.872H521.135V90H522.135H523.135V57.872H522.135ZM522.135 90V89H493.847V90V91H522.135V90ZM493.847 90H494.847V1.936H493.847H492.847V90H493.847ZM493.847 1.936V2.936H547.735V1.936V0.935997H493.847V1.936ZM547.735 1.936V2.936C553.92 2.936 559.12 4.1476 563.376 6.52136L563.863 5.64799L564.35 4.77463C559.732 2.19906 554.179 0.935997 547.735 0.935997V1.936ZM563.863 5.64799L563.396 6.53219C567.756 8.8358 570.975 11.9829 573.092 15.9727L573.975 15.504L574.858 15.0353C572.538 10.6625 569.015 7.23886 564.33 4.7638L563.863 5.64799ZM573.975 15.504L573.103 15.9943C575.32 19.9352 576.431 24.2455 576.431 28.944H577.431H578.431C578.431 23.9145 577.238 19.2648 574.847 15.0137L573.975 15.504ZM548.631 30.096H549.631C549.631 27.5446 548.77 25.3647 547.034 23.6289L546.327 24.336L545.62 25.0431C546.956 26.3793 547.631 28.0394 547.631 30.096H548.631ZM546.327 24.336L547.034 23.6289C545.306 21.9009 543.173 21.032 540.695 21.032V22.032V23.032C542.655 23.032 544.276 23.6991 545.62 25.0431L546.327 24.336ZM540.695 22.032V21.032H522.135V22.032V23.032H540.695V22.032ZM522.135 22.032H521.135V38.288H522.135H523.135V22.032H522.135ZM522.135 38.288V39.288H540.695V38.288V37.288H522.135V38.288ZM540.695 38.288V39.288C543.173 39.288 545.306 38.4191 547.034 36.6911L546.327 35.984L545.62 35.2769C544.276 36.6209 542.655 37.288 540.695 37.288V38.288ZM546.327 35.984L547.053 36.6717C548.771 34.8583 549.631 32.6469 549.631 30.096H548.631H547.631C547.631 32.1531 546.955 33.8671 545.601 35.2963L546.327 35.984ZM669.12 90H668.12V91H669.12V90ZM669.504 46.224L668.507 46.1426L668.507 46.1521L668.506 46.1616L669.504 46.224ZM670.528 35.728L671.521 35.8483L671.521 35.8483L670.528 35.728ZM671.168 30.352L672.162 30.4624L672.285 29.352H671.168V30.352ZM670.656 30.352V29.352H669.892L669.691 30.0891L670.656 30.352ZM654.4 90V91H655.164L655.365 90.2629L654.4 90ZM632.256 90L631.292 90.2654L631.494 91H632.256V90ZM615.872 30.48L616.836 30.2146L616.634 29.48H615.872V30.48ZM615.36 30.48V29.48H614.243L614.366 30.5904L615.36 30.48ZM616 35.856L615.007 35.9763L615.009 35.9934L615.012 36.0104L616 35.856ZM617.152 46.224L616.155 46.3054L616.155 46.307L617.152 46.224ZM617.664 90V91H618.664V90H617.664ZM591.68 90H590.68V91H591.68V90ZM591.68 1.936V0.935997H590.68V1.936H591.68ZM631.616 1.936L632.583 1.68258L632.388 0.935997H631.616V1.936ZM644.928 52.752L643.961 53.0054L644.156 53.752H644.928V52.752ZM645.44 52.752V53.752H646.214L646.408 53.0031L645.44 52.752ZM658.624 1.936V0.935997H657.85L657.656 1.68487L658.624 1.936ZM697.152 1.936H698.152V0.935997H697.152V1.936ZM697.152 90V91H698.152V90H697.152ZM669.12 90H670.12V58.256H669.12H668.12V90H669.12ZM669.12 58.256H670.12C670.12 54.3524 670.247 50.3625 670.502 46.2864L669.504 46.224L668.506 46.1616C668.249 50.2775 668.12 54.3089 668.12 58.256H669.12ZM669.504 46.224L670.501 46.3054C670.841 42.1315 671.182 38.6468 671.521 35.8483L670.528 35.728L669.535 35.6077C669.192 38.4412 668.849 41.9538 668.507 46.1426L669.504 46.224ZM670.528 35.728L671.521 35.8483C671.862 33.0339 672.076 31.2364 672.162 30.4624L671.168 30.352L670.174 30.2416C670.089 31.0036 669.877 32.7901 669.535 35.6077L670.528 35.728ZM671.168 30.352V29.352H670.656V30.352V31.352H671.168V30.352ZM670.656 30.352L669.691 30.0891L653.435 89.7371L654.4 90L655.365 90.2629L671.621 30.6149L670.656 30.352ZM654.4 90V89H632.256V90V91H654.4V90ZM632.256 90L633.22 89.7346L616.836 30.2146L615.872 30.48L614.908 30.7454L631.292 90.2654L632.256 90ZM615.872 30.48V29.48H615.36V30.48V31.48H615.872V30.48ZM615.36 30.48L614.366 30.5904C614.452 31.3644 614.666 33.1619 615.007 35.9763L616 35.856L616.993 35.7357C616.651 32.9181 616.439 31.1316 616.354 30.3696L615.36 30.48ZM616 35.856L615.012 36.0104C615.433 38.7079 615.815 42.1374 616.155 46.3054L617.152 46.224L618.149 46.1426C617.806 41.948 617.42 38.4655 616.988 35.7016L616 35.856ZM617.152 46.224L616.155 46.307C616.495 50.3767 616.664 54.3596 616.664 58.256H617.664H618.664C618.664 54.3017 618.492 50.2633 618.149 46.141L617.152 46.224ZM617.664 58.256H616.664V90H617.664H618.664V58.256H617.664ZM617.664 90V89H591.68V90V91H617.664V90ZM591.68 90H592.68V1.936H591.68H590.68V90H591.68ZM591.68 1.936V2.936H631.616V1.936V0.935997H591.68V1.936ZM631.616 1.936L630.649 2.18941L643.961 53.0054L644.928 52.752L645.895 52.4986L632.583 1.68258L631.616 1.936ZM644.928 52.752V53.752H645.44V52.752V51.752H644.928V52.752ZM645.44 52.752L646.408 53.0031L659.592 2.18713L658.624 1.936L657.656 1.68487L644.472 52.5009L645.44 52.752ZM658.624 1.936V2.936H697.152V1.936V0.935997H658.624V1.936ZM697.152 1.936H696.152V90H697.152H698.152V1.936H697.152ZM697.152 90V89H669.12V90V91H697.152V90ZM715.627 90H714.627V91H715.627V90ZM715.627 1.936V0.935997H714.627V1.936H715.627ZM743.915 1.936H744.915V0.935997H743.915V1.936ZM743.915 90V91H744.915V90H743.915ZM715.627 90H716.627V1.936H715.627H714.627V90H715.627ZM715.627 1.936V2.936H743.915V1.936V0.935997H715.627V1.936ZM743.915 1.936H742.915V90H743.915H744.915V1.936H743.915ZM743.915 90V89H715.627V90V91H743.915V90ZM827.073 90L826.317 90.6543L826.616 91H827.073V90ZM790.081 47.248L790.837 46.5937L789.081 44.564V47.248H790.081ZM790.081 90V91H791.081V90H790.081ZM764.097 90H763.097V91H764.097V90ZM764.097 1.936V0.935997H763.097V1.936H764.097ZM788.801 1.936L789.562 1.28724L789.263 0.935997H788.801V1.936ZM825.793 45.328L825.032 45.9768L826.793 48.0424V45.328H825.793ZM825.793 1.936V0.935997H824.793V1.936H825.793ZM851.777 1.936H852.777V0.935997H851.777V1.936ZM851.777 90V91H852.777V90H851.777ZM827.073 90L827.829 89.3457L790.837 46.5937L790.081 47.248L789.325 47.9023L826.317 90.6543L827.073 90ZM790.081 47.248H789.081V90H790.081H791.081V47.248H790.081ZM790.081 90V89H764.097V90V91H790.081V90ZM764.097 90H765.097V1.936H764.097H763.097V90H764.097ZM764.097 1.936V2.936H788.801V1.936V0.935997H764.097V1.936ZM788.801 1.936L788.04 2.58475L825.032 45.9768L825.793 45.328L826.554 44.6792L789.562 1.28724L788.801 1.936ZM825.793 45.328H826.793V1.936H825.793H824.793V45.328H825.793ZM825.793 1.936V2.936H851.777V1.936V0.935997H825.793V1.936ZM851.777 1.936H850.777V90H851.777H852.777V1.936H851.777ZM851.777 90V89H827.073V90V91H851.777V90ZM870.722 90H869.722V91H870.722V90ZM870.722 1.936V0.935997H869.722V1.936H870.722ZM899.01 68.88H898.01V69.88H899.01V68.88ZM899.01 23.056V22.056H898.01V23.056H899.01ZM908.866 1.936V2.936C924.126 2.936 935.386 6.57222 942.832 13.6679C950.27 20.7551 954.074 31.4574 954.074 45.968H955.074H956.074C956.074 31.1239 952.177 19.8103 944.212 12.2201C936.256 4.63844 924.411 0.935997 908.866 0.935997V1.936ZM955.074 45.968H954.074C954.074 60.4786 950.27 71.1809 942.832 78.2681C935.386 85.3638 924.126 89 908.866 89V90V91C924.411 91 936.256 87.2976 944.212 79.7159C952.177 72.1257 956.074 60.8121 956.074 45.968H955.074ZM908.866 90V89H870.722V90V91H908.866V90ZM870.722 90H871.722V1.936H870.722H869.722V90H870.722ZM870.722 1.936V2.936H908.866V1.936V0.935997H870.722V1.936ZM899.01 68.88V69.88H908.354V68.88V67.88H899.01V68.88ZM908.354 68.88V69.88C914.457 69.88 919.214 68.2411 922.429 64.7941C925.633 61.3602 927.146 56.3029 927.146 49.808H926.146H925.146C925.146 56.0278 923.694 60.5064 920.967 63.4299C918.252 66.3402 914.112 67.88 908.354 67.88V68.88ZM926.146 49.808H927.146V42.128H926.146H925.146V49.808H926.146ZM926.146 42.128H927.146C927.146 35.6331 925.633 30.5758 922.429 27.1419C919.214 23.6949 914.457 22.056 908.354 22.056V23.056V24.056C914.112 24.056 918.252 25.5958 920.967 28.5061C923.694 31.4296 925.146 35.9082 925.146 42.128H926.146ZM908.354 23.056V22.056H899.01V23.056V24.056H908.354V23.056ZM899.01 23.056H898.01V68.88H899.01H900.01V23.056H899.01Z" fill="url(#paint1_linear_144_5)" mask="url(#path-1-outside-1_144_5)"/>
<defs>
<linearGradient id="paint0_linear_144_5" x1="481.137" y1="-22" x2="481" y2="127" gradientUnits="userSpaceOnUse">
<stop offset="0.305419" stop-color="#141318"/>
<stop offset="0.890192" stop-opacity="0"/>
</linearGradient>
<linearGradient id="paint1_linear_144_5" x1="481" y1="-22" x2="481" y2="148.5" gradientUnits="userSpaceOnUse">
<stop stop-color="white"/>
<stop offset="0.57149" stop-color="#69647E" stop-opacity="0"/>
</linearGradient>
</defs>
</svg>
