<svg width="2475" height="1650" viewBox="0 0 2475 1650" fill="none" xmlns="http://www.w3.org/2000/svg">
<g clip-path="url(#clip0_152_459)">
<path d="M702.182 341.786C746.106 317.777 787.649 312.07 819.199 325.545C832.219 331.106 843.035 339.856 850.708 350.729L850.825 350.896L851.026 350.933C860.088 352.59 869.667 356.294 878.47 362.992C889.169 371.133 897.374 382.501 903.109 396.947L903.574 398.118L904.039 396.947C909.774 382.501 917.979 371.133 928.679 362.992C937.481 356.294 947.06 352.59 956.122 350.934L956.323 350.897L956.441 350.73C964.114 339.856 974.931 331.107 987.95 325.545C1019.5 312.071 1061.04 317.778 1104.97 341.786C1164.13 374.119 1184.84 415.206 1192.01 437.694L1192.06 437.868L1192.22 437.966C1261.34 481.754 1282.63 534.771 1287.98 572.953L1288.22 574.76C1291.1 597.101 1288.99 616.518 1286.04 630.645L1285.98 630.947L1286.22 631.139C1339.35 673.179 1370.45 731.904 1376.55 802.298C1379.61 837.634 1375.63 868.382 1371.95 887.324L1371.9 887.566L1372.06 887.751C1389.18 907.15 1399.64 937.838 1402.7 975.593C1405.77 1013.34 1401.44 1058.09 1389.03 1105.55C1375.97 1155.52 1353.63 1192.06 1322.68 1214.24C1317.27 1218.11 1312.01 1221.23 1307.05 1223.74L1306.78 1223.88L1306.77 1224.18C1306.63 1233.37 1304.33 1242.6 1299.85 1251.56V1251.56C1287.15 1276.9 1258.2 1296.41 1222.51 1310.12C1186.84 1323.82 1144.53 1331.71 1105.24 1333.88C1101.26 1334.1 1097.34 1334.21 1093.51 1334.21C1054.92 1334.21 1024.37 1323.05 1002.52 1301.03C985.451 1283.82 977.52 1263.65 973.891 1247.3L973.813 1246.96L973.463 1246.91L972.018 1246.73C941.801 1242.78 919.783 1231.62 906.263 1213.45C905.454 1212.37 904.719 1211.27 903.992 1210.16L903.574 1209.53L903.156 1210.16C902.43 1211.27 901.696 1212.37 900.887 1213.45C887.152 1231.91 864.642 1243.14 833.688 1246.91L833.337 1246.96L833.261 1247.3C829.633 1263.65 821.7 1283.82 804.627 1301.03C782.773 1323.05 752.223 1334.2 713.637 1334.21C709.804 1334.21 705.896 1334.1 701.906 1333.88C662.62 1331.71 620.307 1323.82 584.637 1310.12C548.947 1296.41 520 1276.9 507.305 1251.56C502.816 1242.6 500.517 1233.37 500.376 1224.18L500.372 1223.88L500.102 1223.74L499.169 1223.26C494.487 1220.84 489.547 1217.87 484.469 1214.24C453.523 1192.06 431.183 1155.52 418.119 1105.55C405.712 1058.09 401.382 1013.34 404.446 975.592C407.512 937.838 417.972 907.149 435.089 887.751L435.252 887.566L435.205 887.324C431.525 868.38 427.537 837.631 430.599 802.298C436.697 731.904 467.796 673.18 520.927 631.139L521.169 630.947L521.105 630.645C518.248 616.959 516.187 598.309 518.674 576.845L518.929 574.759C523.857 536.456 544.709 482.449 614.935 437.966L615.089 437.868L615.144 437.694C622.311 415.206 643.023 374.12 702.182 341.786Z" stroke="url(#paint0_linear_152_459)"/>
<path d="M716.664 368.284C749.422 350.38 776.247 346.022 795.85 349.837C815.439 353.649 827.836 365.621 831.842 380.479L831.973 380.966L832.458 380.832L832.459 380.831C832.46 380.831 832.462 380.831 832.464 380.83C832.469 380.829 832.477 380.826 832.488 380.823C832.511 380.817 832.545 380.809 832.591 380.798C832.683 380.775 832.821 380.741 833.002 380.702C833.365 380.624 833.901 380.519 834.585 380.418C835.953 380.215 837.913 380.026 840.266 380.08C844.972 380.189 851.241 381.274 857.509 385.178C870.019 392.969 882.721 412.121 882.721 457.821V1161.41L882.743 1161.48V1161.48C882.744 1161.48 882.745 1161.49 882.746 1161.49C882.748 1161.5 882.75 1161.51 882.754 1161.52C882.762 1161.54 882.774 1161.58 882.789 1161.64C882.819 1161.74 882.863 1161.9 882.916 1162.11C883.023 1162.53 883.17 1163.15 883.322 1163.93C883.628 1165.5 883.96 1167.75 884.065 1170.44C884.277 1175.83 883.579 1182.99 879.962 1190.11C872.751 1204.31 853.797 1218.61 806.464 1218.14L805.926 1218.14L805.96 1218.67L806.459 1218.64L805.96 1218.67V1218.68C805.96 1218.68 805.961 1218.68 805.961 1218.69C805.962 1218.7 805.962 1218.72 805.963 1218.74C805.965 1218.78 805.969 1218.84 805.973 1218.93C805.98 1219.1 805.989 1219.35 805.997 1219.68C806.013 1220.34 806.022 1221.32 805.995 1222.56C805.941 1225.03 805.743 1228.57 805.168 1232.79C804.017 1241.24 801.355 1252.44 795.322 1263.45C789.292 1274.44 779.891 1285.25 765.247 1292.94C750.6 1300.64 730.675 1305.23 703.572 1303.73C649.279 1300.73 599.812 1287.42 567.808 1269.06C551.801 1259.88 540.214 1249.47 534.545 1238.51C528.895 1227.59 529.102 1216.09 536.747 1204.6L537.24 1203.86L536.351 1203.82H536.35C536.348 1203.82 536.346 1203.82 536.343 1203.82C536.336 1203.82 536.325 1203.82 536.312 1203.82C536.284 1203.82 536.241 1203.82 536.185 1203.81C536.07 1203.8 535.898 1203.79 535.671 1203.77C535.217 1203.73 534.544 1203.65 533.675 1203.52C531.937 1203.25 529.418 1202.75 526.307 1201.83C520.085 1199.99 511.495 1196.46 502.056 1189.69C483.186 1176.17 460.875 1149.71 447.335 1097.92C433.783 1046.07 431.182 1000.5 435.942 965.783C438.323 948.425 442.541 933.797 448.141 922.463C453.742 911.125 460.708 903.116 468.562 898.939L468.928 898.745L468.806 898.351L468.328 898.498C468.806 898.351 468.805 898.35 468.805 898.349C468.804 898.348 468.804 898.346 468.804 898.344C468.802 898.339 468.8 898.332 468.797 898.322C468.791 898.303 468.782 898.273 468.771 898.234C468.747 898.156 468.712 898.039 468.666 897.883C468.575 897.571 468.442 897.107 468.273 896.496C467.937 895.275 467.459 893.469 466.901 891.138C465.785 886.475 464.343 879.708 463.043 871.302C460.443 854.488 458.411 831.12 460.683 804.907C465.225 752.489 486.971 688.707 555.797 643.145L556.146 642.913L555.979 642.528L555.979 642.527C555.978 642.527 555.978 642.526 555.978 642.524C555.976 642.521 555.974 642.517 555.972 642.511C555.966 642.498 555.958 642.479 555.947 642.453C555.926 642.402 555.893 642.324 555.851 642.222C555.766 642.016 555.643 641.708 555.486 641.303C555.173 640.491 554.73 639.288 554.213 637.729C553.178 634.609 551.846 630.063 550.662 624.367C548.293 612.974 546.516 596.987 548.88 578.616C553.604 541.9 574.879 495.579 641.254 457.341L641.475 457.214L641.502 456.962V456.961C641.502 456.96 641.503 456.958 641.503 456.955C641.504 456.95 641.505 456.941 641.506 456.93C641.509 456.907 641.512 456.872 641.519 456.825C641.531 456.731 641.551 456.589 641.579 456.401C641.636 456.026 641.728 455.468 641.871 454.743C642.157 453.292 642.642 451.171 643.443 448.505C645.046 443.172 647.91 435.655 652.949 426.946C663.026 409.532 681.815 387.332 716.664 368.284Z" stroke="url(#paint1_linear_152_459)"/>
<path d="M1011.3 349.837C1030.91 346.022 1057.73 350.38 1090.49 368.284C1125.34 387.332 1144.13 409.532 1154.21 426.946C1159.25 435.655 1162.11 443.172 1163.71 448.505C1164.51 451.171 1165 453.292 1165.28 454.743C1165.43 455.468 1165.52 456.026 1165.58 456.401C1165.6 456.589 1165.62 456.731 1165.64 456.825C1165.64 456.872 1165.65 456.907 1165.65 456.93C1165.65 456.941 1165.65 456.95 1165.65 456.955C1165.65 456.958 1165.65 456.96 1165.65 456.961V456.962L1165.68 457.214L1165.9 457.341C1232.28 495.579 1253.55 541.9 1258.28 578.616C1260.64 596.987 1258.86 612.974 1256.49 624.367C1255.31 630.063 1253.98 634.609 1252.94 637.729C1252.43 639.288 1251.98 640.491 1251.67 641.303C1251.51 641.708 1251.39 642.016 1251.3 642.222C1251.26 642.324 1251.23 642.402 1251.21 642.453C1251.2 642.479 1251.19 642.498 1251.18 642.511C1251.18 642.517 1251.18 642.521 1251.18 642.524C1251.18 642.526 1251.18 642.527 1251.18 642.527V642.528L1251.01 642.913L1251.36 643.145C1320.18 688.707 1341.93 752.489 1346.47 804.907C1348.74 831.12 1346.71 854.488 1344.11 871.302C1342.81 879.708 1341.37 886.475 1340.25 891.138C1339.7 893.469 1339.22 895.275 1338.88 896.496C1338.71 897.107 1338.58 897.571 1338.49 897.883C1338.44 898.039 1338.41 898.156 1338.38 898.234C1338.37 898.273 1338.36 898.303 1338.36 898.322C1338.36 898.332 1338.35 898.339 1338.35 898.344C1338.35 898.346 1338.35 898.347 1338.35 898.349C1338.35 898.35 1338.35 898.352 1338.83 898.498L1338.35 898.351L1338.23 898.745L1338.59 898.939C1346.45 903.116 1353.41 911.125 1359.01 922.463C1364.61 933.797 1368.83 948.425 1371.21 965.783C1375.97 1000.5 1373.37 1046.07 1359.82 1097.92C1346.28 1149.71 1323.97 1176.17 1305.1 1189.69C1295.66 1196.46 1287.07 1199.99 1280.85 1201.83C1277.74 1202.75 1275.22 1203.25 1273.48 1203.52C1272.61 1203.65 1271.94 1203.73 1271.48 1203.77C1271.26 1203.79 1271.08 1203.8 1270.97 1203.81C1270.91 1203.82 1270.87 1203.82 1270.84 1203.82C1270.83 1203.82 1270.82 1203.82 1270.81 1203.82C1270.81 1203.82 1270.81 1203.82 1270.8 1203.82H1270.8L1269.91 1203.86L1270.41 1204.6C1278.05 1216.09 1278.26 1227.59 1272.61 1238.51C1266.94 1249.47 1255.35 1259.88 1239.35 1269.06C1207.34 1287.42 1157.87 1300.73 1103.58 1303.73C1076.48 1305.23 1056.55 1300.64 1041.91 1292.94C1027.26 1285.25 1017.86 1274.44 1011.83 1263.45C1005.8 1252.44 1003.14 1241.24 1001.99 1232.79C1001.41 1228.57 1001.21 1225.03 1001.16 1222.56C1001.13 1221.32 1001.14 1220.34 1001.16 1219.68C1001.17 1219.35 1001.17 1219.1 1001.18 1218.93C1001.19 1218.84 1001.19 1218.78 1001.19 1218.74C1001.19 1218.72 1001.19 1218.7 1001.19 1218.69C1001.19 1218.68 1001.19 1218.68 1001.19 1218.68V1218.67V1218.67L1001.23 1218.14L1000.69 1218.14C953.357 1218.61 934.404 1204.31 927.192 1190.11C923.575 1182.99 922.878 1175.83 923.089 1170.44C923.194 1167.75 923.527 1165.5 923.832 1163.93C923.985 1163.15 924.13 1162.53 924.237 1162.11C924.291 1161.9 924.335 1161.74 924.365 1161.64C924.38 1161.58 924.392 1161.54 924.399 1161.52C924.403 1161.51 924.406 1161.5 924.408 1161.49C924.409 1161.49 924.41 1161.48 924.41 1161.48L924.411 1161.48L924.434 1161.41V457.821C924.434 412.12 937.136 392.969 949.646 385.178C955.914 381.275 962.183 380.189 966.89 380.08C969.242 380.026 971.202 380.215 972.57 380.418C973.254 380.519 973.79 380.624 974.152 380.702C974.334 380.741 974.473 380.775 974.564 380.798C974.61 380.809 974.644 380.817 974.666 380.823C974.677 380.826 974.685 380.829 974.69 380.83C974.693 380.831 974.695 380.831 974.696 380.831L974.697 380.832L975.182 380.966L975.313 380.479C979.319 365.621 991.716 353.649 1011.3 349.837Z" stroke="url(#paint2_linear_152_459)"/>
<path d="M832.33 378.844H832.332L832.485 378.853C833.241 378.934 833.827 379.575 833.823 380.352C833.819 381.177 833.148 381.844 832.323 381.844H832.284C831.357 381.844 822.43 381.967 813.195 386.46C803.931 390.967 794.373 399.87 792.271 417.36C790.398 432.94 795.339 445.249 806.979 453.863C815.715 460.328 825.06 462.188 825.192 462.214H825.193C826.006 462.371 826.538 463.156 826.382 463.97V463.972C826.246 464.689 825.618 465.187 824.914 465.188C824.821 465.188 824.725 465.179 824.629 465.16H824.627C824.456 465.127 814.394 463.072 804.992 456.022C795.618 448.993 786.891 436.999 789.294 417.002C791.567 398.089 802.154 388.571 812.257 383.759C822.387 378.934 832.036 378.844 832.33 378.844Z" stroke="url(#paint3_linear_152_459)"/>
<path d="M640.568 462.875C641.017 462.179 641.946 461.977 642.643 462.427C643.338 462.876 643.538 463.804 643.09 464.501L643.088 464.504C643.003 464.637 640.957 467.902 639.539 472.479C638.123 477.05 637.31 483.012 639.806 488.476C643.39 496.325 652.825 501.295 667.543 503.423C676.065 504.655 684.88 505.464 693.39 506.245C713.486 508.09 732.909 509.879 748.296 516.818C755.976 520.282 762.637 525.024 767.863 531.688C773.09 538.353 776.902 546.965 778.853 558.197C781.972 576.167 775.469 585.699 769.538 590.538C762.751 596.071 753.227 598.411 743.553 598.411C735.733 598.411 727.855 596.883 721.315 594.314C711.942 590.633 706.31 585.287 705.544 579.772C705.43 578.952 706.002 578.194 706.823 578.08H706.824C707.641 577.966 708.4 578.539 708.515 579.359C708.834 581.657 710.349 583.923 712.729 585.984C715.116 588.052 718.418 589.954 722.412 591.522C729.314 594.233 737.742 595.741 745.872 595.411C753.997 595.081 761.879 592.913 767.64 588.214C775.452 581.841 778.177 571.862 775.895 558.711C774.051 548.096 770.372 539.897 765.263 533.521C760.154 527.145 753.637 522.617 746.156 519.315C731.22 512.724 712.378 511.001 693.114 509.232C684.549 508.446 675.708 507.633 667.113 506.391C651.044 504.068 641.025 498.399 637.065 489.7C634.258 483.533 635.018 476.993 636.557 471.88C637.902 467.41 639.828 464.079 640.408 463.132L640.568 462.875Z" stroke="url(#paint4_linear_152_459)"/>
<path d="M611.082 648.977C634.445 637.868 653.87 636.363 667.365 644.365C678.445 650.937 684.908 663.95 685.935 682.148C686.604 694.021 683.582 702.851 678.807 709.089C674.027 715.332 667.464 719.014 661 720.543C658.424 721.151 655.869 721.442 653.42 721.442C645.199 721.442 638.298 718.185 635.666 712.873L635.425 712.353C635.096 711.592 635.446 710.709 636.206 710.38C636.92 710.071 637.74 710.36 638.111 711.024L638.179 711.162C639.481 714.174 642.673 716.345 646.649 717.483C650.641 718.627 655.508 718.759 660.309 717.623C663.16 716.948 669.205 714.979 674.348 709.733C679.507 704.472 683.71 695.964 682.939 682.316C681.982 665.329 676.111 653.039 665.835 646.944C653.283 639.5 634.26 641.279 612.37 651.686C591.783 661.473 578.266 660.955 569.866 657.957C562.508 655.331 559.001 650.774 558.08 649.404L557.84 649.027C557.42 648.314 557.659 647.395 558.374 646.976L558.375 646.975C559.084 646.556 560 646.792 560.422 647.501L560.424 647.505C560.705 647.97 563.837 652.889 571.702 655.405C579.573 657.923 592.09 658.006 611.082 648.977Z" stroke="url(#paint5_linear_152_459)"/>
<path d="M595.494 713.12C596.225 712.733 597.132 713.011 597.52 713.743C597.907 714.475 597.629 715.383 596.897 715.771C596.733 715.858 589.652 719.685 581.666 726.949C573.683 734.211 564.76 744.94 560.973 758.834C556.527 775.142 559.952 792.596 571.059 810.682C582.101 828.661 595.715 839.126 611.544 841.658C614.126 842.071 616.689 842.258 619.207 842.259C631.206 842.259 642.268 838.019 650.341 833.773C658.417 829.526 663.538 825.252 663.668 825.143C664.26 824.641 665.13 824.679 665.677 825.205L665.781 825.316C666.317 825.948 666.24 826.896 665.609 827.431H665.608C665.149 827.822 659.812 832.286 651.471 836.651C643.124 841.019 631.8 845.271 619.359 845.272C616.651 845.272 613.893 845.072 611.098 844.626C594.425 841.968 580.087 831.117 568.503 812.254C556.892 793.348 553.416 775.108 558.087 758.014C562.044 743.529 571.086 732.465 579.311 724.933C586.506 718.343 593.055 714.477 594.969 713.407L595.494 713.12Z" stroke="url(#paint6_linear_152_459)"/>
<path d="M719.377 758.068C719.859 757.975 731.872 755.707 747.217 758.49C761.431 761.068 781.184 768.667 794.679 790.229C818.83 828.817 809.575 853.259 807.938 856.924L807.725 857.378C807.46 857.899 806.933 858.2 806.385 858.2C806.158 858.2 805.927 858.148 805.708 858.037C804.969 857.662 804.674 856.76 805.049 856.021L805.05 856.019C805.233 855.652 816.812 831.246 792.136 791.82C779.784 772.085 761.841 764.36 746.952 761.582C732.074 758.806 720.217 760.962 719.949 761.014H719.948C719.133 761.172 718.349 760.639 718.192 759.827H718.191C718.034 759.015 718.565 758.228 719.378 758.069L719.377 758.068Z" stroke="url(#paint7_linear_152_459)"/>
<path d="M634.477 891.325C655.381 882.235 682.696 886.964 715.752 905.62C731.198 914.338 743.027 923.153 751.204 931.994C759.38 940.835 763.883 949.678 764.73 958.465C766.028 971.928 758.398 981.885 751.4 988.055L750.726 988.64C750.442 988.881 750.097 988.999 749.753 988.999C749.381 988.999 749.013 988.862 748.728 988.595L748.61 988.473C748.074 987.843 748.148 986.895 748.778 986.357C755.32 980.779 762.966 971.421 761.744 958.754C760.946 950.48 756.396 941.986 748.41 933.506C740.422 925.024 728.964 916.523 714.277 908.233C682.281 890.175 655.803 885.324 635.672 894.075C624.078 899.115 616.721 907.893 612.26 915.42C607.799 922.946 606.214 929.252 606.177 929.407C605.995 930.162 605.272 930.643 604.518 930.541L604.367 930.513C603.562 930.319 603.067 929.509 603.261 928.703C603.521 927.625 609.972 901.978 634.477 891.325Z" stroke="url(#paint8_linear_152_459)"/>
<path d="M851.727 930.938C864.648 929.147 872.797 931.593 877.733 934.508C882.676 937.427 884.448 940.845 884.561 941.071V941.072C884.908 941.767 884.666 942.602 884.022 943.009L883.889 943.084C883.151 943.453 882.254 943.156 881.882 942.423L881.879 942.418L881.746 942.183C881.262 941.376 879.519 938.858 875.571 936.71C871.056 934.254 863.702 932.309 852.139 933.91C842.123 935.298 835.268 939.049 830.678 945.76C825.647 953.113 823.319 964.269 823.61 979.353C823.902 994.448 826.821 1013.55 832.357 1036.85C837.05 1056.6 836.527 1073.52 830.864 1087.18C825.92 1099.11 817.271 1107.85 805.853 1112.49C800.017 1114.85 793.911 1115.98 787.865 1115.98C771.125 1115.98 754.837 1107.32 745.884 1092.32C745.486 1091.65 745.666 1090.8 746.275 1090.35L746.403 1090.26C747.115 1089.84 748.036 1090.07 748.46 1090.78C759.899 1109.95 784.084 1118.08 804.725 1109.7C816.696 1104.84 824.99 1095.64 829.227 1083.22C833.458 1070.81 833.638 1055.21 829.439 1037.54C823.694 1013.36 820.735 993.845 820.544 978.435C820.353 963.017 822.932 951.767 828.201 944.064C833.277 936.643 840.72 932.462 851.727 930.938Z" stroke="url(#paint9_linear_152_459)"/>
<path d="M482.807 887.547C488.216 884.881 495.469 882.717 503.239 884.359C513.947 886.623 522.905 895.549 529.798 911.112C533.757 920.051 537.597 930.51 541.671 941.604C550.158 964.721 559.81 991.021 572.995 1009.12C580.385 1019.26 588.361 1026.06 597.055 1029.49C605.757 1032.93 615.128 1032.98 625.265 1029.73C642.311 1024.26 652.609 1016.1 655.592 1005.36C657.992 996.712 655.214 987.83 651.873 981.142C648.527 974.443 644.57 969.854 644.474 969.744H644.475C643.929 969.121 643.993 968.174 644.615 967.628C645.237 967.082 646.183 967.144 646.73 967.767C647.069 968.152 651.319 973.067 654.827 980.241C658.34 987.425 661.074 996.799 658.487 1006.14V1006.14C655.262 1017.79 644.479 1026.72 626.182 1032.59C620.687 1034.35 615.549 1035.16 610.736 1035.17C591.865 1035.17 577.753 1022.61 566.401 1004.68C555.052 986.753 546.547 963.594 538.854 942.639C534.806 931.616 530.977 921.183 527.055 912.327C520.663 897.894 512.474 889.39 502.644 887.301C495.574 885.799 488.841 887.921 483.893 890.399C478.946 892.877 475.723 895.739 475.632 895.821C475.017 896.376 474.069 896.329 473.514 895.716C472.992 895.14 473 894.272 473.508 893.707L473.616 893.599C473.884 893.355 477.4 890.212 482.807 887.547Z" stroke="url(#paint10_linear_152_459)"/>
<path d="M619.179 1127.05C619.962 1126.77 620.816 1127.18 621.093 1127.96C621.37 1128.74 620.962 1129.6 620.182 1129.88C619.632 1130.07 572.954 1147.19 541.956 1201.01V1201.01C541.679 1201.49 541.174 1201.76 540.654 1201.76C540.402 1201.76 540.144 1201.7 539.909 1201.56L539.908 1201.56L539.778 1201.48C539.161 1201.03 538.968 1200.18 539.355 1199.51L539.356 1199.51C570.965 1144.63 618.752 1127.2 619.18 1127.05L619.179 1127.05Z" stroke="url(#paint11_linear_152_459)"/>
<path d="M689.182 1110.52C689.821 1110 690.766 1110.09 691.292 1110.72C691.786 1111.32 691.738 1112.19 691.204 1112.73L691.092 1112.84C690.959 1112.95 685.654 1117.4 680.277 1124.67C674.901 1131.94 669.417 1142.07 669.022 1153.53C668.596 1165.91 674.164 1177.63 685.468 1188.37C700.26 1202.42 718.001 1199.82 736.467 1197.14C757.561 1194.07 781.223 1190.66 803.134 1212.07C803.726 1212.65 803.737 1213.6 803.158 1214.19L803.157 1214.19C802.865 1214.49 802.476 1214.64 802.086 1214.64C801.707 1214.64 801.329 1214.5 801.037 1214.22C780.156 1193.81 758.041 1197.04 736.898 1200.11C717.364 1202.94 699.201 1205.55 683.401 1190.54C671.375 1179.12 665.562 1166.63 666.025 1153.4C666.449 1141.32 671.994 1130.8 677.576 1123.18C683.152 1115.56 688.735 1110.89 689.182 1110.52Z" stroke="url(#paint12_linear_152_459)"/>
<path d="M972.479 385.622C972.865 384.89 973.77 384.608 974.505 384.991C975.238 385.376 975.521 386.283 975.137 387.017V387.018C975.055 387.175 971.609 393.867 969.182 403.368C966.755 412.864 965.33 425.229 969.359 436.686C973.34 448.003 982.006 456.622 995.042 462.318C1021.34 473.81 1041.51 463.905 1049.78 448.852C1056.43 436.757 1054.53 423.718 1044.94 417.256C1044.25 416.793 1044.07 415.86 1044.53 415.174C1044.99 414.487 1045.92 414.305 1046.61 414.768C1057.45 422.065 1059.92 436.634 1052.41 450.295C1046.19 461.629 1033.76 470.358 1017.22 470.358L1016.56 470.354C1009.87 470.261 1002.52 468.747 994.632 465.407L993.841 465.066C979.942 458.993 970.772 449.767 966.521 437.66C962.3 425.639 963.626 412.925 966.104 403.042C968.27 394.4 971.307 387.965 972.225 386.123L972.479 385.622Z" stroke="url(#paint13_linear_152_459)"/>
<path d="M1165.08 464.341C1165.92 464.273 1166.63 464.888 1166.7 465.715C1167.34 473.602 1165.41 479.693 1160.87 484.412C1156.19 489.263 1148.7 492.686 1137.92 494.697C1127.15 496.707 1113.15 497.297 1095.53 496.524C1078.15 495.761 1065.97 499.658 1059.55 508.3C1054.74 514.765 1054.01 522.801 1054.46 529.188C1054.91 535.581 1056.55 540.403 1056.59 540.525V540.526C1056.85 541.26 1056.5 542.057 1055.81 542.38L1055.67 542.438C1055.5 542.494 1055.34 542.52 1055.18 542.521C1054.55 542.521 1053.98 542.133 1053.76 541.515C1053.62 541.108 1051.83 535.873 1051.4 528.97C1050.98 522.059 1051.91 513.543 1057.14 506.509C1064.11 497.135 1077.01 492.708 1095.66 493.526C1112.47 494.263 1126.03 493.729 1136.48 491.888C1146.91 490.049 1154.31 486.895 1158.71 482.33C1162.65 478.236 1164.27 472.852 1163.71 465.957C1163.65 465.183 1164.18 464.499 1164.93 464.361L1165.08 464.341Z" stroke="url(#paint14_linear_152_459)"/>
<path d="M970.985 539.111C980.037 538.673 989.16 543.936 998.123 554.969C1010.22 569.855 1012.03 589.889 1002.91 608.596C994.877 625.073 980.508 635.927 967.121 635.928C966.966 635.928 966.816 635.927 966.664 635.924H966.663C965.835 635.908 965.177 635.225 965.192 634.396C965.207 633.578 965.876 632.924 966.69 632.924L966.705 632.925H966.72C972.888 633.039 979.407 630.429 985.298 625.908C991.192 621.384 996.488 614.925 1000.21 607.281C1008.78 589.701 1007.15 570.84 995.795 556.861C987.734 546.939 979.571 541.896 971.542 542.093L971.159 542.106C965.648 542.361 961.133 545.1 958.009 547.754C955.663 549.746 954.076 551.71 953.408 552.6L953.053 553.092C952.593 553.779 951.661 553.965 950.973 553.506L950.85 553.415C950.303 552.964 950.147 552.187 950.478 551.561L950.556 551.429C950.704 551.206 952.692 548.266 956.213 545.311C959.736 542.353 964.759 539.409 970.985 539.111Z" stroke="url(#paint15_linear_152_459)"/>
<path d="M1100.11 556.953H1100.12L1101.06 556.962C1110.6 557.129 1117.33 559.757 1121.19 564.653C1126.26 571.078 1124.45 579.027 1124.37 579.353H1124.37C1124.18 580.161 1123.37 580.659 1122.57 580.464H1122.56C1121.76 580.273 1121.26 579.466 1121.45 578.662H1121.45L1121.45 578.655C1121.47 578.576 1121.85 576.853 1121.71 574.499C1121.57 572.143 1120.9 569.116 1118.81 566.478C1115.33 562.103 1108.98 559.96 1100.12 559.953H1100.11L1099.6 559.961C1094.35 560.13 1089.2 562.911 1084.81 567.494C1080.28 572.229 1076.54 578.919 1074.32 586.775C1068.49 607.409 1072.96 636.008 1102.92 654.385C1123.76 667.168 1143.61 670.655 1160.27 664.312C1171.28 660.125 1177.61 652.903 1179.08 651.078L1179.42 650.651C1179.87 650.024 1180.73 649.854 1181.38 650.234L1181.51 650.318C1182.18 650.805 1182.33 651.739 1181.85 652.409V652.41C1181.59 652.763 1174.9 661.885 1161.55 667.035V667.036C1156.66 668.925 1150.46 670.394 1143.01 670.394C1131.87 670.393 1117.91 667.1 1101.35 656.943C1087.34 648.349 1077.39 636.51 1072.54 622.717C1068.44 611.018 1068.04 597.961 1071.43 585.96C1076.38 568.481 1087.97 556.953 1100.11 556.953Z" stroke="url(#paint16_linear_152_459)"/>
<path d="M1085.84 732.162C1086.34 731.499 1087.28 731.367 1087.94 731.863H1087.94C1088.6 732.361 1088.73 733.301 1088.24 733.963L1088.24 733.965C1088.12 734.126 1077.37 748.603 1073.02 767.734C1070.14 780.41 1070.6 792.065 1074.4 802.608C1078.21 813.151 1085.35 822.549 1095.76 830.732C1116.68 847.175 1137.16 852.265 1156.6 845.698C1171.02 840.825 1179.36 831.09 1179.49 830.942L1179.49 830.941C1180.02 830.31 1180.97 830.231 1181.6 830.765C1182.19 831.265 1182.3 832.128 1181.87 832.756L1181.78 832.878C1181.44 833.282 1172.78 843.395 1157.56 848.54C1152.7 850.182 1146.83 851.396 1140.11 851.396C1127.45 851.396 1111.7 847.081 1093.9 833.09C1066.63 811.65 1065.92 785.307 1070.12 766.944C1074.64 747.222 1085.39 732.759 1085.84 732.161L1085.84 732.162Z" stroke="url(#paint17_linear_152_459)"/>
<path d="M1245.2 648.597C1245.48 647.821 1246.34 647.419 1247.12 647.697C1247.9 647.979 1248.3 648.83 1248.02 649.605C1247.79 650.262 1240.86 668.953 1205.24 679.64C1192.38 683.496 1183.29 694.444 1180.23 709.586C1176.31 729.054 1182.69 757.174 1205.76 776.188C1222.71 790.16 1240.7 793.316 1253.82 784.298V784.297C1262.59 778.267 1266.73 767.918 1263.77 759.087V759.086C1263.51 758.301 1263.93 757.451 1264.72 757.188L1264.72 757.187C1265.46 756.941 1266.25 757.298 1266.56 757.99L1266.62 758.134C1269.97 768.148 1265.45 779.938 1255.52 786.771C1250.04 790.541 1243.79 792.399 1237.16 792.399C1226.61 792.4 1215.03 787.716 1203.85 778.504C1179.81 758.688 1173.2 729.297 1177.29 708.993C1180.59 692.652 1190.48 680.937 1204.37 676.767C1238.18 666.625 1245.08 648.915 1245.2 648.597Z" stroke="url(#paint18_linear_152_459)"/>
<path d="M1296.54 891.608C1306.42 887.074 1319.35 888.808 1336.16 897.152C1336.9 897.521 1337.21 898.421 1336.84 899.163C1336.47 899.904 1335.57 900.207 1334.83 899.84C1319.3 892.137 1306.8 890.199 1297.79 894.334C1291.29 897.315 1286.97 903.092 1283.82 909.924C1280.66 916.752 1278.63 924.703 1276.74 932.104C1276.19 934.259 1275.66 936.35 1275.11 938.332C1271.99 949.731 1262.36 971.986 1248.1 991.384C1233.82 1010.81 1215.02 1027.21 1193.57 1027.21L1193.32 1027.21H1193.32C1180.57 1027.13 1170.88 1023.51 1164.41 1016.53L1163.8 1015.84C1158.74 1010.02 1156.72 1003.06 1155.97 997.453C1155.32 992.546 1155.65 988.698 1155.77 987.599L1155.81 987.301C1155.92 986.479 1156.68 985.902 1157.49 986.015L1157.5 986.016C1158.32 986.127 1158.89 986.881 1158.78 987.701C1158.76 987.844 1158.29 991.715 1158.95 996.869C1159.62 1002.05 1161.44 1008.57 1166.08 1013.9C1172 1020.7 1181.21 1024.14 1193.34 1024.21H1193.57C1213.24 1024.21 1231.17 1008.82 1245 990.402C1258.85 971.961 1268.72 950.329 1272.22 937.54C1272.76 935.569 1273.29 933.492 1273.83 931.361C1275.74 923.897 1277.87 915.578 1281.31 908.299C1284.75 901.023 1289.47 894.848 1296.54 891.608Z" stroke="url(#paint19_linear_152_459)"/>
<path d="M991.427 932.828C1006.57 921.313 1024.55 918.624 1044.92 924.882C1061.13 929.862 1074.21 939.064 1080.52 943.505C1081.59 944.259 1082.74 945.07 1083.27 945.389V945.454H1083.28V945.392C1083.32 945.418 1083.36 945.443 1083.4 945.462L1083.45 945.488L1083.5 945.503C1084.18 945.699 1084.64 946.358 1084.58 947.088C1084.5 947.914 1083.77 948.52 1082.94 948.438L1082.94 948.437L1082.82 948.422C1082.53 948.376 1082.23 948.26 1081.7 947.944C1081.09 947.576 1080.22 946.968 1078.79 945.958C1061.68 933.912 1045.92 926.952 1031.62 925.142C1017.3 923.329 1004.46 926.683 993.241 935.216C982.998 943.004 973.689 956.293 967.835 972.111C961.979 987.935 959.564 1006.33 963.152 1024.35C965.621 1036.74 971.29 1051.11 983.393 1064.23C995.308 1077.15 1013.43 1088.83 1040.82 1096.23L1042.13 1096.58C1042.93 1096.79 1043.41 1097.62 1043.2 1098.42C1043.02 1099.09 1042.41 1099.54 1041.75 1099.54C1041.62 1099.54 1041.5 1099.52 1041.37 1099.49H1041.37C1017.18 1093.13 997.845 1082.84 983.858 1068.91C971.532 1056.63 963.577 1041.84 960.211 1024.93C952.527 986.353 970.592 948.669 991.427 932.828Z" stroke="url(#paint20_linear_152_459)"/>
<path d="M1117.79 1113.28C1118.43 1112.75 1119.37 1112.83 1119.9 1113.47C1132.89 1129.1 1136.7 1142.36 1131.65 1153.01C1127.92 1160.86 1119.27 1167.07 1106.4 1171.27C1093.54 1175.46 1076.57 1177.62 1056.33 1177.43C1036.81 1177.24 1022.23 1181.8 1013.03 1191.06C1003.18 1200.97 1003.23 1212.94 1003.24 1213.11V1213.12C1003.25 1213.94 1002.59 1214.63 1001.76 1214.64H1001.73C1000.92 1214.64 1000.25 1213.99 1000.24 1213.17C1000.23 1212.67 1000.09 1199.87 1010.83 1189.02C1020.56 1179.18 1035.87 1174.23 1056.36 1174.43H1056.36C1075.56 1174.61 1091.94 1172.6 1104.39 1168.72C1116.82 1164.86 1125.43 1159.11 1128.94 1151.72C1133.53 1142.04 1129.56 1129.78 1117.6 1115.39H1117.6C1117.07 1114.75 1117.15 1113.81 1117.79 1113.28Z" stroke="url(#paint21_linear_152_459)"/>
<path d="M1192.4 1137.7V1137.7C1192.89 1137.76 1205.6 1139.28 1221.34 1147.84C1235.6 1155.59 1255.06 1170.83 1267.33 1199.53L1267.91 1200.91C1268.22 1201.67 1267.86 1202.55 1267.09 1202.87L1267.09 1202.87C1266.91 1202.94 1266.71 1202.98 1266.52 1202.98C1265.93 1202.98 1265.37 1202.63 1265.13 1202.05C1242.44 1147.13 1192.61 1140.75 1192.06 1140.68H1192.05C1191.23 1140.59 1190.64 1139.85 1190.74 1139.02C1190.83 1138.21 1191.58 1137.61 1192.4 1137.7Z" stroke="url(#paint22_linear_152_459)"/>
<path d="M1754.58 742.458C1798.67 741.102 1923.13 744.082 1959.22 745C1964.86 745.144 1969.47 749.561 1969.83 755.191C1971.93 787.802 1965.74 854.602 1963.2 879.785C1962.64 885.385 1958.17 889.782 1952.56 890.252C1903.79 894.337 1797.29 892.537 1759.4 891.727H1759.4C1751.79 891.564 1745.63 885.509 1745.31 877.898C1743.75 840.116 1745.71 773.65 1746.48 750.534C1746.63 746.125 1750.17 742.594 1754.58 742.458Z" stroke="url(#paint23_linear_152_459)"/>
<path d="M1783.8 750.296C1820.14 749.057 1918.43 753.1 1947.99 754.382C1952.85 754.593 1956.74 758.456 1957.01 763.313C1958.47 790.51 1953.39 851.19 1951.25 874.847C1950.75 880.311 1946.27 884.556 1940.79 884.736C1904.87 885.923 1813.35 881.202 1783.19 879.558C1777.66 879.256 1773.19 874.919 1772.75 869.397C1770.21 837.381 1773.06 781.362 1774.36 759.5C1774.66 754.45 1778.75 750.468 1783.8 750.296Z" stroke="url(#paint24_linear_152_459)"/>
<path d="M1683.84 675.356L1680.95 475.189C1680.95 473.577 1681.92 471.082 1683.85 469.047C1685.76 467.031 1688.58 465.511 1692.22 465.759L1692.25 465.76H1692.27L2032.69 456.95C2037 456.839 2041.17 458.498 2044.22 461.539C2047.27 464.58 2048.94 468.737 2048.84 473.041L2044.05 675.352V675.363C2044.05 678.626 2041.38 681.299 2038.11 681.299H1689.79C1686.52 681.299 1683.84 678.626 1683.84 675.363L1683.84 675.356Z" stroke="url(#paint25_linear_152_459)"/>
<path d="M1692.59 669.182L1689.86 487.484C1690.02 482.181 1692.41 478.603 1695.46 476.367C1698.52 474.118 1702.26 473.223 1705.06 473.335L1705.08 473.336L1705.09 473.335L2031.37 464.582C2034.35 464.502 2037.24 465.652 2039.36 467.762C2041.47 469.872 2042.63 472.758 2042.55 475.745L2037.7 669.177V669.189C2037.7 672.265 2035.18 674.783 2032.1 674.783H1698.19C1695.11 674.783 1692.59 672.265 1692.59 669.189V669.182Z" stroke="url(#paint26_linear_152_459)"/>
<path d="M1695.47 566.727C1695.7 566.727 1695.92 566.906 1695.97 567.124L1695.98 567.22L1696.2 581.956C1696.2 582.232 1695.98 582.459 1695.71 582.464H1695.7C1695.46 582.464 1695.26 582.296 1695.21 582.07L1695.2 581.971L1694.98 567.234C1694.98 566.96 1695.2 566.733 1695.47 566.727Z" stroke="url(#paint27_linear_152_459)"/>
<path d="M1708.21 477.693C1708.03 477.689 1706.44 477.643 1704.43 478.047C1702.42 478.451 1699.93 479.316 1697.99 481.173H1697.99C1696.03 483.05 1694.99 485.621 1694.86 488.772L1694.84 489.41V489.42L1695.67 545.844C1695.67 546.118 1695.46 546.343 1695.18 546.351C1695.18 546.35 1695.17 546.351 1695.17 546.351C1694.93 546.351 1694.73 546.183 1694.68 545.957L1694.67 545.857L1693.84 489.425C1693.86 485.611 1695.04 482.616 1697.3 480.45C1699.32 478.517 1701.85 477.566 1704 477.104C1706.14 476.644 1707.85 476.681 1708.18 476.695L1708.2 476.696L1708.22 476.695L1812.38 473.899H1812.39C1812.65 473.886 1812.88 474.096 1812.89 474.386V474.387C1812.89 474.663 1812.68 474.891 1812.4 474.898H1812.4L1708.21 477.693Z" stroke="url(#paint28_linear_152_459)"/>
<path opacity="0.13" d="M2015.87 478.274C2019.07 478.015 2021.6 479.009 2023.62 481.291C2025.66 483.602 2027.2 487.267 2028.29 492.393C2030.48 502.641 2030.84 518.476 2030.17 540.241C2029.17 572.937 2027.49 626.798 2026.73 651.567C2026.5 658.673 2020.7 664.311 2013.59 664.33C1957.83 664.483 1744.08 665.096 1729.85 665.521C1721.65 665.765 1715.93 665.521 1712.28 664.5C1710.46 663.991 1709.2 663.304 1708.42 662.436C1707.64 661.582 1707.27 660.506 1707.3 659.122C1707.65 644.106 1707.52 511.084 1706.66 499.567C1706.46 496.85 1707.35 494.709 1709.23 492.974C1711.13 491.216 1714.05 489.856 1717.92 488.797C1725.65 486.678 1736.94 485.817 1750.68 485.17C1764.4 484.524 1829.2 482.921 1891.32 481.42C1953.41 479.919 2012.87 478.518 2015.87 478.274Z" stroke="url(#paint29_linear_152_459)"/>
<path d="M1666.4 681.328H2068.56C2070.62 681.328 2072.31 683.017 2072.31 685.079V694.165C2072.31 696.228 2070.62 697.916 2068.56 697.916H1666.4C1664.34 697.916 1662.65 696.227 1662.65 694.165V685.079C1662.65 683.082 1664.23 681.434 1666.21 681.333L1666.4 681.328Z" stroke="url(#paint30_linear_152_459)"/>
<path d="M1900.21 1154.91L1913.04 1231.04H1814.42L1822.91 1154.91H1900.21Z" stroke="url(#paint31_linear_152_459)"/>
<path d="M1673.92 945.415C1735.29 944.037 1974.48 949.528 2028.54 951.257C2038.05 951.561 2045.99 958.597 2047.46 968.007C2054.57 1013.76 2052.65 1112.38 2051.46 1153.44C2051.16 1163.72 2042.83 1171.95 2032.54 1172.11C1971.14 1173.01 1745.5 1168.98 1680.99 1167.32C1666.73 1166.95 1655.37 1155.29 1655.37 1141.03V964.391C1655.37 954.074 1663.6 945.648 1673.92 945.415Z" stroke="url(#paint32_linear_152_459)"/>
<path d="M1678.21 952.066H1678.21L2028.83 959.147V959.148C2034.39 959.284 2038.86 963.704 2039.11 969.2L2039.12 969.735L2038.55 1136.05C2038.52 1144.18 2031.86 1150.73 2023.72 1150.61H2023.72L1681.25 1146.38H1681.25C1673.04 1146.25 1666.45 1139.56 1666.45 1131.35V963.535C1666.45 957.089 1671.76 951.909 1678.21 952.066Z" stroke="url(#paint33_linear_152_459)"/>
<path d="M1665.95 1150.6L1665.96 1150.6L2041.64 1157C2041.91 1157.01 2042.13 1157.24 2042.13 1157.51C2042.13 1157.78 2041.9 1158 2041.63 1158H2041.62L1665.95 1151.6C1665.67 1151.6 1665.45 1151.37 1665.45 1151.09C1665.46 1150.81 1665.7 1150.59 1665.95 1150.6Z" stroke="url(#paint34_linear_152_459)"/>
<path d="M1857.5 1157.01C1859.93 1157.01 1861.9 1158.99 1861.9 1161.42C1861.9 1163.85 1859.92 1165.83 1857.5 1165.83C1855.06 1165.83 1853.09 1163.85 1853.09 1161.42C1853.09 1158.99 1855.06 1157.01 1857.5 1157.01ZM1857.5 1158.01C1855.61 1158.01 1854.09 1159.54 1854.09 1161.42C1854.09 1163.3 1855.62 1164.83 1857.5 1164.83C1859.38 1164.83 1860.9 1163.3 1860.9 1161.42C1860.9 1159.54 1859.38 1158.01 1857.5 1158.01Z" stroke="url(#paint35_linear_152_459)"/>
<path d="M1931.51 1226.2C1934.41 1226.11 1936.83 1227.65 1937.41 1229.67L1940.79 1241.48C1941.17 1242.8 1940.73 1244.11 1939.69 1245.12C1938.65 1246.13 1937.02 1246.82 1935.13 1246.82H1789.1C1787.24 1246.82 1785.63 1246.15 1784.58 1245.16C1783.55 1244.18 1783.08 1242.89 1783.41 1241.58L1785.28 1234.17C1785.76 1232.29 1787.84 1230.77 1790.48 1230.6L1790.74 1230.59L1931.51 1226.2Z" stroke="url(#paint36_linear_152_459)"/>
<path d="M1873.74 1231.04C1873.98 1231.04 1874.18 1231.21 1874.23 1231.43L1874.24 1231.53C1874.25 1231.77 1874.08 1231.98 1873.85 1232.03L1873.75 1232.04L1867.72 1232.13H1867.71C1867.44 1232.13 1867.22 1231.91 1867.21 1231.63C1867.21 1231.36 1867.43 1231.13 1867.7 1231.13L1867.7 1231.13L1873.74 1231.04H1873.74Z" stroke="url(#paint37_linear_152_459)"/>
<path d="M1858.54 1231.26C1858.79 1231.27 1859 1231.45 1859.05 1231.66L1859.06 1231.75C1859.07 1232.03 1858.85 1232.25 1858.57 1232.26L1794.59 1233.19C1792.14 1233.23 1790.07 1235.02 1789.68 1237.44V1237.44L1788.82 1242.83C1788.78 1243.08 1788.57 1243.25 1788.33 1243.25C1788.3 1243.25 1788.28 1243.25 1788.25 1243.25L1788.25 1243.25L1788.15 1243.22C1787.93 1243.14 1787.8 1242.91 1787.83 1242.68L1788.69 1237.29C1789.16 1234.38 1791.63 1232.24 1794.58 1232.19L1858.54 1231.26Z" stroke="url(#paint38_linear_152_459)"/>
<path d="M1083.08 446.438C1084.46 446.438 1085.58 447.557 1085.58 448.938V498.535C1085.58 508.754 1093.89 517.067 1104.11 517.067H1480.21C1492.86 517.067 1503.19 526.969 1503.72 539.612L1504.48 557.699C1504.88 567.373 1512.78 575.166 1522.46 575.446V575.447L1653.3 579.473C1654.68 579.515 1655.76 580.668 1655.72 582.048C1655.68 583.4 1654.57 584.469 1653.22 584.47C1653.19 584.47 1653.16 584.469 1653.14 584.469H1653.14L1522.31 580.443H1522.31C1510.03 580.09 1499.99 570.189 1499.48 557.907L1498.72 539.821C1498.3 529.867 1490.17 522.067 1480.21 522.067H1104.11C1091.14 522.067 1080.58 511.51 1080.58 498.535V448.938C1080.58 447.557 1081.7 446.438 1083.08 446.438Z" stroke="url(#paint39_linear_152_459)"/>
<path d="M1300.12 599.525C1335.79 599.497 1383.42 599.505 1432.24 599.531C1529.88 599.583 1632.27 599.704 1653.23 599.729C1654 599.73 1654.64 600.321 1654.72 601.077L1654.73 601.23C1654.72 602.058 1654.05 602.729 1653.23 602.729H1653.22C1651.19 602.726 1549.51 602.604 1447.56 602.543C1396.58 602.512 1345.53 602.497 1306.84 602.519C1287.49 602.529 1271.23 602.55 1259.61 602.582C1248.01 602.614 1241 602.659 1240.19 602.721L1240.17 602.723C1240.1 602.731 1240.04 602.734 1239.97 602.734C1239.24 602.734 1238.61 602.187 1238.51 601.422C1238.41 600.609 1239.01 599.848 1239.84 599.741C1239.84 599.741 1239.84 599.741 1239.85 599.74C1239.85 599.74 1239.86 599.738 1239.87 599.737C1239.89 599.736 1239.92 599.734 1239.96 599.732C1240.03 599.729 1240.12 599.725 1240.23 599.722C1240.47 599.714 1240.79 599.708 1241.19 599.701C1242 599.687 1243.14 599.674 1244.6 599.662C1247.52 599.638 1251.68 599.617 1256.94 599.6C1267.44 599.564 1282.29 599.54 1300.12 599.525Z" stroke="url(#paint40_linear_152_459)"/>
<path d="M1171.6 571.609C1178.41 570.221 1185.48 571.851 1191 576.082C1196.51 580.313 1199.92 586.719 1200.35 593.658L1205.51 677.171C1206.14 687.451 1215.01 695.443 1225.32 694.993L1516.55 682.224C1526.34 681.794 1534.32 673.79 1534.71 663.995L1535.42 646.53C1535.94 633.607 1546.48 623.487 1559.41 623.487H1653.22C1654.61 623.487 1655.72 624.606 1655.72 625.987C1655.72 627.368 1654.61 628.487 1653.22 628.487H1559.41C1549.17 628.487 1540.83 636.503 1540.42 646.732L1539.71 664.198C1539.21 676.562 1529.13 686.677 1516.77 687.219L1225.54 699.989C1225.19 700.004 1224.84 700.012 1224.49 700.012C1211.95 700.013 1201.3 690.109 1200.52 677.48L1195.36 593.967C1195.02 588.473 1192.32 583.4 1187.96 580.051C1183.59 576.702 1177.99 575.41 1172.59 576.509L1021.78 607.218L1021.78 607.219C1020.43 607.497 1019.11 606.622 1018.83 605.268C1018.56 603.914 1019.43 602.593 1020.78 602.317L1171.6 571.609Z" stroke="url(#paint41_linear_152_459)"/>
<path d="M1120.1 711.947H1120.11C1121.41 711.897 1122.48 712.874 1122.63 714.145L1122.65 714.402L1124.56 820.525C1124.81 834.168 1114.36 845.908 1100.78 847.246L1031.79 854.05C1020.77 855.137 1012.3 864.661 1012.52 875.736L1015.17 1011.43C1015.28 1017.39 1017.79 1022.88 1022.21 1026.87C1026.5 1030.75 1032 1032.68 1037.74 1032.35L1038.3 1032.31L1452.26 998.087C1459.58 997.481 1466.89 999.989 1472.29 1004.97C1477.7 1009.95 1480.8 1017.02 1480.8 1024.37V1027.46C1480.8 1039.24 1490.39 1048.83 1502.18 1048.83H1633.29C1634.67 1048.83 1635.79 1049.95 1635.79 1051.33C1635.79 1052.71 1634.67 1053.83 1633.29 1053.83H1502.18C1487.64 1053.83 1475.8 1042 1475.8 1027.46V1024.37C1475.8 1018.33 1473.35 1012.74 1468.91 1008.65C1464.46 1004.55 1458.69 1002.57 1452.67 1003.07L1038.71 1037.29C1031.37 1037.9 1024.33 1035.52 1018.86 1030.58C1013.4 1025.65 1010.31 1018.89 1010.17 1011.53L1007.52 875.835C1007.25 862.173 1017.7 850.417 1031.3 849.075L1100.29 842.271C1111.3 841.186 1119.76 831.675 1119.56 820.616L1117.65 714.492C1117.62 713.112 1118.72 711.972 1120.1 711.947Z" stroke="url(#paint42_linear_152_459)"/>
<path d="M960.82 768.93C967.491 763.099 976.308 760.697 985.013 762.344L1021.74 769.281C1023.1 769.537 1023.99 770.846 1023.74 772.201C1023.48 773.56 1022.17 774.453 1020.82 774.194H1020.82L984.086 767.256C977.125 765.941 970.073 767.761 964.633 772.251L964.111 772.693C958.605 777.506 955.666 784.459 956.05 791.762L972.093 1096.82C972.754 1109.4 983.139 1119.25 995.734 1119.25H1155.29C1170.86 1119.25 1183.45 1131.44 1183.95 1147L1186.46 1224.22C1186.87 1236.89 1197.12 1246.95 1209.79 1247.13L1412.57 1249.92V1249.92C1419.18 1250.03 1425.36 1247.43 1429.95 1242.67C1434.54 1237.9 1436.88 1231.62 1436.54 1225.01L1429.8 1096.3C1429.38 1088.36 1432.16 1080.82 1437.63 1075.06C1443.1 1069.3 1450.49 1066.12 1458.43 1066.12H1637.56C1638.94 1066.12 1640.06 1067.24 1640.06 1068.62C1640.06 1070 1638.94 1071.12 1637.56 1071.12H1458.43C1451.87 1071.12 1445.77 1073.74 1441.26 1078.5C1436.75 1083.26 1434.45 1089.49 1434.79 1096.04L1441.53 1224.75C1441.95 1232.76 1439.12 1240.35 1433.56 1246.13C1428.09 1251.81 1420.77 1254.93 1412.91 1254.93C1412.77 1254.93 1412.64 1254.92 1412.5 1254.92L1209.73 1252.13C1194.37 1251.92 1181.96 1239.73 1181.46 1224.38L1178.96 1147.16C1178.54 1134.32 1168.14 1124.25 1155.29 1124.25H995.734C980.478 1124.25 967.901 1112.32 967.1 1097.09L951.057 792.026C950.591 783.179 954.149 774.762 960.82 768.93Z" stroke="url(#paint43_linear_152_459)"/>
<path d="M1537.23 1093.44H1627.44C1628.26 1093.44 1628.94 1094.11 1628.94 1094.94C1628.94 1095.77 1628.26 1096.44 1627.44 1096.44H1537.23C1522 1096.44 1509.61 1108.83 1509.61 1124.06V1141.52C1509.61 1158.23 1496.01 1171.97 1479.31 1172.15L1314.18 1173.92C1314.07 1173.92 1313.95 1173.92 1313.84 1173.92C1305.73 1173.92 1298.09 1170.79 1292.31 1165.07C1286.45 1159.27 1283.23 1151.54 1283.23 1143.3V1121.75C1283.23 1120.93 1283.9 1120.25 1284.73 1120.25C1285.55 1120.25 1286.23 1120.93 1286.23 1121.75V1143.3C1286.23 1150.73 1289.14 1157.71 1294.42 1162.93C1299.71 1168.16 1306.74 1171 1314.15 1170.92L1479.28 1169.15C1494.35 1168.99 1506.61 1156.59 1506.61 1141.52V1124.06C1506.61 1107.18 1520.35 1093.44 1537.23 1093.44Z" stroke="url(#paint44_linear_152_459)"/>
<path d="M1475.32 787.352H1475.48L1729.13 789.002C1730.51 789.011 1731.63 790.138 1731.62 791.518C1731.61 792.893 1730.49 794.002 1729.12 794.002H1729.1L1475.45 792.352C1469.74 792.322 1464.44 794.599 1460.55 798.783C1456.66 802.967 1454.77 808.411 1455.22 814.104L1458.61 856.716L1458.65 857.191L1459.12 857.177L1729.86 848.771C1731.23 848.736 1732.4 849.817 1732.44 851.191C1732.48 852.571 1731.4 853.724 1730.02 853.768L1459.57 862.165L1459.04 862.181L1459.08 862.704L1462.02 899.644C1462.57 906.519 1460.35 913.146 1455.78 918.312C1451.21 923.476 1444.9 926.479 1438.01 926.771L1136.97 939.52C1136.6 939.533 1136.24 939.542 1135.88 939.542C1122.89 939.542 1112 929.663 1110.84 916.609L1108.78 893.339C1108.15 886.327 1110.53 879.325 1115.28 874.132C1120.03 868.939 1126.8 865.96 1133.83 865.96H1181.76C1187.61 865.96 1193.16 863.429 1196.99 859.016C1200.82 854.602 1202.54 848.752 1201.72 842.967L1200.47 834.183C1199.46 827.088 1201.54 819.878 1206.16 814.405C1210.79 808.932 1217.55 805.684 1224.71 805.495L1397.67 800.931C1410.97 800.598 1422.27 810.691 1423.4 823.945L1424.7 839.166C1425.61 849.837 1434.7 857.937 1445.41 857.603L1453.12 857.363L1453.64 857.347L1453.6 856.824L1450.24 814.501C1449.68 807.496 1452.11 800.525 1456.89 795.379C1461.64 790.273 1468.35 787.352 1475.32 787.352ZM1397.8 805.929L1224.85 810.493C1219.28 810.639 1214.03 813.085 1210.33 817.226L1209.98 817.632C1206.27 822.018 1204.61 827.794 1205.42 833.479L1206.67 842.264C1207.67 849.26 1205.68 856.329 1201.2 861.772L1200.76 862.294C1195.98 867.802 1189.06 870.961 1181.76 870.961L1133.83 870.96C1128.11 870.96 1122.83 873.286 1118.97 877.508C1115.1 881.729 1113.25 887.198 1113.76 892.897L1115.82 916.168C1116.78 926.917 1125.95 934.983 1136.75 934.523L1437.79 921.773C1443.31 921.54 1448.37 919.132 1452.03 914.996C1455.7 910.859 1457.47 905.545 1457.04 900.039L1454.08 862.811L1454.04 862.336L1453.56 862.351L1445.56 862.599C1432.18 863.015 1420.85 852.906 1419.72 839.589L1418.42 824.368C1417.52 813.748 1408.5 805.636 1397.8 805.929Z" stroke="url(#paint45_linear_152_459)"/>
<path d="M1729.94 823.57C1730.76 823.57 1731.43 824.237 1731.44 825.062C1731.44 825.89 1730.78 826.566 1729.95 826.57L1513.96 827.722C1509.85 827.743 1506.03 829.401 1503.2 832.385C1500.37 835.37 1498.92 839.278 1499.12 843.384L1501.03 882.276C1501.27 887.26 1499.5 891.982 1496.04 895.579C1492.62 899.135 1488.04 901.086 1483.12 901.086H1482.95L1284.71 899.294C1283.89 899.286 1283.22 898.609 1283.23 897.781C1283.23 896.958 1283.9 896.294 1284.73 896.294H1284.74L1482.98 898.085V898.086C1487.11 898.135 1491 896.494 1493.88 893.501C1496.76 890.507 1498.23 886.571 1498.03 882.424L1496.13 843.531C1495.89 838.598 1497.62 833.908 1501.02 830.321C1504.42 826.735 1509.01 824.748 1513.95 824.722L1729.93 823.57H1729.94Z" stroke="url(#paint46_linear_152_459)"/>
<path d="M904.75 350.528C904.97 350.364 905.283 350.41 905.449 350.633V350.632C906.239 351.695 907.019 352.803 907.768 353.92H907.769C907.903 354.119 907.873 354.382 907.71 354.548L907.632 354.612C907.545 354.67 907.448 354.697 907.354 354.697C907.19 354.697 907.032 354.619 906.937 354.476C906.196 353.372 905.426 352.28 904.646 351.229V351.228L904.594 351.141C904.496 350.931 904.555 350.673 904.749 350.529L904.75 350.528Z" stroke="url(#paint47_linear_152_459)"/>
<path d="M833.173 484.243C835.763 484.382 838.385 484.398 840.982 484.292C841.261 484.283 841.495 484.502 841.506 484.771V484.771C841.517 485.047 841.303 485.28 841.027 485.291H841.026C839.884 485.339 838.729 485.362 837.592 485.362C836.107 485.362 834.6 485.323 833.114 485.242H833.113C832.838 485.228 832.627 484.993 832.642 484.717V484.716C832.656 484.448 832.893 484.231 833.173 484.243ZM861.189 480.942C861.453 480.864 861.73 481.014 861.811 481.277V481.278C861.879 481.511 861.773 481.753 861.567 481.862L861.474 481.901L861.346 481.939C858.794 482.684 856.282 483.295 853.788 483.784L853.787 483.785C853.754 483.792 853.722 483.794 853.69 483.794C853.456 483.794 853.248 483.628 853.201 483.391C853.155 483.153 853.284 482.922 853.499 482.832L853.596 482.803C856.06 482.32 858.543 481.715 860.975 481.006H860.977L861.188 480.942H861.189ZM879.981 472.812C880.221 472.672 880.526 472.752 880.666 472.99C880.806 473.228 880.726 473.534 880.488 473.674V473.675C878.226 475.006 875.87 476.244 873.488 477.358L873.487 477.359C873.418 477.392 873.347 477.406 873.276 477.406C873.111 477.406 872.953 477.324 872.859 477.183L872.823 477.118C872.706 476.867 872.815 476.57 873.064 476.453C875.124 475.489 877.163 474.431 879.139 473.301L879.981 472.812ZM896.205 460.335C896.401 460.142 896.717 460.144 896.912 460.34V460.341C897.106 460.537 897.105 460.854 896.908 461.048C895.039 462.895 893.059 464.673 891.026 466.334L891.025 466.335C890.935 466.409 890.824 466.446 890.711 466.446C890.566 466.446 890.422 466.383 890.322 466.262C890.17 466.075 890.175 465.81 890.322 465.631L890.395 465.56C892.404 463.919 894.359 462.161 896.206 460.336L896.205 460.335ZM908.898 444.268C909.04 444.033 909.347 443.956 909.585 444.1V444.101C909.821 444.244 909.896 444.551 909.753 444.787C908.388 447.032 906.902 449.24 905.334 451.348L905.332 451.35C905.236 451.48 905.088 451.55 904.934 451.55C904.83 451.55 904.725 451.518 904.637 451.452L904.636 451.451L904.561 451.383C904.406 451.21 904.388 450.945 904.531 450.751L904.532 450.752C905.888 448.929 907.182 447.031 908.388 445.099L908.898 444.268ZM917.945 425.271C918.209 425.352 918.356 425.632 918.274 425.896C917.495 428.403 916.588 430.906 915.577 433.334C915.496 433.526 915.31 433.643 915.115 433.643C915.053 433.643 914.987 433.631 914.922 433.604H914.923C914.669 433.498 914.547 433.204 914.653 432.948C915.528 430.849 916.325 428.694 917.025 426.528L917.319 425.6C917.401 425.336 917.682 425.189 917.945 425.271ZM921.466 404.972H921.47C921.745 404.987 921.957 405.222 921.942 405.498C921.8 408.122 921.53 410.772 921.141 413.371C921.104 413.619 920.891 413.797 920.648 413.797C920.619 413.797 920.596 413.796 920.578 413.793L920.572 413.792L920.475 413.767C920.257 413.687 920.117 413.463 920.152 413.224C920.537 410.654 920.803 408.037 920.943 405.443C920.959 405.166 921.199 404.955 921.466 404.972ZM919.912 384.423C920.18 384.369 920.442 384.544 920.496 384.818C921.001 387.4 921.389 390.034 921.65 392.646C921.678 392.921 921.477 393.165 921.203 393.192C921.181 393.194 921.164 393.195 921.151 393.195C920.897 393.195 920.68 393.002 920.654 392.745V392.744C920.397 390.163 920.014 387.561 919.515 385.01C919.462 384.739 919.639 384.476 919.91 384.423H919.912ZM913.415 364.866C913.634 364.764 913.891 364.835 914.029 365.021L914.081 365.108C915.191 367.485 916.203 369.948 917.089 372.426C917.17 372.654 917.078 372.901 916.879 373.021L916.788 373.064L916.78 373.067C916.727 373.087 916.673 373.097 916.618 373.097C916.412 373.097 916.221 372.968 916.148 372.765V372.764C915.272 370.314 914.27 367.882 913.174 365.533C913.057 365.283 913.166 364.984 913.416 364.867L913.415 364.866Z" stroke="url(#paint48_linear_152_459)"/>
<path d="M816.665 481.681C817.627 481.931 818.6 482.167 819.568 482.383L820.534 482.592C820.804 482.648 820.977 482.912 820.92 483.183V483.184C820.87 483.419 820.663 483.581 820.433 483.581C820.399 483.581 820.365 483.578 820.33 483.57L820.328 483.569L819.351 483.358C818.698 483.213 818.043 483.059 817.391 482.897L816.413 482.649L816.318 482.614C816.14 482.527 816.03 482.339 816.04 482.14L816.056 482.039C816.117 481.804 816.332 481.652 816.564 481.665L816.665 481.681Z" stroke="url(#paint49_linear_152_459)"/>
<path d="M763.97 441.164C764.209 441.031 764.513 441.117 764.648 441.359V441.36C765.128 442.228 765.628 443.094 766.14 443.945L766.655 444.792C766.8 445.027 766.727 445.334 766.492 445.479H766.491C766.41 445.53 766.321 445.554 766.23 445.554C766.061 445.554 765.897 445.469 765.804 445.316L765.282 444.46C764.765 443.599 764.26 442.722 763.774 441.844H763.773C763.64 441.603 763.727 441.298 763.969 441.164H763.97Z" stroke="url(#paint50_linear_152_459)"/>
<path d="M756.489 422.323C756.724 422.26 756.964 422.374 757.068 422.581L757.104 422.676C757.249 423.209 757.398 423.742 757.554 424.276C758.116 426.206 758.753 428.133 759.447 430.005C759.531 430.231 759.441 430.48 759.243 430.603L759.153 430.646C759.093 430.669 759.034 430.679 758.979 430.679C758.8 430.679 758.632 430.583 758.543 430.424L758.51 430.352C757.807 428.458 757.162 426.508 756.594 424.556V424.555L756.139 422.937C756.066 422.67 756.223 422.395 756.489 422.323ZM753.701 402.243C753.995 402.249 754.213 402.473 754.219 402.73V402.731C754.275 405.285 754.453 407.866 754.746 410.405C754.778 410.68 754.58 410.928 754.308 410.959L754.292 410.961L754.276 410.964H754.249C754 410.964 753.783 410.776 753.754 410.521C753.494 408.273 753.323 405.991 753.246 403.725L753.219 402.755C753.213 402.481 753.428 402.254 753.701 402.243ZM755.848 382.082V382.083C756.118 382.144 756.287 382.411 756.227 382.68C755.664 385.174 755.213 387.723 754.885 390.254C754.852 390.507 754.636 390.691 754.391 390.691C754.372 390.691 754.35 390.69 754.322 390.687C754.05 390.65 753.858 390.4 753.894 390.127C754.184 387.885 754.57 385.63 755.043 383.41L755.251 382.461C755.312 382.193 755.581 382.023 755.848 382.082ZM762.671 362.992L762.766 363.028C763.013 363.152 763.113 363.451 762.99 363.698L762.989 363.699C761.99 365.702 761.063 367.763 760.227 369.841L759.874 370.731C759.797 370.929 759.609 371.051 759.408 371.051C759.348 371.051 759.285 371.04 759.225 371.017C758.968 370.915 758.842 370.626 758.941 370.37L758.942 370.369C759.879 367.963 760.94 365.568 762.096 363.252L762.095 363.251C762.203 363.035 762.447 362.932 762.671 362.992ZM773.326 346.234C773.482 346.051 773.743 346.008 773.948 346.12L774.032 346.178C774.242 346.357 774.267 346.671 774.089 346.882C772.437 348.828 770.855 350.875 769.387 352.967C769.288 353.107 769.133 353.181 768.975 353.181C768.876 353.181 768.777 353.152 768.69 353.091L768.689 353.09L768.612 353.023C768.453 352.854 768.428 352.591 768.566 352.394H768.567C769.867 350.542 771.255 348.724 772.702 346.979L773.326 346.234ZM788.301 332.406C788.523 332.245 788.836 332.295 788.998 332.521C789.159 332.744 789.109 333.056 788.885 333.218C787.07 334.524 785.292 335.918 783.587 337.369L782.86 337.995C782.766 338.077 782.65 338.118 782.533 338.118C782.392 338.118 782.254 338.06 782.156 337.947L782.155 337.946L782.098 337.864C781.983 337.663 782.022 337.401 782.204 337.241C784.15 335.544 786.202 333.917 788.3 332.406H788.301ZM806.169 322.596C806.427 322.493 806.717 322.617 806.819 322.873L806.82 322.874C806.923 323.13 806.798 323.421 806.541 323.523C804.463 324.354 802.401 325.279 800.396 326.275L799.541 326.707C799.468 326.745 799.391 326.762 799.313 326.762C799.153 326.762 799 326.685 798.905 326.551L798.868 326.49C798.758 326.274 798.819 326.017 799.001 325.872L799.086 325.817C801.384 324.641 803.767 323.556 806.168 322.595L806.169 322.596ZM825.87 317.33C826.143 317.292 826.398 317.482 826.437 317.756C826.475 318.028 826.285 318.282 826.011 318.321C823.801 318.635 821.578 319.042 819.388 319.535L818.452 319.751C818.412 319.76 818.373 319.765 818.336 319.765C818.138 319.765 817.957 319.646 817.878 319.463L817.851 319.381C817.787 319.111 817.954 318.842 818.221 318.778H818.222C820.427 318.256 822.673 317.818 824.912 317.473L825.87 317.33ZM838.481 316.5H838.486L839.458 316.515C841.728 316.563 844.011 316.706 846.259 316.938C846.5 316.963 846.682 317.154 846.705 317.385V317.485C846.679 317.743 846.461 317.935 846.209 317.935C846.184 317.935 846.17 317.935 846.162 317.934L846.156 317.933L845.202 317.84C842.972 317.636 840.714 317.522 838.476 317.5L838.375 317.489C838.148 317.441 837.978 317.237 837.98 316.995V316.994C837.983 316.721 838.207 316.5 838.481 316.5Z" stroke="url(#paint51_linear_152_459)"/>
<path d="M858.75 319.188H858.751C860.043 319.523 861.343 319.894 862.617 320.29C862.848 320.362 862.99 320.585 862.967 320.816L862.946 320.916C862.879 321.129 862.681 321.268 862.469 321.268C862.445 321.268 862.421 321.266 862.396 321.262L862.317 321.244C861.06 320.853 859.775 320.487 858.5 320.156C858.233 320.087 858.072 319.814 858.142 319.546C858.211 319.279 858.482 319.119 858.75 319.188Z" stroke="url(#paint52_linear_152_459)"/>
<path d="M828.971 337.703C829.154 337.656 829.346 337.716 829.471 337.853L829.52 337.915L836.271 348.136L836.424 348.366L836.699 348.36C842.534 348.234 848.255 349.078 853.667 350.773L853.931 350.855L854.141 350.677L863.476 342.732C863.641 342.592 863.876 342.572 864.062 342.682H864.062L876.722 350.163C876.908 350.274 877.003 350.489 876.96 350.701L874.506 362.711L874.45 362.981L874.65 363.173C878.747 367.095 882.246 371.698 884.95 376.869L885.078 377.113L885.354 377.136L897.564 378.119H897.565C897.781 378.136 897.962 378.288 898.016 378.498L901.678 392.738C901.731 392.948 901.646 393.169 901.467 393.287H901.466L891.245 400.04L891.015 400.192L891.021 400.468C891.146 406.301 890.302 412.022 888.607 417.435L888.525 417.698L888.704 417.908L896.647 427.243C896.77 427.387 896.801 427.586 896.733 427.759L896.698 427.83L889.22 440.488C889.109 440.675 888.893 440.771 888.681 440.728L876.671 438.273L876.4 438.218L876.21 438.417C872.288 442.514 867.685 446.013 862.513 448.718L862.269 448.846L862.246 449.121L861.265 461.332V461.333C861.248 461.547 861.095 461.728 860.885 461.782L846.646 465.445C846.463 465.492 846.271 465.433 846.146 465.297L846.096 465.233L839.343 455.013L839.19 454.782L838.915 454.788C833.082 454.915 827.361 454.07 821.948 452.375L821.685 452.293L821.475 452.472L812.14 460.417H812.139C811.975 460.557 811.74 460.577 811.554 460.467H811.553L798.895 452.988C798.708 452.878 798.612 452.662 798.655 452.449L801.109 440.439L801.165 440.169L800.966 439.979C796.869 436.056 793.369 431.452 790.665 426.281L790.537 426.037L790.262 426.015L778.052 425.032H778.051C777.836 425.015 777.655 424.862 777.601 424.652L773.938 410.413C773.89 410.23 773.95 410.037 774.087 409.912L774.149 409.863L784.37 403.11L784.601 402.958L784.595 402.683C784.469 396.848 785.313 391.127 787.008 385.715L787.09 385.451L786.911 385.241L778.968 375.906C778.828 375.741 778.807 375.506 778.917 375.32V375.319L786.396 362.66L786.396 362.661C786.493 362.497 786.671 362.403 786.855 362.411L786.935 362.421L798.944 364.876L799.215 364.932L799.406 364.732C803.328 360.636 807.932 357.136 813.103 354.432L813.347 354.304L813.369 354.028L814.351 341.816C814.369 341.6 814.522 341.42 814.73 341.366L828.971 337.703Z" stroke="url(#paint53_linear_152_459)"/>
<path d="M831.076 389.228C837.88 385.518 846.436 388.038 850.145 394.842C851.942 398.139 852.348 401.936 851.287 405.539C850.227 409.141 847.829 412.115 844.531 413.911H844.53C842.4 415.073 840.099 415.623 837.828 415.623C832.843 415.623 828.009 412.97 825.462 408.297C821.753 401.492 824.272 392.936 831.076 389.228ZM848.39 395.8C845.206 389.962 837.87 387.802 832.033 390.983C826.196 394.166 824.036 401.501 827.218 407.339C830.4 413.175 837.736 415.336 843.573 412.155V412.154C846.399 410.613 848.459 408.063 849.368 404.974C850.278 401.886 849.93 398.626 848.39 395.8Z" fill="#BDD0FB" fill-opacity="0.18" stroke="url(#paint54_linear_152_459)"/>
<path d="M835.846 367.423C833.575 367.546 831.301 367.894 829.081 368.465C813.536 372.463 803.186 386.509 803.188 401.866C803.188 404.7 803.541 407.578 804.278 410.446C809.014 428.858 827.846 439.984 846.259 435.249C861.803 431.251 872.154 417.205 872.152 401.848C872.152 399.013 871.799 396.136 871.062 393.268C869.546 387.377 866.512 382.002 862.272 377.692L863.677 376.269C868.173 380.832 871.393 386.526 872.998 392.77C873.778 395.804 874.151 398.85 874.152 401.848C874.154 418.096 863.201 432.957 846.757 437.187C843.721 437.966 840.674 438.339 837.676 438.339C821.429 438.339 806.572 427.386 802.342 410.943C801.561 407.908 801.188 404.863 801.188 401.866C801.186 385.871 811.799 371.222 827.816 366.733L828.583 366.527C830.847 365.945 833.164 365.58 835.481 365.438H835.482C835.577 365.431 835.672 365.428 835.767 365.423L835.846 367.423Z" fill="#BDD0FB" fill-opacity="0.18" stroke="url(#paint55_linear_152_459)"/>
</g>
<defs>
<linearGradient id="paint0_linear_152_459" x1="403" y1="826.306" x2="1404.15" y2="826.306" gradientUnits="userSpaceOnUse">
<stop stop-color="#E8DDDD"/>
<stop offset="1" stop-color="#E6E606"/>
</linearGradient>
<linearGradient id="paint1_linear_152_459" x1="433.242" y1="826.286" x2="884.599" y2="826.286" gradientUnits="userSpaceOnUse">
<stop stop-color="#E8DDDD"/>
<stop offset="1" stop-color="#E6E606"/>
</linearGradient>
<linearGradient id="paint2_linear_152_459" x1="922.555" y1="826.286" x2="1373.91" y2="826.286" gradientUnits="userSpaceOnUse">
<stop stop-color="#E8DDDD"/>
<stop offset="1" stop-color="#E6E606"/>
</linearGradient>
<linearGradient id="paint3_linear_152_459" x1="788.391" y1="422.016" x2="834.324" y2="422.016" gradientUnits="userSpaceOnUse">
<stop stop-color="#E8DDDD"/>
<stop offset="1" stop-color="#E6E606"/>
</linearGradient>
<linearGradient id="paint4_linear_152_459" x1="634.68" y1="530.299" x2="780.161" y2="530.299" gradientUnits="userSpaceOnUse">
<stop stop-color="#E8DDDD"/>
<stop offset="1" stop-color="#E6E606"/>
</linearGradient>
<linearGradient id="paint5_linear_152_459" x1="557.133" y1="680.382" x2="686.527" y2="680.382" gradientUnits="userSpaceOnUse">
<stop stop-color="#E8DDDD"/>
<stop offset="1" stop-color="#E6E606"/>
</linearGradient>
<linearGradient id="paint6_linear_152_459" x1="555.578" y1="779.109" x2="666.638" y2="779.109" gradientUnits="userSpaceOnUse">
<stop stop-color="#E8DDDD"/>
<stop offset="1" stop-color="#E6E606"/>
</linearGradient>
<linearGradient id="paint7_linear_152_459" x1="717.664" y1="807.655" x2="811.54" y2="807.655" gradientUnits="userSpaceOnUse">
<stop stop-color="#E8DDDD"/>
<stop offset="1" stop-color="#E6E606"/>
</linearGradient>
<linearGradient id="paint8_linear_152_459" x1="602.719" y1="937.921" x2="765.376" y2="937.921" gradientUnits="userSpaceOnUse">
<stop stop-color="#E8DDDD"/>
<stop offset="1" stop-color="#E6E606"/>
</linearGradient>
<linearGradient id="paint9_linear_152_459" x1="745.172" y1="1023.16" x2="885.219" y2="1023.16" gradientUnits="userSpaceOnUse">
<stop stop-color="#E8DDDD"/>
<stop offset="1" stop-color="#E6E606"/>
</linearGradient>
<linearGradient id="paint10_linear_152_459" x1="472.625" y1="959.477" x2="660.009" y2="959.477" gradientUnits="userSpaceOnUse">
<stop stop-color="#E8DDDD"/>
<stop offset="1" stop-color="#E6E606"/>
</linearGradient>
<linearGradient id="paint11_linear_152_459" x1="538.656" y1="1164.36" x2="621.68" y2="1164.36" gradientUnits="userSpaceOnUse">
<stop stop-color="#E8DDDD"/>
<stop offset="1" stop-color="#E6E606"/>
</linearGradient>
<linearGradient id="paint12_linear_152_459" x1="665.5" y1="1162.41" x2="804.085" y2="1162.41" gradientUnits="userSpaceOnUse">
<stop stop-color="#E8DDDD"/>
<stop offset="1" stop-color="#E6E606"/>
</linearGradient>
<linearGradient id="paint13_linear_152_459" x1="963.289" y1="427.59" x2="1057.24" y2="427.59" gradientUnits="userSpaceOnUse">
<stop stop-color="#E8DDDD"/>
<stop offset="1" stop-color="#E6E606"/>
</linearGradient>
<linearGradient id="paint14_linear_152_459" x1="1050.81" y1="503.428" x2="1167.32" y2="503.428" gradientUnits="userSpaceOnUse">
<stop stop-color="#E8DDDD"/>
<stop offset="1" stop-color="#E6E606"/>
</linearGradient>
<linearGradient id="paint15_linear_152_459" x1="949.805" y1="587.507" x2="1009.16" y2="587.507" gradientUnits="userSpaceOnUse">
<stop stop-color="#E8DDDD"/>
<stop offset="1" stop-color="#E6E606"/>
</linearGradient>
<linearGradient id="paint16_linear_152_459" x1="1068.65" y1="613.673" x2="1182.63" y2="613.673" gradientUnits="userSpaceOnUse">
<stop stop-color="#E8DDDD"/>
<stop offset="1" stop-color="#E6E606"/>
</linearGradient>
<linearGradient id="paint17_linear_152_459" x1="1067.72" y1="791.479" x2="1182.63" y2="791.479" gradientUnits="userSpaceOnUse">
<stop stop-color="#E8DDDD"/>
<stop offset="1" stop-color="#E6E606"/>
</linearGradient>
<linearGradient id="paint18_linear_152_459" x1="1175.66" y1="720.004" x2="1268.22" y2="720.004" gradientUnits="userSpaceOnUse">
<stop stop-color="#E8DDDD"/>
<stop offset="1" stop-color="#E6E606"/>
</linearGradient>
<linearGradient id="paint19_linear_152_459" x1="1155.08" y1="958.187" x2="1337.5" y2="958.187" gradientUnits="userSpaceOnUse">
<stop stop-color="#E8DDDD"/>
<stop offset="1" stop-color="#E6E606"/>
</linearGradient>
<linearGradient id="paint20_linear_152_459" x1="957.906" y1="1010.56" x2="1085.08" y2="1010.56" gradientUnits="userSpaceOnUse">
<stop stop-color="#E8DDDD"/>
<stop offset="1" stop-color="#E6E606"/>
</linearGradient>
<linearGradient id="paint21_linear_152_459" x1="999.734" y1="1163.79" x2="1134.3" y2="1163.79" gradientUnits="userSpaceOnUse">
<stop stop-color="#E8DDDD"/>
<stop offset="1" stop-color="#E6E606"/>
</linearGradient>
<linearGradient id="paint22_linear_152_459" x1="1190.23" y1="1170.34" x2="1268.52" y2="1170.34" gradientUnits="userSpaceOnUse">
<stop stop-color="#E8DDDD"/>
<stop offset="1" stop-color="#E6E606"/>
</linearGradient>
<linearGradient id="paint23_linear_152_459" x1="1744.23" y1="817.468" x2="1970.76" y2="817.468" gradientUnits="userSpaceOnUse">
<stop stop-color="#E8DDDD"/>
<stop offset="1" stop-color="#E6E606"/>
</linearGradient>
<linearGradient id="paint24_linear_152_459" x1="1771.23" y1="817.494" x2="1957.77" y2="817.494" gradientUnits="userSpaceOnUse">
<stop stop-color="#E8DDDD"/>
<stop offset="1" stop-color="#E6E606"/>
</linearGradient>
<linearGradient id="paint25_linear_152_459" x1="1680.45" y1="569.122" x2="2049.34" y2="569.122" gradientUnits="userSpaceOnUse">
<stop stop-color="#E8DDDD"/>
<stop offset="1" stop-color="#E6E606"/>
</linearGradient>
<linearGradient id="paint26_linear_152_459" x1="1689.36" y1="569.681" x2="2043.05" y2="569.681" gradientUnits="userSpaceOnUse">
<stop stop-color="#E8DDDD"/>
<stop offset="1" stop-color="#E6E606"/>
</linearGradient>
<linearGradient id="paint27_linear_152_459" x1="1694.48" y1="574.595" x2="1696.7" y2="574.595" gradientUnits="userSpaceOnUse">
<stop stop-color="#E8DDDD"/>
<stop offset="1" stop-color="#E6E606"/>
</linearGradient>
<linearGradient id="paint28_linear_152_459" x1="1693.34" y1="510.125" x2="1813.39" y2="510.125" gradientUnits="userSpaceOnUse">
<stop stop-color="#E8DDDD"/>
<stop offset="1" stop-color="#E6E606"/>
</linearGradient>
<linearGradient id="paint29_linear_152_459" x1="1706.13" y1="571.921" x2="2030.98" y2="571.921" gradientUnits="userSpaceOnUse">
<stop stop-color="#E8DDDD"/>
<stop offset="1" stop-color="#E6E606"/>
</linearGradient>
<linearGradient id="paint30_linear_152_459" x1="1662.15" y1="689.622" x2="2072.81" y2="689.622" gradientUnits="userSpaceOnUse">
<stop stop-color="#E8DDDD"/>
<stop offset="1" stop-color="#E6E606"/>
</linearGradient>
<linearGradient id="paint31_linear_152_459" x1="1813.86" y1="1192.98" x2="1913.63" y2="1192.98" gradientUnits="userSpaceOnUse">
<stop stop-color="#E8DDDD"/>
<stop offset="1" stop-color="#E6E606"/>
</linearGradient>
<linearGradient id="paint32_linear_152_459" x1="1654.87" y1="1058.72" x2="2053.12" y2="1058.72" gradientUnits="userSpaceOnUse">
<stop stop-color="#E8DDDD"/>
<stop offset="1" stop-color="#E6E606"/>
</linearGradient>
<linearGradient id="paint33_linear_152_459" x1="1665.95" y1="1051.34" x2="2039.62" y2="1051.34" gradientUnits="userSpaceOnUse">
<stop stop-color="#E8DDDD"/>
<stop offset="1" stop-color="#E6E606"/>
</linearGradient>
<linearGradient id="paint34_linear_152_459" x1="1664.95" y1="1154.3" x2="2042.63" y2="1154.3" gradientUnits="userSpaceOnUse">
<stop stop-color="#E8DDDD"/>
<stop offset="1" stop-color="#E6E606"/>
</linearGradient>
<linearGradient id="paint35_linear_152_459" x1="1852.59" y1="1161.42" x2="1862.4" y2="1161.42" gradientUnits="userSpaceOnUse">
<stop stop-color="#E8DDDD"/>
<stop offset="1" stop-color="#E6E606"/>
</linearGradient>
<linearGradient id="paint36_linear_152_459" x1="1782.8" y1="1236.51" x2="1941.43" y2="1236.51" gradientUnits="userSpaceOnUse">
<stop stop-color="#E8DDDD"/>
<stop offset="1" stop-color="#E6E606"/>
</linearGradient>
<linearGradient id="paint37_linear_152_459" x1="1866.71" y1="1231.58" x2="1874.74" y2="1231.58" gradientUnits="userSpaceOnUse">
<stop stop-color="#E8DDDD"/>
<stop offset="1" stop-color="#E6E606"/>
</linearGradient>
<linearGradient id="paint38_linear_152_459" x1="1787.33" y1="1237.26" x2="1859.56" y2="1237.26" gradientUnits="userSpaceOnUse">
<stop stop-color="#E8DDDD"/>
<stop offset="1" stop-color="#E6E606"/>
</linearGradient>
<linearGradient id="paint39_linear_152_459" x1="1080.08" y1="515.453" x2="1656.22" y2="515.453" gradientUnits="userSpaceOnUse">
<stop stop-color="#E8DDDD"/>
<stop offset="1" stop-color="#E6E606"/>
</linearGradient>
<linearGradient id="paint40_linear_152_459" x1="1238" y1="601.121" x2="1655.23" y2="601.121" gradientUnits="userSpaceOnUse">
<stop stop-color="#E8DDDD"/>
<stop offset="1" stop-color="#E6E606"/>
</linearGradient>
<linearGradient id="paint41_linear_152_459" x1="1018.28" y1="635.569" x2="1656.23" y2="635.569" gradientUnits="userSpaceOnUse">
<stop stop-color="#E8DDDD"/>
<stop offset="1" stop-color="#E6E606"/>
</linearGradient>
<linearGradient id="paint42_linear_152_459" x1="1007.02" y1="882.888" x2="1636.29" y2="882.888" gradientUnits="userSpaceOnUse">
<stop stop-color="#E8DDDD"/>
<stop offset="1" stop-color="#E6E606"/>
</linearGradient>
<linearGradient id="paint43_linear_152_459" x1="950.516" y1="1008.38" x2="1640.56" y2="1008.38" gradientUnits="userSpaceOnUse">
<stop stop-color="#E8DDDD"/>
<stop offset="1" stop-color="#E6E606"/>
</linearGradient>
<linearGradient id="paint44_linear_152_459" x1="1282.73" y1="1133.68" x2="1629.44" y2="1133.68" gradientUnits="userSpaceOnUse">
<stop stop-color="#E8DDDD"/>
<stop offset="1" stop-color="#E6E606"/>
</linearGradient>
<linearGradient id="paint45_linear_152_459" x1="1108.18" y1="863.447" x2="1732.94" y2="863.447" gradientUnits="userSpaceOnUse">
<stop stop-color="#E8DDDD"/>
<stop offset="1" stop-color="#E6E606"/>
</linearGradient>
<linearGradient id="paint46_linear_152_459" x1="1282.73" y1="862.328" x2="1731.94" y2="862.328" gradientUnits="userSpaceOnUse">
<stop stop-color="#E8DDDD"/>
<stop offset="1" stop-color="#E6E606"/>
</linearGradient>
<linearGradient id="paint47_linear_152_459" x1="904.047" y1="352.563" x2="908.353" y2="352.563" gradientUnits="userSpaceOnUse">
<stop stop-color="#E8DDDD"/>
<stop offset="1" stop-color="#E6E606"/>
</linearGradient>
<linearGradient id="paint48_linear_152_459" x1="832.141" y1="425.091" x2="922.443" y2="425.091" gradientUnits="userSpaceOnUse">
<stop stop-color="#E8DDDD"/>
<stop offset="1" stop-color="#E6E606"/>
</linearGradient>
<linearGradient id="paint49_linear_152_459" x1="815.539" y1="482.623" x2="821.431" y2="482.623" gradientUnits="userSpaceOnUse">
<stop stop-color="#E8DDDD"/>
<stop offset="1" stop-color="#E6E606"/>
</linearGradient>
<linearGradient id="paint50_linear_152_459" x1="763.211" y1="443.328" x2="767.229" y2="443.328" gradientUnits="userSpaceOnUse">
<stop stop-color="#E8DDDD"/>
<stop offset="1" stop-color="#E6E606"/>
</linearGradient>
<linearGradient id="paint51_linear_152_459" x1="752.719" y1="373.59" x2="847.207" y2="373.59" gradientUnits="userSpaceOnUse">
<stop stop-color="#E8DDDD"/>
<stop offset="1" stop-color="#E6E606"/>
</linearGradient>
<linearGradient id="paint52_linear_152_459" x1="857.625" y1="320.22" x2="863.469" y2="320.22" gradientUnits="userSpaceOnUse">
<stop stop-color="#E8DDDD"/>
<stop offset="1" stop-color="#E6E606"/>
</linearGradient>
<linearGradient id="paint53_linear_152_459" x1="773.422" y1="401.574" x2="902.193" y2="401.574" gradientUnits="userSpaceOnUse">
<stop stop-color="#E8DDDD"/>
<stop offset="1" stop-color="#E6E606"/>
</linearGradient>
<linearGradient id="paint54_linear_152_459" x1="823.25" y1="401.569" x2="852.366" y2="401.569" gradientUnits="userSpaceOnUse">
<stop stop-color="#E8DDDD"/>
<stop offset="1" stop-color="#E6E606"/>
</linearGradient>
<linearGradient id="paint55_linear_152_459" x1="800.688" y1="401.868" x2="874.652" y2="401.868" gradientUnits="userSpaceOnUse">
<stop stop-color="#E8DDDD"/>
<stop offset="1" stop-color="#E6E606"/>
</linearGradient>
<clipPath id="clip0_152_459">
<rect width="2475" height="1650" fill="white"/>
</clipPath>
</defs>
</svg>
